<svg xmlns="http://www.w3.org/2000/svg" width="26.465" height="68.101" viewBox="0 0 26.465 68.101"><g transform="translate(0 0)"><g transform="translate(0 0)"><path d="M26.465,50.716V46.606a2.275,2.275,0,0,0-1.348-2.074V42.649a11.88,11.88,0,0,0-7.978-11.214V27.25H9.326v4.186A11.88,11.88,0,0,0,1.348,42.65v1.883A2.273,2.273,0,0,0,0,46.608v4.109a2.275,2.275,0,0,0,1.348,2.074v3.3A2.273,2.273,0,0,0,0,58.162v4.109a2.273,2.273,0,0,0,1.348,2.074v3.3A2.273,2.273,0,0,0,0,69.715v4.109A2.273,2.273,0,0,0,1.348,75.9v3.3A2.273,2.273,0,0,0,0,81.268v4.109a2.273,2.273,0,0,0,1.348,2.074v3.035H25.117V87.452a2.273,2.273,0,0,0,1.348-2.074V81.268a2.273,2.273,0,0,0-1.348-2.074V75.9a2.273,2.273,0,0,0,1.348-2.074V69.715a2.273,2.273,0,0,0-1.348-2.074v-3.3a2.273,2.273,0,0,0,1.348-2.074V58.162a2.273,2.273,0,0,0-1.348-2.074v-3.3a2.273,2.273,0,0,0,1.348-2.074Z" transform="translate(0 -22.385)" fill="#8fdaff" opacity="0.7"/><path d="M28.037,93.134l-.411-.184V90.617a11.137,11.137,0,0,0-1.175-4.977H6.422a11.125,11.125,0,0,0-1.175,4.977V92.95l-.411.184A1.585,1.585,0,0,0,3.9,94.58v4.1a1.572,1.572,0,0,0,.932,1.437l.416.186v4.2l-.418.187a1.574,1.574,0,0,0-.93,1.437v4.109a1.574,1.574,0,0,0,.93,1.437l.418.187v4.2l-.416.186a1.577,1.577,0,0,0-.932,1.437v4.109a1.577,1.577,0,0,0,.932,1.439l.416.186v4.2l-.418.187a1.574,1.574,0,0,0-.93,1.437v4.1a1.588,1.588,0,0,0,.937,1.448l.411.184v.25a1.711,1.711,0,0,0,2.26,1.63c6.053-.769,10.281-.637,17.842.086a1.726,1.726,0,0,0,2.278-1.626v-.339l.418-.187a1.577,1.577,0,0,0,.932-1.437V129.23a1.574,1.574,0,0,0-.93-1.437l-.418-.187v-4.2l.411-.184a1.585,1.585,0,0,0,.937-1.448v-4.1a1.588,1.588,0,0,0-.937-1.448l-.411-.184v-4.2l.411-.184a1.585,1.585,0,0,0,.937-1.448v-4.1a1.574,1.574,0,0,0-.93-1.437l-.418-.187v-4.2l.411-.184a1.585,1.585,0,0,0,.937-1.448V94.578a1.588,1.588,0,0,0-.937-1.448Z" transform="translate(-3.204 -70.352)" fill="#34b1ed"/><path d="M56.106,6.717H46.1V2.312A2.312,2.312,0,0,1,48.412,0h5.38A2.312,2.312,0,0,1,56.1,2.312v4.4Z" transform="translate(-37.87 0)" fill="#0486d1"/><path d="M28.873,73.741c-.73,1.448-2.18,2.189-3.24,1.655s-1.326-2.14-.6-3.588,2.18-2.189,3.24-1.655S29.6,72.293,28.873,73.741Z" transform="translate(-20.229 -57.487)" fill="#fff"/><rect width="26.465" height="8.66" rx="4.33" transform="translate(0 21.947)" fill="#1d1d1b" opacity="0.05"/><rect width="26.465" height="8.66" rx="4.33" transform="translate(0 33.498)" fill="#1d1d1b" opacity="0.05"/><rect width="26.465" height="8.66" rx="4.33" transform="translate(0 45.05)" fill="#1d1d1b" opacity="0.05"/><rect width="26.465" height="8.66" rx="4.33" transform="translate(0 56.601)" fill="#1d1d1b" opacity="0.05"/><path d="M26.424,252.279c-.007-.041-.018-.082-.029-.123a2.424,2.424,0,0,0-.086-.273c-.016-.041-.029-.08-.046-.12a2.393,2.393,0,0,0-.177-.327c-.025-.038-.054-.068-.08-.1-.05-.066-.1-.13-.157-.191-.041-.045-.086-.087-.13-.129s-.1-.086-.152-.125-.1-.079-.155-.114a2.1,2.1,0,0,0-.286-.155s-.005,0-.009-.005v-.623C19.942,261.044,10.988,268.357.8,268.357c-.27,0-.536-.018-.8-.029v.02a2.243,2.243,0,0,0,.041.412c.007.039.018.079.027.118a2.021,2.021,0,0,0,.087.278c.014.039.029.079.045.116a2.244,2.244,0,0,0,.179.328c.023.034.05.064.075.1a2.433,2.433,0,0,0,.162.2,1.69,1.69,0,0,0,.129.125q.075.067.155.129c.05.039.1.077.152.112a2.256,2.256,0,0,0,.3.161v3.035H25.117v-3.035l.009-.005a2.1,2.1,0,0,0,.286-.155c.055-.036.1-.075.155-.114s.1-.08.152-.125.089-.084.13-.129a2.285,2.285,0,0,0,.157-.191c.027-.036.055-.068.08-.1a2.215,2.215,0,0,0,.177-.327c.018-.039.032-.08.046-.12a2.421,2.421,0,0,0,.086-.273c.011-.041.02-.08.029-.123a2.185,2.185,0,0,0,.041-.407v-4.117a2.185,2.185,0,0,0-.041-.407c-.007-.041-.018-.082-.029-.123a2.422,2.422,0,0,0-.086-.273c-.016-.041-.029-.08-.046-.12a2.4,2.4,0,0,0-.177-.327c-.025-.036-.054-.068-.08-.1-.05-.066-.1-.13-.157-.191-.041-.045-.086-.086-.13-.129s-.1-.086-.152-.125-.1-.079-.155-.114a2.1,2.1,0,0,0-.286-.155s-.005,0-.009-.005v-3.3l.009-.005a2.1,2.1,0,0,0,.286-.155c.055-.036.1-.075.155-.114s.1-.08.152-.125.089-.084.13-.129a2.29,2.29,0,0,0,.157-.191c.027-.036.055-.068.08-.1a2.216,2.216,0,0,0,.177-.327c.018-.039.032-.08.046-.12a2.422,2.422,0,0,0,.086-.273c.011-.041.02-.08.029-.123a2.185,2.185,0,0,0,.041-.407v-4.117a2.185,2.185,0,0,0-.041-.407Z" transform="translate(0 -205.363)" fill="#1d1d1b" opacity="0.05"/></g></g></svg>