<svg xmlns="http://www.w3.org/2000/svg" width="40.227" height="102.476" viewBox="0 0 40.227 102.476"><g transform="translate(-207.089 -74.166)"><path d="M402.075,357.77c.047,4.15.447,8.3.366,12.446a108.024,108.024,0,0,1-1.142,12.068,3.025,3.025,0,0,1-.835,2.045,3.434,3.434,0,0,1-1.568.6,25.279,25.279,0,0,1-12.028-.626,90.421,90.421,0,0,1-.2-14.347c.294-4.473.92-8.947.629-13.419-.175-2.693-.682-5.365-.744-8.062-.154-6.675,2.414-13.209,2.359-19.885-.025-3.07-.492-6.5,1.644-8.878a11.936,11.936,0,0,1,3.648-2.424l6.227-3.12c2.925-1.466,5.084-5.318,5.164-2.288.089,3.343-.27,11.1-.565,14.431-.6,6.759-1.7,13.47-2.378,20.221A101.471,101.471,0,0,0,402.075,357.77Z" transform="translate(-158.485 -209.015)" fill="#899dc9"/><path d="M237.456,75.283a3.2,3.2,0,0,1,1.337-.434,81.193,81.193,0,0,1,15.648-.488l13.58.452a3.312,3.312,0,0,1,1.15.175c.361.148.847.476.894.863s-.343.727-.58,1.032a10.4,10.4,0,0,1-6.106,3.491,38.228,38.228,0,0,1-7.146.552c-3.086.079-6.177.291-9.258.1a21.483,21.483,0,0,1-8.906-2.264,2.3,2.3,0,0,1-.733-.543c-.394-.491-.272-1.045-.342-1.617A1.171,1.171,0,0,1,237.456,75.283Z" transform="translate(-26.393 -0.045)" fill="#62728e"/><path d="M247.189,108.9c-.14-5.8-1.229-17.452-3.622-22.741-.034-.074.214.5-5.7,1.147-3.252.357-18.186.308-21.443,0-5.388-.51-5.665-1.221-5.7-1.147-2.394,5.289-3.482,16.937-3.622,22.741a73.188,73.188,0,0,0,1.883,17.271.8.8,0,0,0,.8.783,43.059,43.059,0,0,0,13.721.4c.344-2.35.322-4.747.743-7.085a10.337,10.337,0,0,1,2.893-5.9,10.337,10.337,0,0,1,2.893,5.9c.421,2.338.4,4.735.743,7.085a43.06,43.06,0,0,0,13.721-.4.8.8,0,0,0,.8-.783A73.19,73.19,0,0,0,247.189,108.9Z" transform="translate(0 -10.593)" fill="#899dc9"/><path d="M260.374,113.994q5.7-.306,11.383-.963c2.561-.3,5.2-.676,7.4-2.024l.295,1.232a34.116,34.116,0,0,1-9.039,1.66c-3.207.255-6.422.389-9.638.485-4.644.139-10.145.481-14.513-1.4,2.064.139,4.1.869,6.189,1.032A60.344,60.344,0,0,0,260.374,113.994Z" transform="translate(-34.606 -32.549)" fill="#7b8fb2"/><path d="M359.575,108.036c.118,2.659.236,5.321.558,7.963a196.649,196.649,0,0,1-.205-21.771c0,.067-.7.026-.756.069-.222.158-.123.2-.186.441a7.586,7.586,0,0,0,.086,1.924q.083,1.883.167,3.767Q359.407,104.233,359.575,108.036Z" transform="translate(-134.155 -17.725)" fill="#7b8fb2"/><path d="M377.468,111.429a19.8,19.8,0,0,0,.751-5.682,86.082,86.082,0,0,0-.493-11.412l.8-.065q.312,3.871.355,7.758c.04,3.653-.121,7.412-1.589,10.757a6.617,6.617,0,0,1-1.4,2.164,2.989,2.989,0,0,1-2.027.933A10.7,10.7,0,0,0,375.7,114.6,8.8,8.8,0,0,0,377.468,111.429Z" transform="translate(-147.348 -17.762)" fill="#7b8fb2"/><path d="M237.252,75.563c.034-.074.31.637,5.7,1.147,3.257.308,18.191.357,21.443,0,5.912-.649,5.665-1.221,5.7-1.147s.07.157.1.237h0c-.047-.387-.533-.716-.894-.863a3.312,3.312,0,0,0-1.15-.175l-13.58-.452a81.192,81.192,0,0,0-15.648.488,3.2,3.2,0,0,0-1.337.434,1.031,1.031,0,0,0-.458.611C237.17,75.748,237.21,75.654,237.252,75.563Z" transform="translate(-26.54)" fill="#62728e"/><path d="M519.934,136.29a96.937,96.937,0,0,0-2.4-19.135,3.366,3.366,0,0,0-1.68.844c-.24.465.482,1.932.612,2.461.448,1.809.718,3.655.988,5.5l.819,5.589c.249,1.7.5,3.4.677,5.108a62.438,62.438,0,0,1,.149,11.321A65.8,65.8,0,0,0,519.934,136.29Z" transform="translate(-272.745 -37.98)" fill="#7b8fb2"/><path d="M211.983,86.643a4.531,4.531,0,0,1-1.257-.472c-2.394,5.289-3.483,16.937-3.623,22.741q-.028,1.161-.006,2.32a95.779,95.779,0,0,1,1.354-13.464,47.543,47.543,0,0,1,1.01-5.011A27.875,27.875,0,0,1,211.983,86.643Z" transform="translate(0 -10.602)" fill="#7b8fb2"/><path d="M333.378,315.178a14.565,14.565,0,0,1-4.564-1.743,22.976,22.976,0,0,1,4.416.575l-.666-.523a3.065,3.065,0,0,0,1.962.272q3.1-.274,6.175-.791-2.263,1.176-4.616,2.165c1.827,3.171,1.949,7.008,2.023,10.667-.406-1.6-.5-3.259-.753-4.889a9.993,9.993,0,0,0-1.7-4.592,1.316,1.316,0,0,0-.574-.486c-.529-.183-1.058.272-1.382.729a11.536,11.536,0,0,0-1.645,4.526q-.51,2.586-.8,5.208c.214-1.854.064-3.743.342-5.608A15.822,15.822,0,0,1,333.378,315.178Z" transform="translate(-107.542 -210.978)" fill="#7b8fb2"/><path d="M446.984,148.26a11,11,0,0,0,7.024,4.108v.878c-2.739-.544-5.592-1.346-7.529-3.359a11.951,11.951,0,0,1-1.573-2.141,20.178,20.178,0,0,1-1.524-3.037c-.163-.416-1.129-2.622-.794-2.987s1.922,2.9,2.118,3.256A19,19,0,0,0,446.984,148.26Z" transform="translate(-207.996 -59.661)" fill="#7b8fb2"/><path d="M209.726,149.112a16.677,16.677,0,0,0,8.945-10.232,4.158,4.158,0,0,0,1.217.183l-1.667,3.064c-.5.919-1,1.841-1.59,2.707a16.12,16.12,0,0,1-8.02,6.135c0-.356-.048-1.239.191-1.525C208.986,149.223,209.434,149.244,209.726,149.112Z" transform="translate(-1.34 -57.174)" fill="#7b8fb2"/><path d="M289.924,99.9a7.831,7.831,0,0,0,1.639.2,14.3,14.3,0,0,1-.415-5.852c-.011.08-.816-.037-.9-.026a.41.41,0,0,0-.378.215,3.92,3.92,0,0,0-.35,1.7A11.9,11.9,0,0,0,289.924,99.9Z" transform="translate(-72.806 -17.726)" fill="#a4c1ea"/><path d="M452.074,99.9l1.452-.325a.5.5,0,0,0,.218-.086.5.5,0,0,0,.135-.284,8.181,8.181,0,0,0,.243-2.182,4.134,4.134,0,0,0-.626-2.084.367.367,0,0,0-.151-.15.388.388,0,0,0-.2-.009c-.327.043-1.149-.014-1.258.371-.046.163.159.555.2.722a8.261,8.261,0,0,1,.232,2.452C452.309,98.49,452.24,99.859,452.074,99.9Z" transform="translate(-216.269 -18.201)" fill="#97b0db"/><path d="M375.709,113.324a1.49,1.49,0,0,0,1.46-.239,1.474,1.474,0,0,0,.492-1.394,1.1,1.1,0,0,0-.135-.358,1.093,1.093,0,0,0-.938-.481,1.792,1.792,0,0,0-1.019.373,4.217,4.217,0,0,0-.641.6.449.449,0,0,0-.109.514A1.509,1.509,0,0,0,375.709,113.324Z" transform="translate(-148.156 -32.412)" fill="#7b8fb2"/><g transform="translate(226.521 77.989)"><path d="M376.561,108.329a1.346,1.346,0,1,1-1.346-1.346A1.346,1.346,0,0,1,376.561,108.329Z" transform="translate(-373.87 -106.983)" fill="#c6956a"/><path d="M377.029,110.007a.685.685,0,0,0,.159.559.361.361,0,0,0,.528-.01.538.538,0,0,0,.072-.2,1.14,1.14,0,0,1,.385-.8.757.757,0,0,0,.234-.157.284.284,0,0,0-.081-.375C377.736,108.573,377.079,109.5,377.029,110.007Z" transform="translate(-376.657 -108.678)" fill="#fff" opacity="0.45"/></g><g transform="translate(207.882 93.632)"><path d="M214.082,241.93q.542-.19,1.066-.425a.147.147,0,0,0,.052-.2.149.149,0,0,0-.2-.052q-.49.219-1,.4a.149.149,0,0,0-.1.179.147.147,0,0,0,.179.1Z" transform="translate(-213.897 -241.236)" fill="#a4c1ea"/></g><g transform="translate(210.713 92.307)"><path d="M238.414,230.651a8.26,8.26,0,0,1,.884-.52.147.147,0,0,0,.052-.2.149.149,0,0,0-.2-.052,8.289,8.289,0,0,0-.884.52.146.146,0,0,0,.147.252Z" transform="translate(-238.195 -229.86)" fill="#a4c1ea"/></g><g transform="translate(212.524 91.08)"><path d="M253.984,220.136a4.064,4.064,0,0,1,.338-.3h0l.021-.016.046-.034.089-.063q.1-.066.194-.125a.146.146,0,0,0-.147-.252,4.055,4.055,0,0,0-.748.581.146.146,0,0,0,.206.206Z" transform="translate(-253.736 -219.329)" fill="#a4c1ea"/></g><g transform="translate(214.304 89.381)"><path d="M269.264,205.714,269.9,205a.146.146,0,1,0-.206-.206l-.636.718a.146.146,0,0,0,.206.206Z" transform="translate(-269.016 -204.748)" fill="#a4c1ea"/></g><g transform="translate(215.741 87.985)"><path d="M281.621,193.431a2.046,2.046,0,0,1,.174-.267l-.023.029a2.059,2.059,0,0,1,.153-.176.146.146,0,1,0-.206-.206,2.165,2.165,0,0,0-.351.473.146.146,0,0,0,.251.147Z" transform="translate(-281.351 -192.769)" fill="#a4c1ea"/></g><g transform="translate(216.777 86.205)"><path d="M290.512,178.6l.568-.9a.147.147,0,0,0-.052-.2.149.149,0,0,0-.2.052l-.568.9a.147.147,0,0,0,.052.2.149.149,0,0,0,.2-.052Z" transform="translate(-290.241 -177.489)" fill="#a4c1ea"/></g><g transform="translate(217.945 84.636)"><path d="M300.552,164.68c.013-.04.028-.079.044-.117l-.015.035a1.713,1.713,0,0,1,.2-.355.147.147,0,0,0,.015-.112.146.146,0,0,0-.179-.1.17.17,0,0,0-.087.067,1.83,1.83,0,0,0-.262.507.147.147,0,0,0,.1.179.149.149,0,0,0,.179-.1Z" transform="translate(-300.265 -164.023)" fill="#a4c1ea"/></g><g transform="translate(218.813 82.957)"><path d="M308,150.274l.194-.475a.146.146,0,0,0-.015-.112.146.146,0,0,0-.2-.052.171.171,0,0,0-.067.087l-.194.475a.146.146,0,0,0,.015.112.146.146,0,0,0,.2.052.172.172,0,0,0,.067-.087Z" transform="translate(-307.712 -149.615)" fill="#a4c1ea"/></g><g transform="translate(233.544 82.025)"><path d="M434.141,141.8a7.354,7.354,0,0,0,.368,1.18.15.15,0,0,0,.179.1.147.147,0,0,0,.1-.179,7.344,7.344,0,0,1-.368-1.179.146.146,0,0,0-.281.077Z" transform="translate(-434.137 -141.617)" fill="#a4c1ea"/></g><g transform="translate(234.366 84.437)"><path d="M441.209,162.536l.7,1.446a.147.147,0,0,0,.2.052.149.149,0,0,0,.052-.2l-.7-1.446a.147.147,0,0,0-.2-.052.149.149,0,0,0-.052.2Z" transform="translate(-441.191 -162.318)" fill="#a4c1ea"/></g><g transform="translate(235.642 87.111)"><path d="M452.161,185.484a3.913,3.913,0,0,0,.582.892.146.146,0,0,0,.206,0,.149.149,0,0,0,0-.206,3.281,3.281,0,0,1-.291-.389,3.757,3.757,0,0,1-.246-.444.146.146,0,0,0-.2-.052.15.15,0,0,0-.052.2Z" transform="translate(-452.143 -185.265)" fill="#a4c1ea"/></g><g transform="translate(236.858 89.128)"><path d="M462.626,202.827l.555.589a.147.147,0,0,0,.206,0,.149.149,0,0,0,0-.206l-.555-.589a.147.147,0,0,0-.206,0,.149.149,0,0,0,0,.206Z" transform="translate(-462.584 -202.578)" fill="#a4c1ea"/></g><g transform="translate(238.548 91.193)"><path d="M477.154,220.57l.662.424a.147.147,0,0,0,.2-.052.149.149,0,0,0-.052-.2l-.662-.424a.147.147,0,0,0-.2.052.149.149,0,0,0,.052.2Z" transform="translate(-477.083 -220.298)" fill="#a4c1ea"/></g><g transform="translate(240.572 92.549)"><path d="M494.566,232.228l.79.312a.146.146,0,0,0,.179-.1.15.15,0,0,0-.1-.179l-.79-.312a.146.146,0,0,0-.179.1.15.15,0,0,0,.1.179Z" transform="translate(-494.46 -231.94)" fill="#a4c1ea"/></g><g transform="translate(243.015 93.462)"><path d="M515.531,240.059l.877.331a.146.146,0,0,0,.179-.1.149.149,0,0,0-.1-.179l-.876-.331a.146.146,0,0,0-.179.1.15.15,0,0,0,.1.179Z" transform="translate(-515.425 -239.772)" fill="#a4c1ea"/></g><g transform="translate(244.991 94.043)"><path d="M532.488,245.043l.668.2a.147.147,0,0,0,.179-.1.149.149,0,0,0-.1-.179l-.668-.2a.147.147,0,0,0-.179.1.149.149,0,0,0,.1.179Z" transform="translate(-532.383 -244.757)" fill="#a4c1ea"/></g><path d="M211.4,360.171c-.047,4.15-.447,8.3-.366,12.446a107.991,107.991,0,0,0,1.142,12.068,3.025,3.025,0,0,0,.835,2.045,3.434,3.434,0,0,0,1.568.6,25.278,25.278,0,0,0,12.028-.626,90.435,90.435,0,0,0,.2-14.347c-.294-4.473-.92-8.947-.629-13.419.175-2.693.682-5.365.744-8.062.154-6.675-2.414-13.209-2.359-19.885.025-3.07.492-6.5-1.644-8.878a11.936,11.936,0,0,0-3.648-2.424l-6.227-3.12c-2.926-1.466-5.084-5.318-5.164-2.288-.089,3.343.27,11.1.565,14.431.6,6.758,1.7,13.469,2.378,20.221A101.431,101.431,0,0,1,211.4,360.171Z" transform="translate(-0.686 -211.136)" fill="#899dc9"/><path d="M482.6,276.662c-.29,2.873-.606,5.831-1.979,8.371a2.417,2.417,0,0,1,.9,1.941,15.537,15.537,0,0,1-5.171,13.035,9.515,9.515,0,0,0,3.93-1.94c-.9,3.536.477,7.261.169,10.9-.15,1.768-.7,3.484-.847,5.252a23.528,23.528,0,0,0,0,3.013l.6,13.73c2.685-9.44,1.736-19.467,2-29.277.231-8.737,1.725-17.332,2.04-26.067.3-8.387,1.715-15.668.434-24.361.18.639-.5,2.113-.474,2.9.026.684.266,1.284.353,1.949.272,2.083-.334,4.5-.545,6.586Q483.3,269.678,482.6,276.662Z" transform="translate(-237.889 -156.457)" fill="#7b8fb2"/><path d="M334.139,337.393a32.866,32.866,0,0,0-3.016,19.057c.362,2.512,1.017,4.985,1.18,7.517a10.92,10.92,0,0,1-1.742,7.248,1.207,1.207,0,0,1,1.484.439,3.118,3.118,0,0,1,.47,1.6,18.136,18.136,0,0,1-2.542,10.895c1.528.846,1.95,2.814,2.171,4.547a43.551,43.551,0,0,1,.165,12.2,10.123,10.123,0,0,0-.2,2c.091,2.032,1.694,2.256,2.4,4.162a73.85,73.85,0,0,0,.7-8.625,38.662,38.662,0,0,0-.475-4.988,63.89,63.89,0,0,1-.134-14.776,55.572,55.572,0,0,0,.609-7.436,53.053,53.053,0,0,0-1.32-8.445,71.8,71.8,0,0,1-.933-20.486c.071-.723.153-1.446.235-2.168Z" transform="translate(-108.565 -232.557)" fill="#7b8fb2"/><g transform="translate(212.003 174.394)"><path d="M249.308,934.609a1.907,1.907,0,0,0,.863.491.146.146,0,1,0,.077-.281,1.718,1.718,0,0,1-.214-.07l-.025-.01c.014.006.009,0,0,0l-.054-.025c-.034-.016-.067-.034-.1-.052a1.742,1.742,0,0,1-.183-.12s-.028-.022-.007-.005l-.021-.017-.041-.034q-.045-.039-.087-.081a.146.146,0,0,0-.206.206Z" transform="translate(-249.266 -934.361)" fill="#a4c1ea"/></g><g transform="translate(213.667 175.206)"><path d="M263.653,941.614a4.068,4.068,0,0,0,1.116.166.146.146,0,0,0,0-.291,3.77,3.77,0,0,1-1.039-.156.146.146,0,0,0-.077.281Z" transform="translate(-263.546 -941.328)" fill="#a4c1ea"/></g><g transform="translate(215.983 175.637)"><path d="M283.567,945.324h.646a.146.146,0,1,0,0-.291h-.646a.146.146,0,1,0,0,.291Z" transform="translate(-283.421 -945.033)" fill="#a4c1ea"/></g><g transform="translate(217.977 175.745)"><path d="M300.725,946.362l.806-.123a.146.146,0,0,0,.1-.179.15.15,0,0,0-.179-.1l-.806.123a.146.146,0,0,0-.1.179.15.15,0,0,0,.179.1Z" transform="translate(-300.54 -945.956)" fill="#a4c1ea"/></g><g transform="translate(220.344 175.577)"><path d="M321.038,944.959l.97-.157a.147.147,0,0,0,.1-.179.149.149,0,0,0-.179-.1l-.97.157a.147.147,0,0,0-.1.179.149.149,0,0,0,.179.1Z" transform="translate(-320.855 -944.518)" fill="#a4c1ea"/></g><g transform="translate(222.772 175.198)"><path d="M341.912,941.813a2.912,2.912,0,0,1,.893-.261.149.149,0,0,0,.146-.146c0-.072-.065-.155-.146-.146a3.248,3.248,0,0,0-1.04.3.147.147,0,0,0-.052.2.149.149,0,0,0,.2.052Z" transform="translate(-341.694 -941.261)" fill="#a4c1ea"/></g><g transform="translate(224.819 174.887)"><path d="M359.474,939.079l.377-.216a.146.146,0,0,0-.147-.252l-.377.216a.146.146,0,0,0,.147.252Z" transform="translate(-359.255 -938.592)" fill="#a4c1ea"/></g><g transform="translate(228.643 174.56)"><path d="M392.181,936.071l.966.183a.146.146,0,1,0,.078-.281l-.966-.183a.146.146,0,0,0-.077.281Z" transform="translate(-392.075 -935.787)" fill="#a4c1ea"/></g><g transform="translate(231.065 175.089)"><path d="M413.01,940.632a3.772,3.772,0,0,1,.933.032.149.149,0,0,0,.179-.1.148.148,0,0,0-.1-.179,4.044,4.044,0,0,0-1.01-.043.146.146,0,1,0,0,.291Z" transform="translate(-412.864 -940.326)" fill="#a4c1ea"/></g><g transform="translate(233.923 175.307)"><path d="M437.5,942.483a3.965,3.965,0,0,0,1.006.066.146.146,0,0,0,0-.291,3.675,3.675,0,0,1-.929-.056.146.146,0,0,0-.077.281Z" transform="translate(-437.391 -942.199)" fill="#a4c1ea"/></g><g transform="translate(236.346 175.433)"><path d="M458.291,943.606a1.642,1.642,0,0,0,.673-.038.146.146,0,1,0-.077-.281c-.047.013-.093.024-.141.032l-.033.005c-.031.005.028,0-.011,0l-.072.006q-.072,0-.145,0l-.067,0-.033,0-.022,0h.006a.16.16,0,0,0-.112.015.146.146,0,0,0,.035.266Z" transform="translate(-458.186 -943.282)" fill="#a4c1ea"/></g><g transform="translate(238.875 175.357)"><path d="M480.036,942.981l.592-.061a.157.157,0,0,0,.1-.043.146.146,0,0,0-.1-.249l-.592.061a.158.158,0,0,0-.1.043.146.146,0,0,0,.1.249Z" transform="translate(-479.89 -942.628)" fill="#a4c1ea"/></g><g transform="translate(241.024 174.744)"><path d="M498.556,937.979l.769-.344a.146.146,0,0,0,.052-.2.15.15,0,0,0-.2-.052l-.769.344a.146.146,0,0,0-.052.2.15.15,0,0,0,.2.052Z" transform="translate(-498.337 -937.367)" fill="#a4c1ea"/></g><path d="M229.138,570.061a2.157,2.157,0,0,0-.687-.7.739.739,0,0,0-.9.115,1.015,1.015,0,0,0-.161.359c-1,3.429.091,7.221-.991,10.624a166.678,166.678,0,0,0-1.508-20.579A24.268,24.268,0,0,0,229.138,570.061Z" transform="translate(-15.726 -429.123)" fill="#7b8fb2"/></g></svg>