<svg xmlns="http://www.w3.org/2000/svg" width="71.855" height="71.152" viewBox="0 0 71.855 71.152"><g transform="translate(0.014 -0.003)"><path d="M71.749,11.876c-.3-.363-.63-.761-1.21-.491-.313-.478-.705-.9-.326-1.566.514-.893-.363-1.958.3-2.871.036-.049-.129-.349-.254-.4-.61-.231-.87-.9-1.375-1.154A6.657,6.657,0,0,1,66.26,2.946c-.171-.254-.705-.663-.92-.3-.656,1.088-1.437.755-2.3.425a.739.739,0,0,0-.824.033c-.547.491-1.193.94-1.872.379-.541-.452-1.272-.587-1.675-1.325A4.4,4.4,0,0,0,56.826.576c-.616-.333-1,.145-1.48.221A2.356,2.356,0,0,1,53.421.655c-.943-.643-2.179-.264-3.234-.63a.535.535,0,0,0-.616.343c-.583,1.371-1.754.913-2.746.847-.382-.026-.725-.33-1.147-.016-.979.722-2.317.554-3.3,1.3-.231.175-.429.089-.682-.01-1.586-.577-1.833-.5-2.558.992-.287.6-.6,1.1-1.279.837-1.272-.491-2.647-.208-3.89-.6-1.167-.363-2.456-.155-3.422-1.543a2.975,2.975,0,0,0-4.556-.814c-.715.5-.705,1.592-1.526,2.021-.452.234-.488.557-.455,1.025a9.123,9.123,0,0,1-1.483,6.474c-.864,1.16-.729,1.259.7,1.418-.211.059-.412.168-.392.405.026.264.191.185.422.188.972.01.412.8.494,1.216.1.508-.316.831-.775.491-.534-.4-.8-.079-.976.27-.3.593.541.31.61.738-1.005.363-1.516.92-.851,2.067a1.765,1.765,0,0,1-.336,2.179c-.267.293-.745.705-.478,1.055.554.729.079,1.266-.138,1.876.125.082.343.059.336.287a.114.114,0,0,1-.079.076c-.231,0-.2-.211-.28-.343-.626.02-.521.389-.359.768.524,1.213,1.418.672,2.275.32a3.27,3.27,0,0,1-1.447,2.344c-.659-.508-1.309-1.022-1.971-1.523-1.1-.834-1.289-.758-2.169.376-.551.705-.534,1.734-1.358,2.265a2.038,2.038,0,0,0-.877,2.265,9.957,9.957,0,0,1-.03,2.851,2.913,2.913,0,0,1-1.464,2.4A10.4,10.4,0,0,0,9.9,37.718c-.405.475-.755.788-1.355.551s-.508-.735-.389-1.256c.168-.712-.168-1.012-.808-.626-.735.438-1.872.188-2.235,1.355-.069.234-.709.725-1.15.221a1.137,1.137,0,0,0-1.81-.1c-.554.551-1.543.857-1.3,2.027.115.551.28,1.259-.359,1.731-.218.162-.758.178-.376.666A.727.727,0,0,0,1.1,42.5a6.18,6.18,0,0,1,2.68-.363c2.077.069,4.16-.046,6.23.089,2.469.162,5.149-.982,7.331,1.088-.073.191-.234.4-.2.577.1.541-.6,1.952,1.019.989a.706.706,0,0,1,.972.3c.208.551-.28.5-.593.682-.6.349-1.108.943-.577,1.625a16.828,16.828,0,0,1,1.418,2.186,1.911,1.911,0,0,0,2.416.824,6.872,6.872,0,0,1,3.257-.274c.916.221,1.889.254,1.958-1.216.026-.521.438-1.009.359-1.638-.079-.58.28-.893.916-.893a5.951,5.951,0,0,0,2.459-.251c.353-.145.821-.092.613.531-.274.821.247.8.791.791,1.038-.013,2.08-.02,3.119-.016.468,0,1.131.053.976.643A4.192,4.192,0,0,0,37,52.048c.3.389-.129.778-.2,1.177-.132.712.059,1.134.867,1.058-1.652,1.464-1.549,1.4-.3,3.353A3.179,3.179,0,0,1,37.7,61.13c-.3.488.132.755.158,1.131.016.237.32.109.521.079,2-.316,4.005-.7,6.023-.864.468-.036,1.5.211,1.408,1.137-.1,1.075.409.877,1.025.633a6.565,6.565,0,0,1,1.16-.445c.656-.125,1.464-.422,1.358.814-.036.422.33.682.676.821a16.171,16.171,0,0,0,4.694,1.055.879.879,0,0,0,1.022-.709c.2-.946.4-.458.913-.1.8.557.887,1.942,1.892,1.975,2.275.076,3.29,1.744,4.276,3.273.656,1.012,1.154,1.263,2.156.709.287-.158.738-.7.824.191a.31.31,0,0,0,.435.3c.224-.082.254-.313.254-.524,0-1.21.013-2.413,0-3.623,0-.267.132-.643-.27-.738-.326-.079-.791-.059-.887.264a.812.812,0,0,1-1.388.353c-.963-.854-2.2-1.47-2.736-2.753a1.068,1.068,0,0,1,0-.959c.989-1.839.58-3.91.949-5.848a1.365,1.365,0,0,0-.185-.831c-.567-.989-.821-1.849.435-2.568a1.646,1.646,0,0,0,.682-1.131c.082-.808.587-.87,1.193-.946,1.566-.194,3.132-.455,4.7-.616,1.075-.115,1.137-.616.672-1.408a4.71,4.71,0,0,1-.709-1.164A5.459,5.459,0,0,0,66.491,45.2a2.388,2.388,0,0,1-1.058-2.9,3.845,3.845,0,0,0-1.22-3.847,2.528,2.528,0,0,0,.458-2.542,5.854,5.854,0,0,1-.373-3.132,2.983,2.983,0,0,0-.689-2.143c-.554-.705-1.2-1.543.132-2.209a.634.634,0,0,0,.27-.518c-.3-1.2.415-1.856,1.256-2.469a.9.9,0,0,0,.363-.745,16.486,16.486,0,0,1,.237-3.214c.547-2.179.705-4.549,2.713-6.125a32.82,32.82,0,0,0,2.855-2.693c.191-.188.6-.429.3-.791ZM22.984,24.634c.284.722.442,1.124.6,1.53-.158.02-.363.112-.462.046C22.6,25.863,22.842,25.418,22.984,24.634ZM25.4,12.292c-.438.785.053,1.078,1.118,1.21a1.408,1.408,0,0,1-1.856-1.21H25.4Z" transform="translate(0 0)" fill="#19363b"/><path d="M76.686,38.49a1.408,1.408,0,0,1-1.856-1.21h.738C75.13,38.065,75.621,38.358,76.686,38.49Z" transform="translate(-50.172 -24.988)" fill="#19363b"/><path d="M69.983,76.25c-.158.02-.363.112-.462.046-.521-.346-.28-.791-.138-1.576C69.666,75.442,69.824,75.844,69.983,76.25Z" transform="translate(-46.399 -50.086)" fill="#19363b"/><path d="M63.409,69.407a.114.114,0,0,1-.079.076c-.231,0-.2-.211-.28-.343l.02-.02c.125.082.343.059.336.287Z" transform="translate(-42.275 -46.332)" fill="#19363b"/></g></svg>