<svg xmlns="http://www.w3.org/2000/svg" width="76.837" height="72.244" viewBox="0 0 76.837 72.244"><g transform="translate(0.004 0.005)"><path d="M42.925,2.74c.347.1.9,1.26.959-.19.007-.12.431-.254.441.02.017.458.942.063.591.662a2.926,2.926,0,0,0-.608,1.3c-.007.084-.114.231-.16.227-1.253-.12-1.086.641-.946,1.443a.864.864,0,0,1-.281.611c-.765.819-.768,1.153.063,1.935A15.831,15.831,0,0,0,47.6,11.51a5.568,5.568,0,0,1,2.112,1.41c1.029,1.183,2.138,1.069,2.907-.291a7.957,7.957,0,0,0,1.263-5.8,4.408,4.408,0,0,1,.474-2.92c.271-.528-.438-.424-.234-.738A16.08,16.08,0,0,0,55.263.318c.14-.347.571-.525.835.05A23.943,23.943,0,0,0,56.86,2.68a10.406,10.406,0,0,1,.645,1.139c.347.832.1,1.711.391,2.529.231.662.394,1.26,1.24.585.244-.194.548-.261.658.19a.26.26,0,0,0,.12.157c1.544.8,1.169,2.366,1.417,3.665a1.525,1.525,0,0,0,.394.768,2.98,2.98,0,0,1,.832,2.66,2.692,2.692,0,0,0,1.36,2.389c1.119.244,1.781,1.2,2.793,1.59.177.067.234.334.551.277.154-.03.531.254.521.374-.107,1.4,1.42,2.108,1.42,3.495,0,.678.324.755.815.414.15-.1.227-.057.321.053.254.294.418.839.956.267.06-.063.368.444.334.631-.274,1.564.548,2.305,1.838,2.97.585.3.912,1.146,1.41,1.711a4.859,4.859,0,0,1,1.146,2.125,11.575,11.575,0,0,1,.107,2.339c0,.18-.2.347-.05.558,1.163,1.624.722,3.368.384,5.109-.21,1.076-.317,2.2-.595,3.228-.4,1.483-.618,3.167-2.185,4.1a1.73,1.73,0,0,0-.611.9,26.158,26.158,0,0,0-1.42,3.532,5.511,5.511,0,0,1-.621,1.323,8.338,8.338,0,0,0-.932,4.467,1.375,1.375,0,0,1-1.5,1.32,3.024,3.024,0,0,0-2.793.7,12.148,12.148,0,0,1-3.121,1.808c-.354.137-1.31-.511-1.306-.922,0-.027.033-.057.057-.08.1-.124.03-.351-.023-.321-1.032.585-.494-1.1-1.226-.835-.117.043-.862.043-.3.575.11.1-.03.224-.087.231-.815.09-1.133.892-1.774,1.22-.608.307-1.129-.084-1.534-.421a2.8,2.8,0,0,0-2.082-.692c-.936.321-1.4-.241-1.988-.541A2.923,2.923,0,0,1,50.7,55.647a5.713,5.713,0,0,0-1.554-3.268c-.221-.271-.4-.164-.6-.11a2.362,2.362,0,0,1-1.139.114c.227-.578.778-1.036.675-1.7a2.385,2.385,0,0,0-.855-1.584c-.3.952-.381,1.951-1.417,2.329-.271.1-.685.327-.809.027a.562.562,0,0,1,.561-.755c.575.013.575-.324.535-.712a3.417,3.417,0,0,1,.588-2.158,2.672,2.672,0,0,0,.177-2.188,7.868,7.868,0,0,1-2.279,2.74,2.194,2.194,0,0,0-1.33,2.142c.037.3-.177.124-.311.14a.7.7,0,0,1-.825-.748c0-1.149-.9-1.881-1.2-2.877a.5.5,0,0,0-.431-.351c-.618-.144-1.126-.354-.591-1.119.043-.06.007-.177.007-.264-.742.07-.8-.865-1.667-.972a5.939,5.939,0,0,1-3.157-.909c-1.029-.809-2.315-.474-3.485-.3A20.729,20.729,0,0,0,28.7,43.9a9.78,9.78,0,0,1-3.682.762,3.62,3.62,0,0,0-2.072.642,5.251,5.251,0,0,1-1.687.822c-.682.127-.845.785-1.1,1.32-.358.742-.819.936-1.751.969-1.774.06-3.542-.488-5.306-.02-.19.05-.468.033-.565.157-.778.986-2.145,1.066-2.97,1.971a1.9,1.9,0,0,1-1.6.578c-1.42-.077-2.83-.17-3.786-1.467a1.055,1.055,0,0,0-.515-.277,1.309,1.309,0,0,1-.645-1.607c.037-.063.043-.157.2-.127,1.066.184.879-.581,1.083-1.253.672-2.205-.535-3.983-1.149-5.9a3.792,3.792,0,0,1-.137-.972,2.78,2.78,0,0,0-.1-1.083C1.905,36.542,1.581,34.387.469,32.56c-.067-.11-.434-.341-.03-.4.765-.11.194-.625.334-.922.374-.157.284.578.621.351.261-.177.08-.491.077-.748a4.213,4.213,0,0,0-.882-1.985C0,27.805-.357,26.793.539,25.714a1.487,1.487,0,0,0,.1-1.26A2.824,2.824,0,0,1,1.294,22.1c.187.491-.16.962.281,1.323,1.029-1.61,2.763-2.322,4.19-3.415.177-.137.454-.324.618-.274,1.313.411,2.476-.281,3.471-.789a15.379,15.379,0,0,1,3.184-.755,5.733,5.733,0,0,0,2.88-2.3,5.248,5.248,0,0,0,.989-3.057c.077-.768,1.029-.939,1.357-1.721a7.936,7.936,0,0,0,1.059,1.995c.715-.772.017-1.62.214-2.529a1.446,1.446,0,0,0,1.176.331c.378-.01.655-.591.6-.645-.765-.7.063-.915.368-1.266a2.471,2.471,0,0,1,1.062-.692c-.508-.7.221-.765.525-1.073.114-.114.117-.3.3-.087.368.428.585.08.722-.194.307-.621,1.29-.187,1.52-.989a2.7,2.7,0,0,1,1.173.478,7.159,7.159,0,0,1,.631.641c.478.488.742,1.34,1.744.845.388-.19.762.5,1.276.241.12-.06.214.381.424.144a.519.519,0,0,0,.033-.641c-.157-.264-.672-.494-.368-.812.444-.461.471-1.213,1.1-1.507.194-.09.351-.174.388-.384a2.2,2.2,0,0,1,2.579-2.031,6.641,6.641,0,0,0,1.093-.04c.662-.063,1.213-.261.909-1.1-.124-.344.074-.4.3-.484.177-.063.327-.147.5.077.7.915,1.914.6,2.82,1.083.21.114.621.01.9.277.428.411.682-.231,1.059-.221.167,0,.458-.578.461.114-.087.07-.12.147-.01.221.01.007.077-.07.114-.11Z" transform="translate(0 0)" fill="#19363b"/><path d="M180.07,198.053a4.182,4.182,0,0,0-.608-1.894c-.324-.682-.949-1.574-.354-2.088.458-.394,1.437.09,2.045.551a1.656,1.656,0,0,0,1.781.217c.742-.327,1.577-.294,2.3-.685.311-.167.655.18.762.742.154.822-.321,1.647-.007,2.472-.782.1-.451.829-.692,1.236a1.074,1.074,0,0,0-.06,1.2c.147.227.073.347-.21.234-.023.09-.053.1-.1.013.04,0,.1.023.114.007.14-.147.488-.394.17-.491a.966.966,0,0,0-1.079.19c-.154.2-.167.561-.351.665-.428.247-.234,1.3-1.253.842-.474-.214-.959-.234-1.29-.758a4.842,4.842,0,0,1-1.173-2.442Z" transform="translate(-119.103 -129.135)" fill="#19363b"/><path d="M128.115,7.99c-.04.04-.1.117-.114.11-.11-.074-.077-.15.01-.221C128.044,7.917,128.081,7.954,128.115,7.99Z" transform="translate(-85.19 -5.25)" fill="#19363b"/></g></svg>