<svg xmlns="http://www.w3.org/2000/svg" width="71.303" height="84.043" viewBox="0 0 71.303 84.043"><path d="M16.256,139.57c-.271.287-.516.548-.763.81l-.123-.106a4.535,4.535,0,0,1,.4-.833c.3-.4.705-.222,1.092-.132.338.079.289.053.43-.326.088-.238.354-.412.539-.615l.564.548c.264-.326.555-.687.726-.9.449.025.747.042,1.048.06l-.139-.229a2.065,2.065,0,0,1,2.348-1.429c.046-.546.294-1.159.088-1.5-.393-.65.509-.68.365-1.126a9.042,9.042,0,0,0,1.455.185,1.109,1.109,0,0,0,.664-.437,2.7,2.7,0,0,1,1.483-1.1c.495-.123.879-.692,1.311-1.062.761-.65,1.529-1.3,2.28-1.954a2.923,2.923,0,0,0,.409-.52c.127-.178.2-.465.368-.53.724-.287,1.471-.509,2.234-.763.136.763.349.856.877.659a4.941,4.941,0,0,1,.976-.118c.937-.143,1.873-.287,2.806-.453a9.643,9.643,0,0,1,2-.377,2.588,2.588,0,0,0,1.473-.4,2.035,2.035,0,0,1,.738-.09c-.016.208-.044.416-.042.622,0,.19.032.379.058.634.476-.2.8-.481,1.263.012.291.308.844-.15,1.2-.4a5.5,5.5,0,0,0,.8-.863c.032.046.111.162.2.284.021-.03.093-.086.083-.125a2.072,2.072,0,0,0-.2-.689.991.991,0,0,1-.093-1.258c.315-.433.624-.867.955-1.286.557-.7,1.168-1.365,1.684-2.1a2.3,2.3,0,0,0,.266-2.179c-.354-1.006-.106-1.413.921-1.769.4-.141.749-.446,1.147-.618.146-.062.368.046.553.079a1.813,1.813,0,0,0-.231.409,1.2,1.2,0,0,1-.735.914,7.661,7.661,0,0,0-.96.585h.777a3.183,3.183,0,0,1-.081,1.136c-.2.43-.111.717.259.819.409.113,1.041.358,1.212-.22.19-.645.641-.786,1.129-.971a9.443,9.443,0,0,0,3.62-2.13,4.146,4.146,0,0,0,1.02-1.684,2.683,2.683,0,0,1,1.489-1.709,2.176,2.176,0,0,0,1.3-2.021,3.765,3.765,0,0,1,.629-1.934,6.238,6.238,0,0,0,.914-2.493c.12-.6.37-1.173.476-1.774a4.733,4.733,0,0,0,.03-1.446c-.123-.9-.377-1.018-1.235-.645-.1-.2-.213-.407-.335-.643a1.607,1.607,0,0,0,1.221-2.042c-.157-.5-.416-.976-.7-1.635a3.951,3.951,0,0,0,1.191-.761,3.75,3.75,0,0,0,.513-1.5,5,5,0,0,0-.062-1.177c.278.134.442.284.537.247.925-.338.807.382.916.874a.286.286,0,0,0,.014.067l.472.932c.185-.268.368-.537.6-.87l.849.537a1.45,1.45,0,0,0,.247-1.959l-1.642.745c-.065-.037-.127-.076-.192-.113.148-.7.3-1.4.472-2.23a9.481,9.481,0,0,0,1.311.768,3.146,3.146,0,0,0,1,.021,4.871,4.871,0,0,0-.067.958c.1,1,.213,2.008.391,3,.039.217.379.37.555.574a6.941,6.941,0,0,1,.985,1.226,14.171,14.171,0,0,1,.932,2.28,3.925,3.925,0,0,1,.345,1.987c-.264.955-.13,2.019-.974,2.877a2.31,2.31,0,0,0-.71,2.542,5.135,5.135,0,0,1,.12,1.355c-.541-.916-1.242-.659-2.019-.227-.116.446-.305,1.057-.419,1.679a1.323,1.323,0,0,0,.134.8c.779,1.483.5,3.065.474,4.623a.6.6,0,0,1-.213.421c-.958.719-.793,1.873-1.108,2.836-.5,1.536.507,2.6,1.254,3.691a8.331,8.331,0,0,0-1.261.763,1.5,1.5,0,0,0-.539,1.552.957.957,0,0,1-.712,1.219,5.5,5.5,0,0,0-1.122.893,4.16,4.16,0,0,1-.574.315,2.85,2.85,0,0,1-.093-.532c0-.433.18-.921.032-1.284-.252-.618.25-.819.46-1.173a5.332,5.332,0,0,1,.613-.692c-.282-.157-.652-.43-.7-.379-.231.227-.888.039-.719.685.018.074-.169.2-.25.3-.342.458-.442.9.153,1.3l-.379.557c-.444-.844-.87-1.008-1.7-.678a1.357,1.357,0,0,0-.692,1.462c.069.231.25.527.171.687a11.9,11.9,0,0,1-.939,1.448c-.06.086-.187.12-.28.178-.6-.574-.583-2.056.009-2.371-.557-.634-1.2-.5-1.51.291-.044.116-.173.2-.25.305-.412.592-.816,1.189-1.247,1.813a14.2,14.2,0,0,0-2.424-.169A16.21,16.21,0,0,0,49.91,133c-.035-.053-.069-.106-.106-.16.442-.259.884-.516,1.52-.886l-1.984-.319c.023.127.069.4.118.659-.511-.183-.613-.5-.532-1.712-.456-.12-.759-.023-.81.511a1.11,1.11,0,0,1-.13.384c-.6,1.173-.4,1.591.886,1.9.187.044.456.259.467.412a3.069,3.069,0,0,1-.173.948.288.288,0,0,1-.234.012c-.594-.4-1.034.058-1.543.236-.594.206-.962.5-.867,1.187.014.095-.141.215-.217.324-.3.421-.622.833-.9,1.27-.16.25-.22.56-.384.807a5.7,5.7,0,0,1-.6.664c-.46-.155-.941-.3-1.409-.483-.157-.06-.379-.194-.4-.322-.12-.8-.782-1.1-1.332-1.508-.058-.044-.127-.148-.113-.2.109-.444.238-.886.382-1.409l-.523-.581a2.21,2.21,0,0,0,.638-.319,8.555,8.555,0,0,0,1-1.258.619.619,0,0,0-.157-.587.666.666,0,0,0-.634-.021c-.624.606-1.182.28-1.76-.044a2.487,2.487,0,0,0-2.833.289,15.062,15.062,0,0,1-1.224,1.015c-.164.118-.525.231-.615.148-.8-.736-1.3-.019-1.89.331-.095.056-.259-.023-.379.007a.624.624,0,0,0-.361.194,5.142,5.142,0,0,1-.594,1.045c-.354.34-.227.59-.051.9.22.389.488.2.77.09a1.664,1.664,0,0,1,.594-.13c1.119,0,1.4-.354,1.117-1.291a5.508,5.508,0,0,0,.844-.488,1.749,1.749,0,0,1,2.1.072,5.625,5.625,0,0,0,1.487.562c.1.56.241,1.3.386,2.089a3.979,3.979,0,0,0-2.26,3.141,5.73,5.73,0,0,1-.664-.736,1.74,1.74,0,0,0-2.627-.345c-.116.146-.361.18-.527.294-.143.095-.372.227-.372.345-.009.775-.578,1.15-1.008,1.665-.264.312-.222.881-.321,1.358l-1.545-.143c.1-.247.176-.453.271-.694-.319-.035-.624-.069-.877-.095-.111-.234-.222-.472-.31-.661v-.74c.148-.157.278-.3.409-.437a1.364,1.364,0,0,1-.312-.282c-.141-.241-.245-.5-.407-.844l-1.159.544c-.023-.042-.044-.083-.067-.125.136-.095.268-.2.407-.287.692-.444,1.406-.858,2.063-1.348a1.43,1.43,0,0,0,.358-.782,2.333,2.333,0,0,1,1.265-1.564c.072-.442.116-.722.164-1.02h-.335c-.113.3-.178.717-.3.738a6.5,6.5,0,0,1-1.348-.051c-.014.1-.039.312-.067.518-.053.039-.1.079-.157.12-.173-.234-.43-.446-.493-.705-.046-.194.155-.451.282-.775-.13-.012-.365-.111-.5-.032-.377.213-.842,1.7-.615,1.978a3.376,3.376,0,0,0,.705.52l-.1.173c-.328-.1-.655-.206-.955-.3l-.213.592-.192-.056c.039-.1.076-.2.132-.349-.167-.088-.4-.136-.509-.28a2.022,2.022,0,0,0-2.5-.386c-.717.268-1.166.28-1.563-.372A1.9,1.9,0,0,0,23.194,138a1.657,1.657,0,0,0,1.866.079.881.881,0,0,1,.823.051.823.823,0,0,1,.076,1.23,4.863,4.863,0,0,1-.967.578,4.619,4.619,0,0,0,1.839.347c-.118.231-.208.4-.312.606l.726.414c-.072.111-.176.273-.282.435.167.095.335.187.6.335a13.21,13.21,0,0,0-1.27,1.427,6.906,6.906,0,0,0-.8,1.707,8.536,8.536,0,0,0-.789,3.1,5.023,5.023,0,0,1-.594,1.873c-.028.074-.333.079-.5.049a7.574,7.574,0,0,1-.8-.229,3.462,3.462,0,0,1,.088.664.686.686,0,0,1-.187.479,8.85,8.85,0,0,1-1.813,1.045,5.163,5.163,0,0,0,.546-1.561,1.409,1.409,0,0,0-.907-1.422c-.437.585-.127,1.043.19,1.526.083.13.028.349.037.527a1.482,1.482,0,0,1-.55.014c-.416-.155-.814-.363-1.219-.55l-.076.153c-.16-.3-.317-.592-.423-.789.287-.18.682-.291.81-.541a1,1,0,0,0-.287-1.251.791.791,0,0,1-.16-.641,2.306,2.306,0,0,0-.379-1.846c-.6-.853-.59-.884-.247-1.557a.756.756,0,0,1,.444-.384c.15-.025.335.157.507.247.016.076.035.155.051.231a20.393,20.393,0,0,0,1.58-1.376c.1-.1-.016-.576-.178-.733-.305-.3-.562-.518-.523-1.034.019-.252-.4-.534-.606-.793-.516.236-.664.481-.446.962.09.2-.081.518-.143.823.317-.023.893-.285.964.423.062.629-.493.745-1.108,1.075.079-.43.13-.7.18-.974q-.523-.241-1.91.921c.837-1.191-.914-1.55-.539-2.634.338-.12.352-.419-.009-.83a2,2,0,0,1-.229-.6Zm4.721,4c-.93-.012-.763.816-1.145,1.207a.647.647,0,0,0-.985.46c-.037.3-.113,1.029.779.909.419-.8.867-1.654,1.351-2.579Zm-3.754-2.533c.049.389.093.722.139,1.1.194-.056.372-.109.532-.155,0-.49.065-1.013-.673-.948Z" transform="translate(-11.815 -72.636)" fill="#19363b"/><path d="M212.987.77,214.275,0c.865.988,1.788,2.121,2.8,3.169.779.8,1.668,1.506,2.512,2.246a6.53,6.53,0,0,0,3.883,1.434.554.554,0,0,1,.347.155,1.529,1.529,0,0,0,2.558.012c.25-.3.541-.569.784-.877s.444-.636.717-1.032c.3.8-.271,1.325-.4,1.938a10,10,0,0,0-.28.985.842.842,0,0,0,.224.682c.828.474.541,1.48,1.244,2.16l1.52-.9.16.252c-.821.141-.816,1.279-1.813,1.286-.275,0-.59.393-.812.668-.358.439-.694.752-1.249.167-.058.245-.1.412-.169.724a7.864,7.864,0,0,0-1.626-.176,2.194,2.194,0,0,0-1.159.518,6.935,6.935,0,0,0-2.163,2.917,6.853,6.853,0,0,0-.167,1.323c-.062.437-.146.872-.2,1.175-.9-.361-1.769-.648-2.579-1.043-1.066-.52-2.07-1.177-3.146-1.675a1.859,1.859,0,0,0-1.422-.109,17.847,17.847,0,0,0-2.26,1.647,7.585,7.585,0,0,1-.622-.766.988.988,0,0,0-1.353-.407,2.679,2.679,0,0,0-.673,1.422c-.088.312.995.974,1.388.964a1.193,1.193,0,0,1,.675.213c.562.412,1.094.865,1.638,1.3a1.434,1.434,0,0,1-2.058.183c-.287.5-.971.735-.89,1.51.03.282-1.075.83-1.293.705-.567-.326-.548-.86-.433-1.4a3.454,3.454,0,0,1,.257-.643,1.209,1.209,0,0,0-.534-1.7c-.844-.5-.893-.615-.694-1.619a.922.922,0,0,0,.014-.412c-.187-.634.028-.923.661-1.186a4.21,4.21,0,0,0,1.869-1.811,3.942,3.942,0,0,1-.613-.791,1.046,1.046,0,0,1-.035-.847c.2-.3.548-.319.877-.019.389.356.812.7,1.411.4a.335.335,0,0,1,.291.065.63.63,0,0,0,.971.009,1.226,1.226,0,0,0,.5-1.274,8.229,8.229,0,0,1-.365-1.441.966.966,0,0,1,.365-.777,1.257,1.257,0,0,0,.678-1.388,5.783,5.783,0,0,1,.157-2.165,4.575,4.575,0,0,0-.185-2.16c-.259-1-1.082-1.89-.594-2.847Z" transform="translate(-159.046)" fill="#19363b"/><path d="M184.524,174.454q-.613-.31.763-1.964c-.023.2-.039.4-.072.59s-.083.4-.136.648l.493.157a1.631,1.631,0,0,1-1.341,1.49c.111-.349.2-.615.294-.923Z" transform="translate(-141.62 -132.595)" fill="#19363b"/><path d="M120.443,261.076c-.143.564-.287,1.131-.433,1.7.069.032.139.067.206.1a3.078,3.078,0,0,1-.652.34.582.582,0,0,1-.453-.155c-.093-.088-.169-.338-.113-.412.428-.567.888-1.106,1.339-1.654.037.028.072.058.109.086Z" transform="translate(-91.461 -200.626)" fill="#19363b"/><path d="M42.19,351.244q.451-1.211.9-2.424l.236.035a2.886,2.886,0,0,1-.009.722,14.5,14.5,0,0,1-.546,1.6c-.039.1-.259.123-.4.183l-.187-.116Z" transform="translate(-32.432 -268.143)" fill="#19363b"/><path d="M33.707,358.644c-.245-.409-.5-.645-.474-.842.032-.224.382-.611.483-.578a2.74,2.74,0,0,1,.756.557Z" transform="translate(-25.545 -274.601)" fill="#19363b"/><path d="M0,302.163c.086-.25.171-.5.254-.74l.849-.062c0,.227.086.587-.016.655a4.542,4.542,0,0,1-1,.372c-.03-.074-.06-.148-.09-.22Z" transform="translate(0 -231.659)" fill="#19363b"/><path d="M5.93,295.379c.352-.5.705-1,1.006-1.429.042.192.1.465.19.9l-1.112.673Z" transform="translate(-4.558 -225.963)" fill="#19363b"/><path d="M225.734,8a3.333,3.333,0,0,1-.432-.571c-.025-.056.157-.206.245-.312a3.686,3.686,0,0,1,.481.467c.025.032-.15.217-.3.416Z" transform="translate(-173.191 -5.473)" fill="#19363b"/><path d="M32.465,306.69c-.483.925-.932,1.781-1.351,2.579-.893.12-.816-.613-.779-.909a.646.646,0,0,1,.985-.46c.379-.391.215-1.219,1.145-1.207Z" transform="translate(-23.304 -235.757)" fill="#19363b"/><path d="M23.38,295.731c.735-.067.668.456.673.948-.16.046-.338.1-.532.155-.049-.382-.09-.715-.139-1.1Z" transform="translate(-17.973 -227.328)" fill="#19363b"/></svg>