<svg xmlns="http://www.w3.org/2000/svg" xmlns:xlink="http://www.w3.org/1999/xlink" width="278" height="278" viewBox="0 0 278 278"><defs><filter id="a" x="0" y="0" width="278" height="278" filterUnits="userSpaceOnUse"><feOffset dy="3" input="SourceAlpha"/><feGaussianBlur stdDeviation="8" result="b"/><feFlood flood-opacity="0.161"/><feComposite operator="in" in2="b"/><feComposite in="SourceGraphic"/></filter><filter id="c" x="121.012" y="129.447" width="107.139" height="106.374" filterUnits="userSpaceOnUse"><feOffset dy="3" input="SourceAlpha"/><feGaussianBlur stdDeviation="3" result="d"/><feFlood/><feComposite operator="in" in2="d"/><feComposite in="SourceGraphic"/></filter></defs><g transform="translate(-304 -4320)"><g transform="matrix(1, 0, 0, 1, 304, 4320)" filter="url(#a)"><circle cx="115" cy="115" r="115" transform="translate(24 21)" fill="#fff"/></g><g transform="translate(-102.418 1984.813)"><path d="M2054.015,1872.884s27.087-22.93,33.021-39.471-9.285-26.694-9.285-26.694-24.953-12.186-40.041,9.865c-34.088,77.647,119.427-11,144.82-18.718s-44.1-48.508-44.1-30.176c0,4.913-19.329,13.835-13.347,25.129,15.871,29.966,69.043,73.328,69.043,73.328" transform="translate(-1577.151 641.936)" fill="none" stroke="#19363b" stroke-width="4" stroke-dasharray="13"/><g transform="matrix(1, 0, 0, 1, 406.42, 2335.19)" filter="url(#c)"><path d="M58.593,50.111l.441-2.921L34.882,24.936a8.1,8.1,0,0,1-1.769-2.717v.012c-.061-4.039-.2-7.946-.455-11.326C32.171,4.515,30.851,0,29.517,0h0c-1.331,0-2.654,4.515-3.138,10.905-.256,3.38-.395,7.286-.455,11.326v-.012a8.052,8.052,0,0,1-1.769,2.717L0,47.19l.441,2.921,25.518-14.1v-.006c.141,8.563.438,15.581.438,16.719a60.752,60.752,0,0,0,1.052,6.629h0l-7.609,5.552v1.714L28.86,65.4h0c.262.859.493,1.392.657,1.392s.395-.533.657-1.392h0l9.021,1.224V64.911L31.586,59.36h0a60.014,60.014,0,0,0,1.052-6.629c0-1.138.3-8.156.438-16.719v.009l25.518,14.1Z" transform="matrix(-0.66, -0.75, 0.75, -0.66, 168.74, 223.82)" fill="#86b8ba"/></g><path d="M64.562,34.635a8.341,8.341,0,0,0-5.805-6.313c-2.889-.684-6.029,1.219-7.6,3.574-1.651,2.475-2.194,6.593-.18,9.017a6.529,6.529,0,0,0,3.83,2.141.35.35,0,0,0-.094.214q.057,2.563-.048,5.123a2.3,2.3,0,0,0,.4,1.7,9.057,9.057,0,0,1,1.054,2.306c.118.386,1.624-.647,1.738-.841.407-.693.827-1.381,1.221-2.081a4.24,4.24,0,0,0,.427-2.063q.121-2.388.243-4.775c.06-.023.12-.046.179-.07a7.293,7.293,0,0,0,4.637-7.929Zm-9.619-3a6.748,6.748,0,0,0,.317,6.653c.207.334-1.569,1.388-1.79,1.033a7.05,7.05,0,0,1-.214-7.038,2.352,2.352,0,0,1,1.174-.794c.187-.066.706-.23.512.145Zm2.778,16.275a5.419,5.419,0,0,1-.309,2.158,7.909,7.909,0,0,0-.391-.745,4.478,4.478,0,0,1-.552-.88,4.152,4.152,0,0,1,.009-1.268c.051-1.32.063-2.638.046-3.958a9.355,9.355,0,0,0,1.441-.112l-.245,4.806Z" transform="translate(412.025 2425.735) rotate(-30)" fill="#61a1ac"/><path d="M64.535,34.623a8.326,8.326,0,0,0-5.794-6.3c-2.884-.682-6.018,1.217-7.586,3.568-1.648,2.471-2.19,6.581-.18,9A6.517,6.517,0,0,0,54.8,43.027a.349.349,0,0,0-.094.214q.057,2.559-.048,5.114a2.3,2.3,0,0,0,.4,1.693,9.04,9.04,0,0,1,1.052,2.3c.117.385,1.621-.646,1.735-.839.406-.692.825-1.378,1.219-2.077a4.232,4.232,0,0,0,.426-2.059q.121-2.383.243-4.767c.06-.023.12-.046.178-.07a7.28,7.28,0,0,0,4.629-7.914Zm-9.6-2.993a6.735,6.735,0,0,0,.316,6.641c.207.333-1.566,1.386-1.786,1.031a7.037,7.037,0,0,1-.213-7.025,2.347,2.347,0,0,1,1.172-.792c.187-.066.7-.229.511.145Zm2.773,16.245a5.409,5.409,0,0,1-.308,2.154,7.9,7.9,0,0,0-.39-.744,4.47,4.47,0,0,1-.551-.878,4.145,4.145,0,0,1,.009-1.266c.051-1.317.063-2.633.046-3.951a9.337,9.337,0,0,0,1.439-.112l-.244,4.8Z" transform="translate(547.973 2386.423) rotate(7)" fill="#61a1ac"/></g></g></svg>