<svg xmlns="http://www.w3.org/2000/svg" xmlns:xlink="http://www.w3.org/1999/xlink" width="278" height="278" viewBox="0 0 278 278"><defs><filter id="a" x="0" y="0" width="278" height="278" filterUnits="userSpaceOnUse"><feOffset dy="3" input="SourceAlpha"/><feGaussianBlur stdDeviation="8" result="b"/><feFlood flood-opacity="0.161"/><feComposite operator="in" in2="b"/><feComposite in="SourceGraphic"/></filter></defs><g transform="translate(-304 -3480)"><g transform="matrix(1, 0, 0, 1, 304, 3480)" filter="url(#a)"><circle cx="115" cy="115" r="115" transform="translate(24 21)" fill="#fff"/></g><g transform="translate(-769.695 3467.354)"><path d="M1236.279,72.549a4.623,4.623,0,0,1,1.895-.6c7.314-1.15,14.775-.913,22.18-.673l19.248.624a4.81,4.81,0,0,1,1.63.242c.512.2,1.2.657,1.267,1.192s-.486,1-.822,1.425a14.833,14.833,0,0,1-8.655,4.819,55.624,55.624,0,0,1-10.129.762c-4.375.109-8.755.4-13.123.14a31.1,31.1,0,0,1-12.624-3.125,3.261,3.261,0,0,1-1.039-.75c-.558-.678-.385-1.442-.485-2.232A1.6,1.6,0,0,1,1236.279,72.549Z" transform="translate(-46.954 -0.042)" fill="#62728e"/><path d="M1262.547,114.105c-.2-8.011-1.742-24.091-5.135-31.391-.048-.1.3.687-8.077,1.583-4.61.493-25.777.425-30.394,0-7.638-.7-8.029-1.686-8.077-1.583-3.393,7.3-4.936,23.38-5.135,31.391a98.5,98.5,0,0,0,2.669,23.841,1.451,1.451,0,0,0,.338.763,1.523,1.523,0,0,0,.8.318,62.647,62.647,0,0,0,19.449.547c.487-3.244.456-6.553,1.054-9.78a14.129,14.129,0,0,1,4.1-8.146,14.131,14.131,0,0,1,4.1,8.146c.6,3.227.566,6.536,1.054,9.78a62.647,62.647,0,0,0,19.449-.547,1.522,1.522,0,0,0,.8-.318,1.454,1.454,0,0,0,.337-.763A98.493,98.493,0,0,0,1262.547,114.105Z" transform="translate(-22.014 -9.749)" fill="#576c91"/><path d="M1264.883,111.029q8.086-.422,16.134-1.329c3.63-.409,7.372-.933,10.487-2.795l.418,1.7a49.516,49.516,0,0,1-12.813,2.291c-4.545.352-9.1.537-13.661.67-6.582.193-14.379.663-20.571-1.936,2.925.192,5.81,1.2,8.773,1.425A87.8,87.8,0,0,0,1264.883,111.029Z" transform="translate(-54.716 -29.953)" fill="#465872"/><path d="M1358.459,109.627c.167,3.671.334,7.345.791,10.992a264.4,264.4,0,0,1-.291-30.053c0,.092-.985.036-1.072.1-.314.217-.175.28-.263.608a10.213,10.213,0,0,0,.122,2.656q.118,2.6.236,5.2Q1358.221,104.377,1358.459,109.627Z" transform="translate(-148.784 -16.312)" fill="#465872"/><path d="M1377.589,114.293a26.661,26.661,0,0,0,1.064-7.843,115.743,115.743,0,0,0-.7-15.753l1.139-.09q.443,5.344.5,10.709c.057,5.042-.172,10.231-2.251,14.849a9.112,9.112,0,0,1-1.984,2.987,4.286,4.286,0,0,1-2.873,1.287,15.154,15.154,0,0,0,2.588-1.771A12.075,12.075,0,0,0,1377.589,114.293Z" transform="translate(-161.251 -16.346)" fill="#465872"/><path d="M1235.922,72.957c.048-.1.439.879,8.077,1.583,4.617.425,25.784.492,30.394,0,8.38-.9,8.029-1.686,8.077-1.583s.1.216.148.327h0c-.066-.534-.756-.988-1.268-1.192a4.81,4.81,0,0,0-1.63-.242l-19.248-.624c-7.405-.24-14.865-.477-22.18.674a4.619,4.619,0,0,0-1.9.6,1.426,1.426,0,0,0-.649.843C1235.805,73.212,1235.863,73.083,1235.922,72.957Z" transform="translate(-47.094)" fill="#3e4959"/><path d="M1520.276,139.308c-.161-6.494-1.206-18.291-3.4-26.414a4.818,4.818,0,0,0-2.382,1.164c-.341.642.683,2.668.868,3.4.635,2.5,1.018,5.046,1.4,7.588l1.161,7.715c.353,2.346.706,4.692.959,7.05a83.942,83.942,0,0,1,.212,15.627A88.474,88.474,0,0,0,1520.276,139.308Z" transform="translate(-279.744 -34.952)" fill="#465872"/><path d="M1212.644,83.373a6.524,6.524,0,0,1-1.781-.651c-3.393,7.3-4.936,23.38-5.135,31.391q-.04,1.6-.009,3.2a128.958,128.958,0,0,1,1.92-18.585,64.152,64.152,0,0,1,1.431-6.917A37.94,37.94,0,0,1,1212.644,83.373Z" transform="translate(-22.015 -9.757)" fill="#465872"/><path d="M1333.9,306.64a20.984,20.984,0,0,1-6.469-2.405,33.4,33.4,0,0,1,6.26.794l-.945-.722a4.45,4.45,0,0,0,2.781.375q4.4-.379,8.752-1.092-3.207,1.623-6.542,2.989c2.59,4.378,2.762,9.674,2.867,14.725-.575-2.207-.7-4.5-1.067-6.749a13.576,13.576,0,0,0-2.413-6.339,1.853,1.853,0,0,0-.813-.67c-.75-.252-1.5.376-1.959,1.006a15.666,15.666,0,0,0-2.331,6.248q-.723,3.569-1.136,7.189c.3-2.559.09-5.166.484-7.741A21.442,21.442,0,0,1,1333.9,306.64Z" transform="translate(-123.637 -194.153)" fill="#465872"/><path d="M1447.467,145.855c2.578,2.9,6.03,5.324,9.956,5.67q0,.606,0,1.213c-3.883-.75-7.927-1.859-10.671-4.637a16.524,16.524,0,0,1-2.23-2.955,27.517,27.517,0,0,1-2.16-4.192c-.232-.574-1.6-3.619-1.126-4.123s2.724,4,3,4.5A26.221,26.221,0,0,0,1447.467,145.855Z" transform="translate(-218.56 -54.903)" fill="#465872"/><path d="M1208.812,148.175a23.223,23.223,0,0,0,12.678-14.124,6.04,6.04,0,0,0,1.725.252l-2.363,4.229c-.709,1.269-1.42,2.541-2.254,3.736a22.788,22.788,0,0,1-11.368,8.468c0-.491-.068-1.71.271-2.1C1207.762,148.329,1208.4,148.358,1208.812,148.175Z" transform="translate(-23.281 -52.615)" fill="#465872"/><path d="M1288.721,98.4a11.4,11.4,0,0,0,2.324.281,19.235,19.235,0,0,1-.588-8.078c-.016.111-1.157-.051-1.275-.036a.584.584,0,0,0-.535.3,5.288,5.288,0,0,0-.5,2.349A16.023,16.023,0,0,0,1288.721,98.4Z" transform="translate(-90.812 -16.312)" fill="#5f779b"/><path d="M1450.774,98.172l2.058-.449a.72.72,0,0,0,.308-.119.679.679,0,0,0,.191-.392,11,11,0,0,0,.344-3.012,5.6,5.6,0,0,0-.887-2.877.515.515,0,0,0-.215-.207.563.563,0,0,0-.283-.012c-.464.059-1.629-.019-1.783.512-.065.224.224.766.284,1A11.1,11.1,0,0,1,1451.12,96C1451.106,96.23,1451.009,98.12,1450.774,98.172Z" transform="translate(-226.377 -16.75)" fill="#5f779b"/><g transform="translate(1211.237 76.306)"><path d="M1374.713,110.168a2.157,2.157,0,0,0,2.07-.33,2,2,0,0,0,.7-1.924,1.491,1.491,0,0,0-.191-.494,1.562,1.562,0,0,0-1.33-.664,2.582,2.582,0,0,0-1.444.514,5.94,5.94,0,0,0-.909.823.608.608,0,0,0-.155.709A2.105,2.105,0,0,0,1374.713,110.168Z" transform="translate(-1373.25 -106.134)" fill="#465872"/><g transform="translate(0 0)"><path d="M1376.3,104.845a1.908,1.908,0,1,1-1.907-1.858A1.883,1.883,0,0,1,1376.3,104.845Z" transform="translate(-1372.488 -102.987)" fill="#c6956a"/><path d="M1375.649,106.382a.928.928,0,0,0,.225.772.521.521,0,0,0,.749-.014.735.735,0,0,0,.1-.283,1.558,1.558,0,0,1,.545-1.1,1.07,1.07,0,0,0,.332-.217.386.386,0,0,0-.115-.518C1376.651,104.4,1375.72,105.682,1375.649,106.382Z" transform="translate(-1375.121 -104.547)" fill="#fff" opacity="0.45"/></g></g><g transform="translate(1184.82 97.897)"><path d="M1212.79,234.68q.767-.262,1.51-.587a.205.205,0,0,0,.073-.279.209.209,0,0,0-.279-.073q-.695.3-1.413.546a.209.209,0,0,0-.142.251.206.206,0,0,0,.251.142Z" transform="translate(-1212.532 -233.718)" fill="#a4c1ea"/></g><g transform="translate(1188.832 96.067)"><path d="M1237.136,223.735a11.834,11.834,0,0,1,1.253-.718.205.205,0,0,0,.073-.279.209.209,0,0,0-.279-.073,11.859,11.859,0,0,0-1.253.718.2.2,0,1,0,.206.352Z" transform="translate(-1236.829 -222.639)" fill="#a4c1ea"/></g><g transform="translate(1191.399 94.373)"><path d="M1252.717,213.5q.112-.107.23-.208c.039-.034.079-.067.119-.1l.064-.051,0,0,.036-.028a5.493,5.493,0,0,1,.526-.35.2.2,0,1,0-.206-.352,5.707,5.707,0,0,0-1.06.8.205.205,0,0,0,0,.288.207.207,0,0,0,.288,0Z" transform="translate(-1252.37 -212.383)" fill="#a4c1ea"/></g><g transform="translate(1193.923 92.028)"><path d="M1268,199.52l.9-.991a.2.2,0,0,0-.288-.288l-.9.991a.2.2,0,0,0,.288.288Z" transform="translate(-1267.65 -198.182)" fill="#a4c1ea"/></g><g transform="translate(1195.959 90.101)"><path d="M1280.361,187.433a2.811,2.811,0,0,1,.227-.343l-.032.041a2.834,2.834,0,0,1,.238-.269.2.2,0,0,0-.288-.288,3.009,3.009,0,0,0-.5.654.2.2,0,0,0,.352.206Z" transform="translate(-1279.983 -186.516)" fill="#a4c1ea"/></g><g transform="translate(1197.428 87.644)"><path d="M1289.253,173.177l.805-1.238a.206.206,0,0,0-.073-.279.208.208,0,0,0-.279.073l-.8,1.238a.205.205,0,0,0,.073.279.208.208,0,0,0,.279-.073Z" transform="translate(-1288.873 -171.635)" fill="#a4c1ea"/></g><g transform="translate(1199.083 85.478)"><path d="M1299.3,159.431c.017-.05.036-.1.057-.149l-.02.049a2.346,2.346,0,0,1,.293-.5.2.2,0,0,0,.02-.157.2.2,0,0,0-.25-.142.242.242,0,0,0-.122.094,2.512,2.512,0,0,0-.371.7.205.205,0,0,0,.142.251.209.209,0,0,0,.251-.142Z" transform="translate(-1298.898 -158.521)" fill="#a4c1ea"/></g><g transform="translate(1200.313 83.16)"><path d="M1306.747,145.4l.275-.656a.2.2,0,0,0-.021-.157.2.2,0,0,0-.279-.073.241.241,0,0,0-.093.122l-.275.655a.2.2,0,0,0,.021.157.2.2,0,0,0,.279.073.241.241,0,0,0,.093-.122Z" transform="translate(-1306.346 -144.49)" fill="#a4c1ea"/></g><g transform="translate(1221.193 81.874)"><path d="M1432.777,136.958a9.946,9.946,0,0,0,.522,1.628.211.211,0,0,0,.251.142.2.2,0,0,0,.142-.251,9.915,9.915,0,0,1-.522-1.628.2.2,0,0,0-.393.108Z" transform="translate(-1432.771 -136.7)" fill="#a4c1ea"/></g><g transform="translate(1222.358 85.203)"><path d="M1439.85,157.165l.988,2a.206.206,0,0,0,.279.073.208.208,0,0,0,.073-.279l-.988-2a.206.206,0,0,0-.279-.073.208.208,0,0,0-.073.279Z" transform="translate(-1439.825 -156.86)" fill="#a4c1ea"/></g><g transform="translate(1224.167 88.894)"><path d="M1450.8,179.513a5.38,5.38,0,0,0,.825,1.232.205.205,0,0,0,.288,0,.209.209,0,0,0,0-.288,4.395,4.395,0,0,1-.413-.536,5.135,5.135,0,0,1-.348-.613.205.205,0,0,0-.279-.073.209.209,0,0,0-.073.279Z" transform="translate(-1450.775 -179.207)" fill="#a4c1ea"/></g><g transform="translate(1225.892 91.679)"><path d="M1461.277,196.416l.786.813a.2.2,0,0,0,.288-.288l-.786-.813a.206.206,0,0,0-.288,0,.208.208,0,0,0,0,.288Z" transform="translate(-1461.219 -196.069)" fill="#a4c1ea"/></g><g transform="translate(1228.286 94.529)"><path d="M1475.818,213.707l.939.586a.205.205,0,0,0,.279-.073.208.208,0,0,0-.073-.279l-.939-.586a.206.206,0,0,0-.279.073.208.208,0,0,0,.073.279Z" transform="translate(-1475.718 -213.327)" fill="#a4c1ea"/></g><g transform="translate(1231.156 96.402)"><path d="M1493.243,225.066l1.119.431a.2.2,0,0,0,.25-.142.209.209,0,0,0-.142-.251l-1.119-.431a.2.2,0,0,0-.251.142.21.21,0,0,0,.143.251Z" transform="translate(-1493.094 -224.664)" fill="#a4c1ea"/></g><g transform="translate(1234.619 97.661)"><path d="M1514.208,232.693l1.242.457a.205.205,0,0,0,.251-.142.21.21,0,0,0-.143-.251l-1.242-.457a.2.2,0,0,0-.25.142.209.209,0,0,0,.142.251Z" transform="translate(-1514.06 -232.291)" fill="#a4c1ea"/></g><g transform="translate(1237.419 98.463)"><path d="M1531.165,237.546l.947.282a.206.206,0,0,0,.25-.142.208.208,0,0,0-.142-.251l-.947-.282a.206.206,0,0,0-.25.142.208.208,0,0,0,.142.251Z" transform="translate(-1531.017 -237.146)" fill="#a4c1ea"/></g><path d="M1186.19,309.269a17.167,17.167,0,0,0,.358,6.521c.572,1.78,1.716,3.354,2.213,5.155.82,2.974-.223,6.117-.1,9.194.111,2.836,1.206,5.551,1.53,8.371.374,3.255-.287,6.526-.782,9.767a96.931,96.931,0,0,0,.754,33.485,103.113,103.113,0,0,0,23.337.936c1.6-11.29,3.084-22.756,1.494-34.047a63.855,63.855,0,0,1-1.078-9.27,81.93,81.93,0,0,1,.95-8.606c.65-5.763.154-11.583-.343-17.361l-1.034-12.038a33.667,33.667,0,0,1-.174-5.373c.107-1.435.4-2.851.581-4.279a58.052,58.052,0,0,0-.092-11.8,8.016,8.016,0,0,0-1.266-4.494,8.2,8.2,0,0,0-2.682-1.946q-7.443-3.968-15.159-7.419a13.529,13.529,0,0,1-2.944-1.613,6.626,6.626,0,0,1-2.184-3.182c.517,1.638-.434,4.118-.512,5.792-.083,1.761-.027,3.556-.161,5.378q-.445,6.06-.889,12.12Q1187.1,296.916,1186.19,309.269Z" transform="translate(-5.606 -158.824)" fill="#576c91"/><path d="M1391.3,295.457a26.635,26.635,0,0,0-.186,6.818c.334,2.066,1.239,4.006,1.673,6.054a27.24,27.24,0,0,1,.309,6.6c-.151,4.378-.339,8.909-2.322,12.841-.594,1.177-1.366,2.437-1.04,3.71a7.658,7.658,0,0,0,.847,1.679,11.747,11.747,0,0,1,1.037,3.266,152.264,152.264,0,0,1,2.476,46.031c-.111,1.119-.058,2.547,1.008,2.978a2.753,2.753,0,0,0,1.074.129,149.37,149.37,0,0,0,21.246-1.813,106.4,106.4,0,0,0,1.164-17.894c-.2-4.13-.876-8.225-1.177-12.35a67.629,67.629,0,0,1,.962-17.259,6.423,6.423,0,0,1,.928-2.64c.377-.524.9-.939,1.247-1.483,1.356-2.138-.562-4.721-1.587-7.028a19.657,19.657,0,0,1-1.2-7.566c-.435-17.506-.426-35.052-2.292-52.469-1.642,3.518-5.5,5.438-9.086,7.1l-8.6,3.978c-1.647.762-5.052,1.593-6.1,3.195-1.162,1.781-.11,5.267-.06,7.278C1391.7,289.57,1391.3,292.507,1391.3,295.457Z" transform="translate(-175.587 -161.985)" fill="#576c91"/><path d="M1538.152,238.8a57.716,57.716,0,0,1,.362,7.318c-.095,1.944-.448,3.87-.55,5.813a45.189,45.189,0,0,0,.076,4.643q.238,4.683.476,9.365c.143,2.812.31,5.716,1.6,8.235.917,1.789,2.422,3.661,1.762,5.554-.65,1.862-3.068,2.568-4.071,4.274a1.1,1.1,0,0,0-.193.693c.113.777,1.347.774,1.835,1.4a1.837,1.837,0,0,1,.278,1.056q.394,7.288.789,14.576.339-4.4.679-8.807a25.424,25.424,0,0,1,.951-6.008c1.128-3.434,3.751-6.77,2.8-10.255a25.256,25.256,0,0,0-1.371-3.111,18.622,18.622,0,0,1-1.112-5.788q-1.484-18.062-1.987-36.183c-.245-8.8-.327-17.7-2.457-26.256C1538.272,216.481,1538.152,227.642,1538.152,238.8Z" transform="translate(-299.099 -112.116)" fill="#465872"/><path d="M1182.94,251.745c-2.77,8.17-.674,17.194-2.522,25.606-.529,2.408-1.385,4.844-.971,7.273.542,3.178,3.179,5.783,3.489,8.991.178,1.846-.443,3.672-.566,5.522-.322,4.829,2.744,9.53,1.919,14.3q.308-2.591.616-5.183c.077-.645.349-1.472,1.017-1.468.395,0,.7.319,1,.563a3.39,3.39,0,0,0,3.371.45c.241-1.1-1.136-1.779-2.154-2.314a7.123,7.123,0,0,1-3.751-6.694c.17-2.152,1.351-4.314.676-6.37-.142-.431-.354-.932-.086-1.3a1.251,1.251,0,0,1,.979-.368c2.4-.133,5.128.264,6.938-1.281-2.306-1.217-5.335-.513-7.572-1.847-1.947-1.161-2.727-3.543-2.93-5.758-.406-4.442.883-8.844,1.441-13.271a78.863,78.863,0,0,0,.444-9.327q.11-15.966-.16-31.932a273.968,273.968,0,0,0-2.041,28.3Z" transform="translate(0 -130.495)" fill="#465872"/><path d="M1340.235,525.324a6.049,6.049,0,0,0-.71,2.577,7.864,7.864,0,0,0,1.1,2.786,8.1,8.1,0,0,1,.492,5.561,8.576,8.576,0,0,0-.413,1.722,8.076,8.076,0,0,0,.162,1.587,25.017,25.017,0,0,1-.017,4.448c-.231,5.816,1.129,11.568,2.48,17.238a39.678,39.678,0,0,1-.965-12.092c.207-2.785.708-5.541,1.008-8.318,1.043-9.538-.308-19.13-1.76-28.556C1341.857,516.793,1342.038,521.009,1340.235,525.324Z" transform="translate(-133.729 -368.374)" fill="#465872"/><path d="M1384.853,604.709a3.054,3.054,0,0,0-.4,2.151,4.534,4.534,0,0,0,.815,1.225,9.608,9.608,0,0,1,1.44,3.84l3.13,14.379q-.925-5.283-1.852-10.566c-.209-1.195-.184-2.8,1-3.173.844-.267,1.684.324,2.491.683a5.027,5.027,0,0,0,3.269.269c-.158-1.177-1.61-1.621-2.7-2.161-2.86-1.423-4.082-4.85-4.074-7.977.007-3.108.191-6.116.471-9.2A40.919,40.919,0,0,1,1384.853,604.709Z" transform="translate(-171.176 -436.751)" fill="#465872"/><path d="M1456.112,879.677a16.694,16.694,0,0,0,6.239-6.151q-.177,3.766-.354,7.533a2.083,2.083,0,0,1-.232,1.035,2.047,2.047,0,0,1-.986.692c-4.657,1.968-9.948,1.674-15.014,1.345a16.022,16.022,0,0,1-3.714-.549c.924.1,1.6-.5,2.459-.719,1.3-.326,2.718-.382,4.043-.634A24.738,24.738,0,0,0,1456.112,879.677Z" transform="translate(-219.324 -669.961)" fill="#465872"/><path d="M1213.091,877.609a45.51,45.51,0,0,0,11.5-1.118,8.508,8.508,0,0,0,2.43-1,8.278,8.278,0,0,0,1.916-1.874,21.509,21.509,0,0,0,3.378-6.127,12.543,12.543,0,0,0-.293,4.128,28.446,28.446,0,0,1-.925,7.644,1.622,1.622,0,0,1-.7,1.136,1.974,1.974,0,0,1-1.016.077c-1.746-.134-3.483.343-5.234.354a31.682,31.682,0,0,1-4.766-.605c-4.519-.665-9.307-.161-13.507-1.916C1208.142,877.363,1210.681,877.638,1213.091,877.609Z" transform="translate(-22.155 -664.922)" fill="#465872"/><path d="M1196.542,936.608a1.9,1.9,0,0,0,.273.661,1.7,1.7,0,0,0,.537.427,11.348,11.348,0,0,0,3.457,1.12,53.467,53.467,0,0,0,21.114-.1,56.6,56.6,0,0,0,.916-12.971,33.532,33.532,0,0,1-10.458,1.306q-5.667.031-11.324-.418-1.44-.115-2.877-.26c-.515-.052-2.231-.525-2.663-.254-.829.519-.356,3.656-.265,4.492A39.2,39.2,0,0,0,1196.542,936.608Z" transform="translate(-13.105 -713.554)" fill="#5f779b"/><path d="M1412.852,921.538a3.413,3.413,0,0,0,.349,1.33,3.638,3.638,0,0,0,2.6,1.4,46.126,46.126,0,0,0,12.362.349,20.658,20.658,0,0,0,7.361-1.563,2.38,2.38,0,0,0,.694-.45,2.565,2.565,0,0,0,.494-.894,31.866,31.866,0,0,0,1.531-4.621,15.92,15.92,0,0,0-.375-8.238,7.409,7.409,0,0,1-3.169,1.844,33.752,33.752,0,0,1-7.6,1.329c-4.025.381-8.253.725-12.158-.545-1.1-.359-1.158-.658-1.464.367a20.134,20.134,0,0,0-.563,3.079A27.3,27.3,0,0,0,1412.852,921.538Z" transform="translate(-194.806 -699.448)" fill="#5f779b"/></g></g></svg>