<svg xmlns="http://www.w3.org/2000/svg" xmlns:xlink="http://www.w3.org/1999/xlink" width="60.326" height="63.338" viewBox="0 0 60.326 63.338"><defs><clipPath id="a"><path d="M223.582,725.93c4.373,1.037,8.127,3.77,12.314,5.325A31.084,31.084,0,0,1,211.732,742.6a30.389,30.389,0,0,1-23.342-10.382l19.213-4.877C212.833,726.017,218.329,724.684,223.582,725.93Z" transform="translate(-188.39 -725.433)" fill="none"/></clipPath><clipPath id="b"><path d="M153.041,63.1a31.289,31.289,0,0,1,53.121,2.671,108.284,108.284,0,0,1-19.944,1.978c-7.484.007-11.726.01-17.149-1.814-3.281-1.1-5.2-2.272-8.885-2.823a24.912,24.912,0,0,0-7.145-.013Z" transform="translate(-153.04 -49.61)" fill="none"/></clipPath></defs><g transform="translate(-97.356 -49.61)"><g transform="translate(103.575 95.778)" clip-path="url(#a)"><g transform="translate(-6.182 -41.395)"><path d="M237.708,174.761a6.529,6.529,0,0,1-2.136,1.327,27.227,27.227,0,0,1-8.708,2.84,29.879,29.879,0,0,1-16.462-2,23.78,23.78,0,0,1-4.228-2.241c.005-.213.015-.427.016-.64a3.309,3.309,0,0,1,2.225-3.529,11.792,11.792,0,0,0,3.938-2.8c1.281-1.252,2.662-2.393,3.971-3.612a12.585,12.585,0,0,0,2.813-3.025c.81-1.5.89-3.886-1.1-4.992a5.837,5.837,0,0,1-1.1-.866,16.648,16.648,0,0,1-2.961-4.22c-.6-1.055-1.1-2.206-2.4-2.609a16.037,16.037,0,0,0-1.734-.421,5.738,5.738,0,0,1-3.392-1.484,3.287,3.287,0,0,0-2.308-1.058c-.3-.024-.6,0-.9-.029-.93-.1-1.181-.383-1.178-1.308,0-.854.007-1.707.019-2.561a2.126,2.126,0,0,0-1.455-2.174c-.257-.1-.506-.23-.754-.352a1.09,1.09,0,0,1-.582-1.722,3.831,3.831,0,0,1,3.978-2.4c1.809.111,2.217.607,2.409,2.02a1.782,1.782,0,0,0,1.581,1.6,7.8,7.8,0,0,0,3.824-.417,14.842,14.842,0,0,0,5.723-3.27,9.248,9.248,0,0,0,2.448-3c.4-.887.326-1.069-.589-1.388-.32-.111-.359-.25-.143-.5a3.113,3.113,0,0,1,4.587-.324,3.326,3.326,0,0,0,.874.633c.661.369.982.169,1.014-.605a2.959,2.959,0,0,0-.822-2.153,5.2,5.2,0,0,0-4.923-1.469,4.032,4.032,0,0,0-2.092.709,1.982,1.982,0,0,1-1.1.464c-1.036.078-2.068-.223-2.3-1.253a1.86,1.86,0,0,1,1.6-2.084,3.489,3.489,0,0,1,1.828.112,8.474,8.474,0,0,0,3.543.279,1.547,1.547,0,0,1,1.435.45,2.852,2.852,0,0,0,2.61.709c.7-.1.869-.529.532-1.159a4.727,4.727,0,0,0-1.418-1.538,2.679,2.679,0,0,0-3.261-.046,2.178,2.178,0,0,1-2.6.212,12.475,12.475,0,0,0-4.114-1.33,1.173,1.173,0,0,0-1.31.549c-.111.184-.233.451-.465.346a9.28,9.28,0,0,0-2.272-.263,10.444,10.444,0,0,1,2.851-1.2,30.825,30.825,0,0,1,8.265-1.46,29.867,29.867,0,0,1,10.85,1.594,29.882,29.882,0,0,1,14.413,10.645.979.979,0,0,1,.252.506,1.371,1.371,0,0,1-.65-.247,8.4,8.4,0,0,0-2.4-.86,4.055,4.055,0,0,0-2.449,0c-.58.259-.657.7-.227,1.159a4.051,4.051,0,0,0,.914.579c.46.286.46.582-.006.861a2.275,2.275,0,0,1-.646.266c-.641.149-1.29.269-1.936.4a2.371,2.371,0,0,0-1.918,1.308c-.407.922-.519.96-1.516.68a1.572,1.572,0,0,0-1.922.609,2.152,2.152,0,0,0-.215,2.3,1.583,1.583,0,0,0,1.719.725c.661-.064.936-.617,1.292-1.052.506-.619.832-.716,1.547-.357a4.729,4.729,0,0,1,1.794,1.687,5.09,5.09,0,0,0,2.116,1.8.849.849,0,0,0,.857.029c.279-.194.206-.522.154-.826a6.936,6.936,0,0,1-.2-1.643c.01-.146-.021-.324.162-.377.168-.049.286.079.369.2.18.264.35.535.51.811a16.36,16.36,0,0,0,3.472,4.551c.441.369.876.747,1.289,1.146.534.518.424.927-.292,1.147a3.729,3.729,0,0,1-2.621-.167,14.379,14.379,0,0,1-5.627-4.3,4.38,4.38,0,0,0-2.316-1.493,9.139,9.139,0,0,0-3.42-.139,9.031,9.031,0,0,0-8.261,10.336c.312,2.467,1.208,3.8,3.718,4.19,1.029.159,2.055.35,3.068.587a3.68,3.68,0,0,1,2.938,3.219,11.159,11.159,0,0,1-.236,3.991,35.208,35.208,0,0,1-1.844,5.372,13.022,13.022,0,0,0-1.166,4.55,1.867,1.867,0,0,0,1.739,2.066,4.527,4.527,0,0,0,1.211-.025c.764-.095,1.455-.459,2.212-.571Z" transform="translate(-192.171 -119.478)" fill="#85b7b9"/><path d="M604.565,331.117c-.757.111-1.447.476-2.212.571a4.553,4.553,0,0,1-1.211.025,1.867,1.867,0,0,1-1.739-2.066,13.037,13.037,0,0,1,1.166-4.55,35.2,35.2,0,0,0,1.844-5.372,11.191,11.191,0,0,0,.236-3.991,3.68,3.68,0,0,0-2.938-3.219c-1.013-.236-2.04-.427-3.068-.587-2.511-.389-3.407-1.724-3.718-4.19a9.031,9.031,0,0,1,8.261-10.336,9.137,9.137,0,0,1,3.42.139,4.384,4.384,0,0,1,2.317,1.493,14.383,14.383,0,0,0,5.627,4.3,3.728,3.728,0,0,0,2.62.167c.716-.219.827-.629.292-1.147-.413-.4-.848-.777-1.289-1.146a16.362,16.362,0,0,1-3.472-4.551c-.16-.276-.33-.547-.51-.811-.083-.122-.2-.25-.369-.2s-.152.231-.162.377a6.965,6.965,0,0,0,.2,1.643c.052.3.124.632-.154.826a.849.849,0,0,1-.857-.029,5.09,5.09,0,0,1-2.116-1.8,4.728,4.728,0,0,0-1.794-1.687c-.715-.359-1.04-.262-1.547.357-.356.435-.63.989-1.292,1.052a1.582,1.582,0,0,1-1.719-.725,2.152,2.152,0,0,1,.214-2.3,1.572,1.572,0,0,1,1.922-.609c1,.28,1.109.241,1.516-.68a2.368,2.368,0,0,1,1.918-1.307c.646-.133,1.294-.253,1.936-.4a2.273,2.273,0,0,0,.646-.266c.467-.279.467-.575.006-.861a4.018,4.018,0,0,1-.914-.579c-.43-.459-.354-.9.227-1.159a4.055,4.055,0,0,1,2.449,0,8.4,8.4,0,0,1,2.4.86,1.357,1.357,0,0,0,.65.247c.02.024.038.049.056.074a.115.115,0,0,0,.133.122,20.988,20.988,0,0,1,3.081,5.579c4.019,10.6,2.725,20.515-4.015,29.647a25.282,25.282,0,0,1-7.475,6.807c-.182.108-.38.191-.57.286Zm6.727-39.366c.484-.185,1.153,0,1.418-.641.166-.4-.294-1.118-.85-1.435a1.055,1.055,0,0,0-1.3.024,1.469,1.469,0,0,0-.6,1.393c.1.537.643.527,1.076.6.083.015.165.036.258.056Z" transform="translate(-559.029 -275.834)" fill="#19363b"/><path d="M175.536,149.859a9.282,9.282,0,0,1,2.272.263c.232.105.355-.161.465-.346a1.175,1.175,0,0,1,1.31-.549,12.491,12.491,0,0,1,4.114,1.33,2.178,2.178,0,0,0,2.6-.212,2.681,2.681,0,0,1,3.261.046,4.726,4.726,0,0,1,1.417,1.538c.337.631.164,1.055-.532,1.159a2.853,2.853,0,0,1-2.61-.709,1.545,1.545,0,0,0-1.435-.45,8.451,8.451,0,0,1-3.543-.279,3.488,3.488,0,0,0-1.828-.112,1.86,1.86,0,0,0-1.6,2.084c.234,1.03,1.267,1.331,2.3,1.253a1.992,1.992,0,0,0,1.1-.464,4.036,4.036,0,0,1,2.092-.709,5.2,5.2,0,0,1,4.923,1.469,2.959,2.959,0,0,1,.822,2.153c-.033.775-.353.974-1.014.605a3.334,3.334,0,0,1-.874-.633,3.113,3.113,0,0,0-4.587.324c-.217.252-.177.391.143.5.915.319.989.5.589,1.388a9.263,9.263,0,0,1-2.448,3,14.848,14.848,0,0,1-5.723,3.27,7.8,7.8,0,0,1-3.824.417,1.782,1.782,0,0,1-1.581-1.6c-.191-1.413-.6-1.909-2.409-2.02a3.831,3.831,0,0,0-3.978,2.4,1.091,1.091,0,0,0,.582,1.722c.249.124.5.249.754.353a2.126,2.126,0,0,1,1.455,2.174c-.012.854-.016,1.707-.019,2.561,0,.924.248,1.208,1.178,1.308.3.032.6.005.9.029a3.285,3.285,0,0,1,2.308,1.058,5.742,5.742,0,0,0,3.392,1.484,15.994,15.994,0,0,1,1.734.421c1.3.4,1.8,1.553,2.4,2.609a16.643,16.643,0,0,0,2.961,4.22,5.832,5.832,0,0,0,1.1.866c1.991,1.106,1.911,3.494,1.1,4.992a12.572,12.572,0,0,1-2.813,3.025c-1.309,1.219-2.69,2.36-3.971,3.612a11.789,11.789,0,0,1-3.938,2.8,3.31,3.31,0,0,0-2.225,3.529c0,.213-.01.427-.016.64a10.013,10.013,0,0,1-2.545-1.871,2.629,2.629,0,0,0-.255-.85,7.742,7.742,0,0,1-.485-3.451c.17-1.326.439-2.64.692-3.955a7.143,7.143,0,0,0-.119-4.451A16.325,16.325,0,0,0,167,184.324a4.04,4.04,0,0,1-.345-5.14c.512-.817.922-1.681,1.368-2.53a2.577,2.577,0,0,0,.058-2.388,14.58,14.58,0,0,0-3.162-4.3,8.476,8.476,0,0,1-2.681-6.534c.03-.811.277-1.586.359-2.387l.126-.252c.079-.018.109-.064.079-.143a24.117,24.117,0,0,1,4.554-5.478,27.447,27.447,0,0,1,7.154-4.966,3.5,3.5,0,0,1,1.023-.347Z" transform="translate(-157.839 -147.175)" fill="#19363b"/><path d="M102.656,322.5c-.082.8-.329,1.575-.359,2.387a8.477,8.477,0,0,0,2.681,6.534,14.581,14.581,0,0,1,3.162,4.3,2.577,2.577,0,0,1-.058,2.388c-.446.849-.857,1.713-1.368,2.53a4.039,4.039,0,0,0,.345,5.14,16.251,16.251,0,0,1,2.127,3.479,7.138,7.138,0,0,1,.119,4.451c-.253,1.314-.521,2.629-.692,3.955a7.742,7.742,0,0,0,.485,3.451,2.646,2.646,0,0,1,.255.85c-.5-.094-.778-.508-1.116-.8a29.941,29.941,0,0,1-10.265-24.883,29.127,29.127,0,0,1,4.409-13.533c.069-.111.133-.219.274-.246Z" transform="translate(-97.895 -308.631)" fill="#85b7b9"/><path d="M894.1,307.572a.115.115,0,0,1-.133-.122Z" transform="translate(-839.587 -294.609)" fill="#95d0cf"/><path d="M844.486,321.266c-.094-.02-.175-.041-.258-.056-.433-.077-.978-.066-1.076-.6a1.469,1.469,0,0,1,.6-1.393,1.055,1.055,0,0,1,1.3-.024c.555.318,1.016,1.034.85,1.435-.266.641-.934.456-1.418.641Z" transform="translate(-792.222 -305.349)" fill="#85b7b9"/></g></g><g transform="translate(101.16 49.61)" clip-path="url(#b)"><g transform="translate(-5.158 -0.079)"><path d="M232.843,76.128a3.964,3.964,0,0,1-2.707-.167,14.8,14.8,0,0,1-5.811-4.3,4.546,4.546,0,0,0-2.393-1.493,9.74,9.74,0,0,0-3.532-.139,9.357,9.357,0,0,0-6.545,3.31,8.813,8.813,0,0,0-1.987,7.026c.322,2.467,1.247,3.8,3.841,4.19,1.062.159,2.122.35,3.169.587a3.727,3.727,0,0,1,3.034,3.219,10.811,10.811,0,0,1-.243,3.99,34.384,34.384,0,0,1-1.9,5.372,12.689,12.689,0,0,0-1.2,4.55,1.886,1.886,0,0,0,1.8,2.066,4.833,4.833,0,0,0,1.251-.025c.79-.094,1.5-.459,2.284-.57a6.774,6.774,0,0,1-2.207,1.326,28.765,28.765,0,0,1-8.993,2.84,31.783,31.783,0,0,1-17-2,24.856,24.856,0,0,1-4.367-2.241c.006-.213.016-.426.016-.64a3.306,3.306,0,0,1,2.3-3.529,12.177,12.177,0,0,0,4.067-2.8c1.323-1.252,2.749-2.393,4.1-3.612a12.765,12.765,0,0,0,2.905-3.025c.837-1.5.919-3.886-1.137-4.992a5.963,5.963,0,0,1-1.139-.867,16.62,16.62,0,0,1-3.058-4.219c-.618-1.055-1.137-2.206-2.475-2.609a16.962,16.962,0,0,0-1.791-.421,6.026,6.026,0,0,1-3.5-1.484,3.442,3.442,0,0,0-2.383-1.058c-.307-.024-.619,0-.925-.029-.96-.1-1.219-.383-1.217-1.308,0-.854.007-1.708.02-2.561a2.129,2.129,0,0,0-1.5-2.174c-.265-.1-.522-.229-.778-.352-.846-.407-1.021-.879-.6-1.722a3.972,3.972,0,0,1,4.108-2.4c1.868.111,2.291.607,2.487,2.02a1.811,1.811,0,0,0,1.633,1.6,8.288,8.288,0,0,0,3.95-.417,15.458,15.458,0,0,0,5.91-3.269,9.325,9.325,0,0,0,2.529-3c.414-.887.337-1.069-.608-1.388-.331-.112-.371-.25-.148-.5a3.286,3.286,0,0,1,4.737-.324,3.44,3.44,0,0,0,.9.634c.682.369,1.014.169,1.047-.606a2.908,2.908,0,0,0-.85-2.153c-1.381-1.5-3.17-1.707-5.085-1.469a4.258,4.258,0,0,0-2.161.709,2.086,2.086,0,0,1-1.135.464c-1.07.079-2.135-.223-2.378-1.253a1.871,1.871,0,0,1,1.651-2.084,3.709,3.709,0,0,1,1.888.112,9.016,9.016,0,0,0,3.66.279,1.632,1.632,0,0,1,1.482.45,3.012,3.012,0,0,0,2.7.709c.719-.1.9-.529.55-1.159a4.8,4.8,0,0,0-1.465-1.538,2.841,2.841,0,0,0-3.368-.046,2.309,2.309,0,0,1-2.686.212,13.182,13.182,0,0,0-4.248-1.33,1.228,1.228,0,0,0-1.353.549c-.115.185-.24.452-.48.346a9.888,9.888,0,0,0-2.347-.263,11,11,0,0,1,2.945-1.2,32.77,32.77,0,0,1,8.536-1.46,31.774,31.774,0,0,1,11.2,1.594,30.77,30.77,0,0,1,9.658,5.256,29.954,29.954,0,0,1,5.228,5.389.972.972,0,0,1,.26.506,1.437,1.437,0,0,1-.672-.247,8.881,8.881,0,0,0-2.476-.859,4.318,4.318,0,0,0-2.529,0c-.6.258-.678.7-.234,1.159a4.162,4.162,0,0,0,.944.579c.475.286.475.582-.007.861a2.445,2.445,0,0,1-.667.266c-.663.149-1.333.269-2,.4a2.447,2.447,0,0,0-1.98,1.308c-.42.922-.537.96-1.566.68a1.652,1.652,0,0,0-1.985.609,2.1,2.1,0,0,0-.221,2.3,1.658,1.658,0,0,0,1.776.726c.682-.064.967-.618,1.333-1.053a1.08,1.08,0,0,1,1.6-.357,4.82,4.82,0,0,1,1.853,1.687,5.221,5.221,0,0,0,2.185,1.8.9.9,0,0,0,.885.029c.288-.194.213-.522.16-.825a6.779,6.779,0,0,1-.212-1.644c.011-.146-.022-.324.167-.377.174-.049.3.079.381.2.185.264.361.535.526.811a16.426,16.426,0,0,0,3.586,4.551c.455.369.9.747,1.331,1.146.552.517.437.927-.3,1.146Z" transform="translate(-174.861 -48.458)" fill="#85b7b9"/><path d="M157.7,78.839a9.882,9.882,0,0,1,2.347.263c.24.105.366-.161.48-.346a1.23,1.23,0,0,1,1.353-.549,13.2,13.2,0,0,1,4.248,1.33,2.308,2.308,0,0,0,2.685-.212,2.842,2.842,0,0,1,3.369.046,4.789,4.789,0,0,1,1.464,1.538c.348.631.169,1.055-.55,1.159a3.014,3.014,0,0,1-2.7-.709,1.628,1.628,0,0,0-1.481-.45,9,9,0,0,1-3.66-.279,3.716,3.716,0,0,0-1.888-.112A1.87,1.87,0,0,0,161.72,82.6c.243,1.03,1.308,1.331,2.378,1.253a2.091,2.091,0,0,0,1.135-.464,4.26,4.26,0,0,1,2.161-.709c1.915-.238,3.7-.026,5.085,1.469a2.91,2.91,0,0,1,.85,2.153c-.034.775-.365.974-1.048.605a3.451,3.451,0,0,1-.9-.633,3.286,3.286,0,0,0-4.737.324c-.223.252-.183.391.148.5.945.319,1.022.5.608,1.388a9.325,9.325,0,0,1-2.529,3,15.464,15.464,0,0,1-5.911,3.27,8.306,8.306,0,0,1-3.95.417,1.811,1.811,0,0,1-1.633-1.6c-.2-1.413-.62-1.909-2.487-2.02a3.972,3.972,0,0,0-4.108,2.4c-.419.842-.245,1.314.6,1.722.257.124.513.249.778.353a2.129,2.129,0,0,1,1.5,2.174c-.013.854-.017,1.707-.02,2.561,0,.924.256,1.208,1.217,1.308.306.032.618.005.925.029a3.442,3.442,0,0,1,2.383,1.058,6.026,6.026,0,0,0,3.5,1.484,17.017,17.017,0,0,1,1.792.421c1.338.4,1.856,1.553,2.475,2.609A16.636,16.636,0,0,0,165,111.9a6,6,0,0,0,1.139.866c2.056,1.106,1.974,3.494,1.137,4.992a12.738,12.738,0,0,1-2.905,3.025c-1.352,1.219-2.778,2.36-4.1,3.612a12.18,12.18,0,0,1-4.067,2.8,3.3,3.3,0,0,0-2.3,3.529c0,.213-.01.427-.016.64a10.335,10.335,0,0,1-2.628-1.871,2.578,2.578,0,0,0-.263-.85,7.51,7.51,0,0,1-.5-3.451c.176-1.326.453-2.64.715-3.955a6.926,6.926,0,0,0-.123-4.451,16.214,16.214,0,0,0-2.2-3.479,3.942,3.942,0,0,1-.356-5.14c.528-.817.952-1.681,1.413-2.53a2.5,2.5,0,0,0,.059-2.388,14.62,14.62,0,0,0-3.265-4.3,8.343,8.343,0,0,1-2.769-6.534c.031-.811.287-1.586.372-2.387l.13-.252c.082-.018.113-.064.082-.143a24.3,24.3,0,0,1,4.7-5.478,28.379,28.379,0,0,1,7.389-4.966,3.7,3.7,0,0,1,1.056-.347Z" transform="translate(-139.424 -76.155)" fill="#19363b"/><path d="M82.445,251.48c-.085.8-.34,1.575-.372,2.387a8.345,8.345,0,0,0,2.769,6.534,14.62,14.62,0,0,1,3.265,4.3,2.506,2.506,0,0,1-.059,2.388c-.46.849-.885,1.713-1.413,2.53a3.942,3.942,0,0,0,.356,5.14,16.2,16.2,0,0,1,2.2,3.479,6.926,6.926,0,0,1,.123,4.451c-.262,1.314-.538,2.629-.715,3.955a7.528,7.528,0,0,0,.5,3.451,2.577,2.577,0,0,1,.263.85c-.512-.094-.8-.508-1.152-.8a29.829,29.829,0,0,1-9.1-13.173,29.128,29.128,0,0,1-1.5-11.71,28.5,28.5,0,0,1,4.553-13.533C82.233,251.615,82.3,251.507,82.445,251.48Z" transform="translate(-77.529 -237.611)" fill="#85b7b9"/><path d="M899.817,236.562a.117.117,0,0,1-.137-.122Z" transform="translate(-843.516 -223.598)" fill="#95d0cf"/><path d="M609.091,253.014a25.828,25.828,0,0,1-7.72,6.807c-.189.108-.393.191-.59.286-.781.111-1.494.476-2.284.57a4.834,4.834,0,0,1-1.251.025,1.886,1.886,0,0,1-1.8-2.066,12.691,12.691,0,0,1,1.2-4.55,34.387,34.387,0,0,0,1.9-5.371,10.812,10.812,0,0,0,.243-3.99,3.727,3.727,0,0,0-3.034-3.219c-1.047-.236-2.107-.428-3.169-.587-2.593-.389-3.518-1.724-3.841-4.19a8.813,8.813,0,0,1,1.987-7.026,9.357,9.357,0,0,1,6.545-3.31,9.739,9.739,0,0,1,3.532.139,4.546,4.546,0,0,1,2.393,1.493,14.8,14.8,0,0,0,5.811,4.3,3.964,3.964,0,0,0,2.707.167c.738-.219.853-.629.3-1.146-.426-.4-.876-.777-1.331-1.146a16.426,16.426,0,0,1-3.586-4.551c-.165-.276-.341-.547-.526-.811-.086-.123-.208-.25-.381-.2-.189.053-.156.231-.167.377a6.779,6.779,0,0,0,.213,1.644c.053.3.128.631-.16.825a.9.9,0,0,1-.885-.029,5.22,5.22,0,0,1-2.185-1.8,4.82,4.82,0,0,0-1.853-1.687,1.08,1.08,0,0,0-1.6.357c-.367.435-.651.989-1.333,1.053a1.658,1.658,0,0,1-1.776-.726,2.1,2.1,0,0,1,.221-2.3,1.652,1.652,0,0,1,1.985-.609c1.029.28,1.146.241,1.566-.68a2.447,2.447,0,0,1,1.98-1.308c.667-.133,1.337-.253,2-.4a2.445,2.445,0,0,0,.667-.266c.482-.279.482-.575.007-.861a4.161,4.161,0,0,1-.944-.579c-.445-.459-.365-.9.234-1.159a4.318,4.318,0,0,1,2.529,0,8.88,8.88,0,0,1,2.476.859,1.437,1.437,0,0,0,.672.247.871.871,0,0,1,.057.074.117.117,0,0,0,.137.122,20.768,20.768,0,0,1,3.182,5.579C617.388,233.963,616.051,243.881,609.091,253.014Z" transform="translate(-553.753 -204.824)" fill="#19363b"/></g></g><g transform="translate(97.356 65.086)"><path d="M99.009,298.837a31.772,31.772,0,0,1-1.645-9.346,26.494,26.494,0,0,1,2.61-12.034c.257-.538.774-1.058,1.045-1.091a27.391,27.391,0,0,1,2.964-.206c.233,0,.26.3.087.721a30.97,30.97,0,0,0-1.826,16.562,34.2,34.2,0,0,0,6.26,14.912c.267.363.633.587.844.538h0c.211-.05.219-.354.029-.729a30.629,30.629,0,0,1-2.571-7.988,36.29,36.29,0,0,1,3.815-22.472c.2-.382.522-.612.734-.549.87.262,1.727.568,2.58.883.26.1.293.587.084,1.039a36.793,36.793,0,0,0-3.078,10.414,41.536,41.536,0,0,0-.311,8.377,29.521,29.521,0,0,0,2.546,10.287c.155.339.134.621-.07.673l-6.608,1.677c-.2.052-.6-.167-.917-.527a32.789,32.789,0,0,1-6.573-11.142Z" transform="translate(-97.356 -276.16)" fill="#19363b"/><path d="M477.877,362.687q-.111-.431-.212-.869c-.067-.291-.167-.734-.288-1.355-.243-1.253-.432-2.52-.589-3.784-.095-.771-.171-1.551-.236-2.328-.066-.8-.119-1.607-.157-2.406-.079-1.644-.1-3.314-.079-4.962.012-.8.036-1.6.072-2.4q.051-1.126.136-2.25c.05-.656.095-1.132.126-1.447s.064-.624.1-.929c.051-.452.079-.673.137-1.105.017-.128.1-.223.191-.215,1.157.108,2.316.168,3.478.211a.206.206,0,0,1,.171.227,160.793,160.793,0,0,0,.941,23.366.169.169,0,0,0,.184.161h0a.181.181,0,0,0,.139-.177c.3-5.845,1.179-11.674,1.933-17.473A10.976,10.976,0,0,1,485.449,340a3.47,3.47,0,0,1,2.765-1.465,3.545,3.545,0,0,1,2.828,1.344,9.341,9.341,0,0,1,1.454,4.68,53.516,53.516,0,0,1-.939,14.755c-.143.635-.264,1.086-.345,1.383s-.167.592-.258.884c-.135.436-.206.646-.354,1.052a.224.224,0,0,1-.22.157,20.344,20.344,0,0,0-3.236-.216.135.135,0,0,1-.125-.175c.074-.441.109-.672.176-1.151.041-.3.106-.76.178-1.422a94.661,94.661,0,0,0,.5-12.1,8.967,8.967,0,0,0-.46-3.218,1.3,1.3,0,0,0-1.225-.928,1.27,1.27,0,0,0-1.113.744,7.27,7.27,0,0,0-.654,2.561c-.555,4.168-1.137,8.334-1.6,12.514-.069.635-.14,1.27-.194,1.906-.031.365-.081.9-.133,1.555a.178.178,0,0,1-.137.168c-1.339.226-2.668.512-3.987.829a.193.193,0,0,1-.21-.154c-.116-.4-.173-.6-.281-1.025Z" transform="translate(-450.421 -334.278)" fill="#19363b"/><path d="M748.185,337.456a.345.345,0,0,1,.08-.4,3.226,3.226,0,0,0,1.543-3.03,2.455,2.455,0,0,0-2.13-1.841c-.192-.027-.473-.51-.588-.926-.185-.667.073-1.509.866-1.547,1.806-.085,2.821,1.933,3.222,3.39a4.364,4.364,0,0,1-2.5,5.091c-.107.046-.232-.034-.286-.185-.081-.224-.122-.335-.205-.556Z" transform="translate(-702.651 -326.054)" fill="#19363b"/><path d="M775.9,345.943q.467.218,1.4.661a1.488,1.488,0,0,0,1.151.079,3.252,3.252,0,0,0,1.318-1.006,10.567,10.567,0,0,0,1.573-2.539,30.769,30.769,0,0,0,.849-23.162c-.084-.221-.258-.385-.387-.37-.577.068-.869.1-1.458.164q-.57.06-1.159.119c-.6.059-.906.087-1.518.141-.135.012-.3-.14-.368-.336,0-.007,0-.011-.006-.018l-.006-.018c-.069-.2-.019-.365.114-.378.405-.042.606-.064,1.006-.11.27-.031.674-.077,1.2-.142q2.754-.348,5.489-.8c.119-.02.307.151.418.385a34.182,34.182,0,0,1,1.87,5.148,33.612,33.612,0,0,1,.738,3.98,29.611,29.611,0,0,1,.04,6.2,25.234,25.234,0,0,1-.43,2.849,29.465,29.465,0,0,1-1.713,5.533,14.65,14.65,0,0,1-2.751,4.346,5.3,5.3,0,0,1-2.653,1.6,4.19,4.19,0,0,1-2.681-.482c-1.209-.606-2.407-1.234-3.629-1.814-.11-.052-.117-.223-.017-.385h0c.1-.162.27-.255.383-.206.491.218.736.331,1.224.559Z" transform="translate(-727.981 -315.353)" fill="#19363b"/><path d="M342.785,407.6c-1,7.409-.339,15.178,3.047,21.931.081.154.232.255.337.229l3-.761c.1-.027.139-.161.079-.3-2.792-6.526-3.1-14.068-2.342-21.031.026-.219-.075-.4-.212-.378a11.57,11.57,0,0,1-3.613-.021C342.946,407.246,342.816,407.394,342.785,407.6Z" transform="translate(-325.623 -398.31)" fill="#19363b"/><path d="M368.274,318.746c-.23,1.017-1.014,2.077-2.192,1.823a1.985,1.985,0,0,1-1.292-2.661,1.963,1.963,0,0,1,2.394-1.574c1.1.337,1.321,1.386,1.09,2.414Z" transform="translate(-346.426 -313.515)" fill="#19363b"/></g></g></svg>