<svg xmlns="http://www.w3.org/2000/svg" width="745.141" height="789.906" viewBox="0 0 745.141 789.906"><g transform="translate(-28.65 -6.45)"><path d="M751.1,201.953h-.008c-65.282,12-126.16,47.157-189.2,70.979h-.008c-33.259,12.565-67.1,21.986-102.522,23.173-47.847,1.621-94.738-12.044-140.659-25.572l-52.163-15.374q-30.74-9.051-61.471-18.11-14.973-4.417-29.961-8.826c-11.972-3.523-24.12-7.061-36.364-10.094-17.917-4.437-36.043-7.783-54.1-8.417-4.221-.16-8.449-.16-12.662.008C137.824,88.631,266.167,6.45,413.7,6.45S684.036,85.132,751.1,201.945Z" transform="translate(-8.562)" fill="#85b7b9"/><path d="M711.934,809.771A387.809,387.809,0,0,1,420.265,941.5c-129.634,0-244.456-63.445-315.075-160.992q36.77-3.153,73.507-6.78c41.925-4.1,83.834-8.521,125.735-12.943q16.5-1.733,33.01-3.482,53.006-5.6,106-11.193c47.839-5.055,97.627-9.861,143.363,3.547q7.354,2.143,14.563,4.959c26.327,10.287,49.564,27.024,74.558,40.256a188.143,188.143,0,0,0,34.551,14.475h.008c.49.152.971.289,1.468.433Z" transform="translate(-15.125 -145.144)" fill="#85b7b9"/><g transform="translate(28.65 220.721)"><path d="M259.1,604.663q-15.406.06-30.82.112c4.55,21.592,10.014,42.9,17.62,63.63q-34.543,3.31-69.1,6.483a447.106,447.106,0,0,1-27.723-69.952c-34.728.024-69.415.185-104.094,2.07A470.67,470.67,0,0,1,28.65,557.683c25.139-98.951,83.938-183.868,158.1-252.713l51.056,14.611c-21.52,80.207-25.58,164.274-15.831,246.583q16.14.59,32.288,1.164c1.228,12.485,2.865,24.938,4.83,37.327ZM67.959,561.246c24.128.12,48.224.939,72.336,1.862a537.266,537.266,0,0,1-4.718-154.741C105.15,455.715,81.4,506.458,67.959,561.238Z" transform="translate(-28.65 -279.711)" fill="#19363b"/><path d="M478.281,372.819c31.558,3.539,66.43,7.679,91.424,29.319,33.3,28.822,39.927,77.19,37.135,117.7-5.424,78.747-56.52,140.755-138.011,149.469-29.424,3.145-58.318-2.134-79.18-24.746-30.162-32.681-36.437-82.614-36.7-124.395-.273-42.158,4.566-96.167,37.07-128.182,23.831-23.478,57.267-22.643,88.263-19.169Zm1.284,20.742C464.512,392.029,458.63,410.6,455.5,421.95c-9.332,33.821-9.268,71.068-9.982,105.691C445.2,543.32,435.9,655.221,471.3,651.9c13.681-1.284,21.584-16.794,26.439-28.019,12.83-29.7,16.1-63.926,17.58-95.468,1.581-33.58,1.629-70.434-9.227-103.139-4.14-12.461-11.378-30.17-26.519-31.71Z" transform="translate(-92.732 -292.757)" fill="#19363b"/><path d="M883.515,626.141c-9.877-1.549-19.667-3.619-29.359-6.058a417.578,417.578,0,0,1-48.208,76.436c-20.766-9.765-40.352-21.633-60.557-32.481a346.339,346.339,0,0,0,37.191-64.769c-32.537-8.425-64.432-11.763-98.012-11.659a332.932,332.932,0,0,0,9.982-36.445c60.725-74.687,102.385-164.233,103.9-261.676,15.984-5.97,32.031-11.37,48.456-16,47.766,93.583,56.3,199.771,25.6,300.15,10.255,1.749,20.557,3.234,30.9,4.333a471.617,471.617,0,0,1-19.883,48.167ZM730.346,553.508a468.337,468.337,0,0,1,67.481,5.946c13.5-50.149,16.81-101.013,10.72-152.559-17.083,53.961-43.072,102.281-78.2,146.613Z" transform="translate(-158.266 -273.49)" fill="#19363b"/></g><path d="M321.3,764.812q16.5-1.733,33.01-3.482c-12.389,10.937-24.9,21.753-36.766,33.283-15.566,15.117-32.256,29.448-52.6,37.095-22.868,8.594-29.648,25.067-29.713,46.836,0,2.824.016,7.462-.056,10.287-12.983-7.968-25.059-15.422-35.345-24.032a50.158,50.158,0,0,0-2.2-13.881c-5.015-14.86-8.5-30.154-6.475-45.784,1.188-9.163,2.72-18.278,4.405-27.378C237.486,773.655,279.395,769.233,321.3,764.812Z" transform="translate(-31.997 -149.171)" fill="#19363b"/><path d="M316.04,97.16c3.137,13.681,16.922,17.669,30.756,16.626a26.632,26.632,0,0,0,14.684-6.162c8.016-6.387,18.054-8.136,27.947-9.412,24.77-3.161,47.895-.345,65.772,19.5,7.278,8.1,11.458,17.5,10.993,28.565-.441,10.295-4.718,12.935-13.552,8.032-4.188-2.319-8.545-4.919-11.683-8.4-14.066-15.663-43.666-16.088-61.263,4.3-2.889,3.338-2.367,5.183,1.91,6.66,12.22,4.229,13.215,6.652,7.863,18.423-7.342,16.136-19.731,28.3-32.705,39.831-22.339,19.843-47.574,34.936-76.444,43.4-3.547,1.043-7.093,2.046-10.664,2.961q-30.74-9.051-61.471-18.11c-.024-.16-.048-.329-.072-.5-2.544-18.752-8.016-25.34-32.168-26.808-13.7-.834-24.954,2.078-34.086,8.385-17.917-4.437-36.043-7.783-54.1-8.417,1.163-6.8-.449-14.772.257-21.64.554-1.115,3.041-4.8,3.595-5.914,1.059-.249.4,1.051,0,0,15.968-27.787,39.165-51.514,62.33-73.258A366.955,366.955,0,0,1,250.2,50.316c4.389-2.046,8.995-2.5,13.857-3.137h-.016c10.006,1.95,20.509-.947,30.346,3.5,3.105,1.4,4.734-2.134,6.21-4.59,4.028-6.652,9.861-8.3,17.5-7.286A167.409,167.409,0,0,1,373.05,56.454c12.477,6.443,23.406,6.042,34.736-2.816,12.678-9.91,30.515-9.027,43.57.618,7.631,5.649,14.411,12,18.936,20.421,4.493,8.369,2.19,14-7.109,15.382-12.83,1.91-25.187.337-34.864-9.412-5.488-5.528-11.217-6.909-19.153-5.962-15.863,1.87-31.807,1.1-47.333-3.707-7.952-2.455-16.1-3.338-24.425-1.484-14.547,3.25-24.16,15.446-21.352,27.658Z" transform="translate(-11.681 -6.338)" fill="#19363b"/><path d="M786.9,797.887a191.977,191.977,0,0,0,35.137,14.026c-23.55,26.984-53.335,52.966-84.821,71.437-2.439,1.42-1.051,1.316-3.595,2.568-10.11,1.477-21.641,5.063-31.855,6.307a60.8,60.8,0,0,1-16.176.337c-15.47-2.223-23.157-11.554-23.229-27.321-.1-21.4,8.313-40.625,15.574-60.155,6.516-17.5,13.424-35.482,18.969-53.295q7.354,2.142,14.563,4.959c26.326,10.287,50.454,27.915,75.441,41.139Z" transform="translate(-125.226 -147.286)" fill="#19363b"/><path d="M676.842,304.96c-5.248-10.182-3.867-20.982,2.865-30.451,6.355-8.9,14.491-11.161,25.677-8.048,13.3,3.7,14.82,3.177,20.252-8.995,4.967-11.161,14.66-15.053,25.612-17.292,8.626-1.757,17.292-3.346,25.861-5.32a31.351,31.351,0,0,0,8.634-3.522c6.227-3.691,6.227-7.6.088-11.378-4.092-2.52-8.77-4.02-12.212-7.655-5.753-6.066-4.726-11.9,3.025-15.318,10.864-4.8,21.825-1.926,32.705-.048,11.322,1.95,21.849,6.186,32.032,11.362,2.76,1.4,5.344,3.338,8.682,3.266.265.321.514.642.746.979a1.524,1.524,0,0,0,1.773,1.6,246.863,246.863,0,0,1,17.4,24.922c-65.283,12-126.16,47.156-189.2,70.98,0,0,0-.008-.008,0a17.407,17.407,0,0,1-3.924-5.1Z" transform="translate(-127.456 -37.131)" fill="#19363b"/></g></svg>