<svg xmlns="http://www.w3.org/2000/svg" xmlns:xlink="http://www.w3.org/1999/xlink" width="86" height="90.294" viewBox="0 0 86 90.294"><defs><clipPath id="a"><path d="M238.56,726.141c6.234,1.478,11.585,5.374,17.555,7.591a44.314,44.314,0,0,1-34.449,16.179,43.322,43.322,0,0,1-33.276-14.8l27.389-6.952C223.236,726.266,231.071,724.366,238.56,726.141Z" transform="translate(-188.39 -725.433)" fill="none"/></clipPath><clipPath id="b"><path d="M153.041,68.841a44.6,44.6,0,0,1,75.729,3.808,154.365,154.365,0,0,1-28.431,2.82c-10.67.01-16.716.015-24.447-2.586-4.677-1.573-7.411-3.239-12.666-4.024a35.514,35.514,0,0,0-10.186-.019Z" transform="translate(-153.04 -49.61)" fill="none"/></clipPath></defs><g transform="translate(-97.356 -49.61)"><g transform="translate(106.222 115.426)" clip-path="url(#a)"><g transform="translate(-8.813 -59.012)"><path d="M254.146,198.289a9.308,9.308,0,0,1-3.045,1.891,38.814,38.814,0,0,1-12.414,4.048,42.6,42.6,0,0,1-23.467-2.854,33.9,33.9,0,0,1-6.027-3.2c.008-.3.021-.609.022-.913.007-2.338.731-4.108,3.172-5.031A16.81,16.81,0,0,0,218,188.25c1.826-1.785,3.8-3.411,5.661-5.15,1.435-1.336,3.043-2.526,4.01-4.312,1.155-2.136,1.269-5.539-1.569-7.116a8.319,8.319,0,0,1-1.572-1.235,23.732,23.732,0,0,1-4.222-6.016c-.853-1.5-1.57-3.145-3.416-3.719a22.861,22.861,0,0,0-2.473-.6c-1.777-.342-3.565-.722-4.836-2.115a4.686,4.686,0,0,0-3.29-1.509c-.424-.034-.854,0-1.277-.042-1.326-.142-1.684-.546-1.68-1.864,0-1.217.01-2.434.027-3.651a3.031,3.031,0,0,0-2.074-3.1c-.366-.148-.721-.327-1.074-.5a1.554,1.554,0,0,1-.83-2.454,5.461,5.461,0,0,1,5.671-3.421c2.579.158,3.161.866,3.434,2.88a2.54,2.54,0,0,0,2.254,2.276,11.122,11.122,0,0,0,5.452-.6,21.159,21.159,0,0,0,8.158-4.662,13.182,13.182,0,0,0,3.49-4.279c.572-1.264.465-1.524-.839-1.979-.456-.159-.512-.356-.2-.716a4.438,4.438,0,0,1,6.539-.462,4.74,4.74,0,0,0,1.247.9c.943.526,1.4.242,1.446-.863a4.219,4.219,0,0,0-1.173-3.069c-1.907-2.132-4.377-2.435-7.019-2.095a5.748,5.748,0,0,0-2.983,1.011,2.825,2.825,0,0,1-1.568.661c-1.476.111-2.948-.318-3.282-1.786a2.652,2.652,0,0,1,2.279-2.971,4.973,4.973,0,0,1,2.606.16,12.081,12.081,0,0,0,5.051.4,2.206,2.206,0,0,1,2.045.641,4.065,4.065,0,0,0,3.721,1.011c.992-.148,1.239-.754.759-1.653a6.737,6.737,0,0,0-2.021-2.193A3.82,3.82,0,0,0,229.8,124a3.106,3.106,0,0,1-3.707.3,17.784,17.784,0,0,0-5.865-1.9,1.672,1.672,0,0,0-1.868.783c-.158.263-.332.643-.663.493-1.051-.477-2.172-.167-3.239-.375a14.89,14.89,0,0,1,4.064-1.712,43.944,43.944,0,0,1,11.783-2.081,42.578,42.578,0,0,1,15.467,2.272,42.6,42.6,0,0,1,20.547,15.176,1.4,1.4,0,0,1,.359.722,1.954,1.954,0,0,1-.927-.352,11.968,11.968,0,0,0-3.417-1.226,5.781,5.781,0,0,0-3.491,0c-.827.369-.937,1-.323,1.653a5.775,5.775,0,0,0,1.3.825c.656.408.656.83-.009,1.227a3.242,3.242,0,0,1-.921.38c-.914.212-1.84.384-2.76.574a3.38,3.38,0,0,0-2.735,1.864c-.58,1.314-.74,1.369-2.161.97a2.241,2.241,0,0,0-2.74.869,3.068,3.068,0,0,0-.306,3.283,2.256,2.256,0,0,0,2.451,1.034c.942-.091,1.334-.879,1.842-1.5.722-.882,1.186-1.021,2.2-.508a6.741,6.741,0,0,1,2.557,2.405,7.256,7.256,0,0,0,3.016,2.559,1.211,1.211,0,0,0,1.221.041c.4-.277.293-.744.22-1.177a9.889,9.889,0,0,1-.292-2.342c.015-.208-.03-.463.231-.538.24-.069.407.112.526.287.256.376.5.763.727,1.156a23.323,23.323,0,0,0,4.949,6.488c.628.526,1.249,1.064,1.838,1.634.762.738.6,1.322-.417,1.635a5.316,5.316,0,0,1-3.736-.238,20.5,20.5,0,0,1-8.022-6.134,6.245,6.245,0,0,0-3.3-2.128,13.028,13.028,0,0,0-4.875-.2,12.874,12.874,0,0,0-11.777,14.735c.445,3.517,1.722,5.42,5.3,5.974,1.467.227,2.929.5,4.374.837a5.246,5.246,0,0,1,4.189,4.589,15.91,15.91,0,0,1-.336,5.689,50.2,50.2,0,0,1-2.629,7.658c-.774,2.105-1.674,4.178-1.662,6.486a2.661,2.661,0,0,0,2.479,2.946,6.454,6.454,0,0,0,1.726-.036c1.09-.135,2.074-.654,3.153-.814Z" transform="translate(-189.229 -119.478)" fill="#85b7b9"/><path d="M609.556,349.766c-1.079.159-2.063.679-3.153.814a6.493,6.493,0,0,1-1.726.036,2.661,2.661,0,0,1-2.479-2.946c-.011-2.308.888-4.38,1.662-6.486a50.189,50.189,0,0,0,2.629-7.658,15.954,15.954,0,0,0,.336-5.689,5.246,5.246,0,0,0-4.189-4.589c-1.444-.337-2.908-.609-4.374-.837-3.579-.554-4.857-2.458-5.3-5.974A12.874,12.874,0,0,1,604.739,301.7a13.027,13.027,0,0,1,4.875.2,6.25,6.25,0,0,1,3.3,2.128,20.5,20.5,0,0,0,8.022,6.134,5.315,5.315,0,0,0,3.736.238c1.021-.313,1.178-.9.417-1.635-.588-.57-1.21-1.107-1.838-1.634a23.322,23.322,0,0,1-4.949-6.488c-.228-.393-.47-.78-.727-1.156-.119-.174-.286-.356-.526-.287-.261.076-.216.329-.231.538a9.933,9.933,0,0,0,.292,2.342c.074.432.177.9-.22,1.177a1.21,1.21,0,0,1-1.221-.041,7.255,7.255,0,0,1-3.016-2.559,6.742,6.742,0,0,0-2.557-2.405c-1.02-.512-1.483-.374-2.2.508-.507.62-.9,1.41-1.842,1.5a2.256,2.256,0,0,1-2.451-1.034,3.068,3.068,0,0,1,.306-3.283,2.24,2.24,0,0,1,2.74-.869c1.42.4,1.581.344,2.161-.97a3.376,3.376,0,0,1,2.735-1.864c.92-.19,1.844-.361,2.76-.574a3.242,3.242,0,0,0,.921-.38c.665-.4.665-.82.009-1.227a5.728,5.728,0,0,1-1.3-.825c-.614-.654-.5-1.284.323-1.653a5.78,5.78,0,0,1,3.491,0,11.969,11.969,0,0,1,3.417,1.226,1.933,1.933,0,0,0,.927.352c.028.034.055.069.08.106a.163.163,0,0,0,.19.173,29.921,29.921,0,0,1,4.392,7.954c5.729,15.107,3.885,29.245-5.723,42.265a36.043,36.043,0,0,1-10.656,9.7c-.26.154-.542.273-.813.408Zm9.591-56.12c.69-.264,1.643,0,2.022-.914.237-.572-.42-1.593-1.211-2.046a1.5,1.5,0,0,0-1.852.034,2.094,2.094,0,0,0-.859,1.986c.138.766.917.751,1.534.861.118.021.235.051.368.08Z" transform="translate(-544.639 -270.955)" fill="#19363b"/><path d="M181.2,150.136c1.067.208,2.188-.1,3.239.375.331.15.505-.23.663-.493a1.675,1.675,0,0,1,1.868-.783,17.807,17.807,0,0,1,5.865,1.9,3.106,3.106,0,0,0,3.707-.3,3.822,3.822,0,0,1,4.649.066,6.738,6.738,0,0,1,2.021,2.193c.48.9.234,1.5-.759,1.653a4.067,4.067,0,0,1-3.721-1.011,2.2,2.2,0,0,0-2.045-.641,12.049,12.049,0,0,1-5.051-.4,4.973,4.973,0,0,0-2.606-.16,2.652,2.652,0,0,0-2.279,2.971c.334,1.469,1.806,1.9,3.282,1.786a2.839,2.839,0,0,0,1.568-.661,5.754,5.754,0,0,1,2.983-1.011c2.643-.34,5.112-.037,7.019,2.095a4.219,4.219,0,0,1,1.173,3.069c-.047,1.105-.5,1.389-1.446.863a4.753,4.753,0,0,1-1.247-.9,4.438,4.438,0,0,0-6.539.462c-.309.359-.252.557.2.716,1.3.455,1.41.715.839,1.979a13.206,13.206,0,0,1-3.49,4.279,21.166,21.166,0,0,1-8.158,4.662,11.122,11.122,0,0,1-5.452.6,2.54,2.54,0,0,1-2.254-2.276c-.272-2.014-.855-2.722-3.434-2.88a5.461,5.461,0,0,0-5.671,3.421,1.555,1.555,0,0,0,.83,2.454c.354.176.708.355,1.074.5a3.031,3.031,0,0,1,2.074,3.1c-.018,1.217-.023,2.434-.027,3.651,0,1.318.354,1.722,1.68,1.864.422.046.853.008,1.277.042a4.683,4.683,0,0,1,3.29,1.509c1.271,1.394,3.059,1.772,4.836,2.115a22.808,22.808,0,0,1,2.473.6c1.846.575,2.562,2.215,3.416,3.719a23.725,23.725,0,0,0,4.222,6.016,8.312,8.312,0,0,0,1.572,1.235c2.838,1.577,2.724,4.98,1.569,7.116-.967,1.787-2.576,2.976-4.01,4.312-1.866,1.738-3.835,3.365-5.661,5.15a16.807,16.807,0,0,1-5.613,3.985c-2.441.923-3.164,2.693-3.172,5.031,0,.3-.015.609-.022.913a14.275,14.275,0,0,1-3.628-2.667,3.748,3.748,0,0,0-.363-1.211,11.037,11.037,0,0,1-.691-4.919c.242-1.89.625-3.764.987-5.638.411-2.132.772-4.239-.169-6.346a23.27,23.27,0,0,0-3.033-4.96c-1.93-2.436-2.088-4.777-.492-7.327.729-1.165,1.315-2.4,1.95-3.607a3.674,3.674,0,0,0,.083-3.4,20.786,20.786,0,0,0-4.507-6.131,12.083,12.083,0,0,1-3.822-9.315c.043-1.156.4-2.26.512-3.4l.179-.359c.113-.026.156-.092.113-.2a34.382,34.382,0,0,1,6.492-7.809,39.128,39.128,0,0,1,10.2-7.079,4.993,4.993,0,0,1,1.458-.495Z" transform="translate(-155.968 -146.311)" fill="#19363b"/><path d="M104.682,322.5c-.117,1.142-.469,2.246-.512,3.4a12.084,12.084,0,0,0,3.822,9.315,20.786,20.786,0,0,1,4.507,6.131,3.674,3.674,0,0,1-.083,3.4c-.636,1.211-1.221,2.442-1.95,3.607-1.6,2.551-1.438,4.892.492,7.327a23.166,23.166,0,0,1,3.033,4.96c.943,2.105.58,4.214.169,6.346-.361,1.874-.743,3.747-.987,5.638a11.036,11.036,0,0,0,.691,4.919,3.774,3.774,0,0,1,.363,1.212c-.706-.134-1.109-.725-1.59-1.146a42.683,42.683,0,0,1-14.633-35.472,41.523,41.523,0,0,1,6.285-19.292c.1-.159.189-.313.391-.351Z" transform="translate(-97.895 -302.728)" fill="#85b7b9"/><path d="M894.16,307.623a.164.164,0,0,1-.19-.173Z" transform="translate(-816.443 -289.144)" fill="#95d0cf"/><path d="M845.063,322.24c-.133-.029-.249-.058-.368-.08-.617-.109-1.395-.094-1.534-.861a2.094,2.094,0,0,1,.859-1.986,1.5,1.5,0,0,1,1.852-.034c.791.453,1.448,1.474,1.212,2.046-.379.914-1.331.65-2.022.913Z" transform="translate(-770.556 -299.549)" fill="#85b7b9"/></g></g><g transform="translate(102.779 49.61)" clip-path="url(#b)"><g transform="translate(-7.354 -0.111)"><path d="M238.846,127.279a9.659,9.659,0,0,1-3.146,1.891,41,41,0,0,1-12.821,4.048,45.318,45.318,0,0,1-24.237-2.854,35.426,35.426,0,0,1-6.225-3.2c.008-.3.021-.609.022-.913.008-2.338.756-4.108,3.275-5.031a17.359,17.359,0,0,0,5.8-3.985c1.885-1.785,3.92-3.411,5.846-5.15,1.481-1.336,3.144-2.526,4.142-4.312,1.193-2.136,1.311-5.539-1.621-7.116a8.568,8.568,0,0,1-1.623-1.235,23.746,23.746,0,0,1-4.36-6.016c-.881-1.5-1.621-3.145-3.528-3.719a24.2,24.2,0,0,0-2.554-.6c-1.836-.342-3.682-.722-4.995-2.115a4.907,4.907,0,0,0-3.4-1.509c-.438-.034-.882,0-1.319-.042-1.369-.142-1.738-.546-1.734-1.864,0-1.217.01-2.434.028-3.651a3.035,3.035,0,0,0-2.142-3.1c-.378-.148-.744-.327-1.109-.5-1.207-.58-1.455-1.253-.857-2.454a5.662,5.662,0,0,1,5.857-3.421c2.663.158,3.265.866,3.546,2.88a2.582,2.582,0,0,0,2.328,2.276,11.84,11.84,0,0,0,5.631-.6,22.046,22.046,0,0,0,8.426-4.662,13.284,13.284,0,0,0,3.605-4.279c.59-1.264.48-1.524-.867-1.979-.471-.159-.529-.356-.21-.716,1.94-2.19,5.2-2.144,6.753-.462a4.889,4.889,0,0,0,1.287.9c.974.526,1.445.242,1.494-.863a4.149,4.149,0,0,0-1.212-3.069c-1.969-2.132-4.52-2.435-7.249-2.095a6.064,6.064,0,0,0-3.08,1.011,2.969,2.969,0,0,1-1.619.661c-1.525.111-3.044-.318-3.39-1.786-.309-1.312.751-2.622,2.354-2.971a5.3,5.3,0,0,1,2.692.16,12.87,12.87,0,0,0,5.217.4,2.323,2.323,0,0,1,2.111.641A4.294,4.294,0,0,0,219.8,56.9c1.025-.148,1.28-.754.784-1.653a6.828,6.828,0,0,0-2.087-2.193,4.049,4.049,0,0,0-4.8-.066,3.291,3.291,0,0,1-3.828.3,18.791,18.791,0,0,0-6.056-1.9,1.751,1.751,0,0,0-1.929.783c-.164.263-.343.643-.685.493-1.085-.477-2.243-.167-3.345-.375a15.663,15.663,0,0,1,4.2-1.712A46.73,46.73,0,0,1,214.221,48.5a45.3,45.3,0,0,1,15.973,2.272,43.843,43.843,0,0,1,13.767,7.494,42.634,42.634,0,0,1,7.453,7.682,1.378,1.378,0,0,1,.371.722,2.057,2.057,0,0,1-.957-.352,12.626,12.626,0,0,0-3.529-1.226,6.155,6.155,0,0,0-3.605,0c-.854.369-.967,1-.333,1.653a6,6,0,0,0,1.346.825c.678.408.678.83-.01,1.227a3.425,3.425,0,0,1-.951.38c-.945.212-1.9.384-2.85.574a3.492,3.492,0,0,0-2.824,1.864c-.6,1.314-.764,1.369-2.231.97a2.355,2.355,0,0,0-2.83.869,2.988,2.988,0,0,0-.316,3.283,2.361,2.361,0,0,0,2.531,1.034c.973-.091,1.378-.879,1.9-1.5a1.539,1.539,0,0,1,2.278-.508,6.871,6.871,0,0,1,2.641,2.405,7.437,7.437,0,0,0,3.115,2.559,1.286,1.286,0,0,0,1.261.041c.41-.277.3-.744.227-1.177a9.607,9.607,0,0,1-.3-2.342c.015-.208-.031-.463.239-.538.247-.069.42.112.542.287.264.376.514.763.75,1.156a23.417,23.417,0,0,0,5.112,6.488c.649.526,1.29,1.064,1.9,1.634.787.738.623,1.322-.43,1.635a5.657,5.657,0,0,1-3.858-.238,21.114,21.114,0,0,1-8.286-6.134,6.475,6.475,0,0,0-3.41-2.128,13.89,13.89,0,0,0-5.036-.2,13.334,13.334,0,0,0-9.33,4.718A12.562,12.562,0,0,0,221.7,93.953c.46,3.517,1.778,5.42,5.475,5.974,1.514.227,3.026.5,4.517.837a5.316,5.316,0,0,1,4.326,4.589,15.419,15.419,0,0,1-.347,5.689,49.111,49.111,0,0,1-2.715,7.658c-.8,2.106-1.729,4.178-1.717,6.486a2.689,2.689,0,0,0,2.561,2.946,6.883,6.883,0,0,0,1.782-.036c1.126-.135,2.142-.654,3.257-.814Z" transform="translate(-171.804 -48.468)" fill="#85b7b9"/><path d="M605.926,278.756c-1.114.159-2.131.679-3.257.814a6.925,6.925,0,0,1-1.782.036,2.69,2.69,0,0,1-2.561-2.946c-.012-2.308.917-4.38,1.717-6.486a49.01,49.01,0,0,0,2.715-7.658,15.459,15.459,0,0,0,.347-5.689,5.313,5.313,0,0,0-4.326-4.589c-1.492-.337-3-.609-4.517-.837-3.7-.554-5.015-2.458-5.475-5.974a12.564,12.564,0,0,1,2.833-10.016,13.337,13.337,0,0,1,9.33-4.718,13.891,13.891,0,0,1,5.036.2,6.478,6.478,0,0,1,3.41,2.128,21.113,21.113,0,0,0,8.286,6.134,5.657,5.657,0,0,0,3.859.238c1.054-.313,1.217-.9.43-1.635-.608-.57-1.248-1.107-1.9-1.634a23.416,23.416,0,0,1-5.112-6.488c-.236-.393-.486-.78-.75-1.156-.123-.174-.3-.356-.542-.287-.27.076-.224.329-.239.538a9.6,9.6,0,0,0,.3,2.342c.076.432.183.9-.227,1.177a1.286,1.286,0,0,1-1.261-.041,7.443,7.443,0,0,1-3.115-2.559,6.871,6.871,0,0,0-2.641-2.405,1.539,1.539,0,0,0-2.278.508c-.524.62-.928,1.41-1.9,1.5a2.36,2.36,0,0,1-2.531-1.034,2.988,2.988,0,0,1,.315-3.283,2.354,2.354,0,0,1,2.83-.869c1.467.4,1.632.344,2.231-.97a3.49,3.49,0,0,1,2.824-1.864c.951-.19,1.9-.361,2.85-.574a3.424,3.424,0,0,0,.951-.38c.688-.4.687-.82.01-1.227a5.934,5.934,0,0,1-1.346-.825c-.634-.654-.521-1.284.333-1.653a6.155,6.155,0,0,1,3.605,0,12.616,12.616,0,0,1,3.529,1.226,2.037,2.037,0,0,0,.957.352,1.227,1.227,0,0,1,.082.106.167.167,0,0,0,.2.173,29.675,29.675,0,0,1,4.536,7.954c5.916,15.107,4.012,29.245-5.91,42.265a36.8,36.8,0,0,1-11.006,9.7c-.269.154-.56.273-.841.408Zm9.905-56.12c.713-.264,1.7,0,2.088-.913.244-.572-.434-1.593-1.251-2.046a1.6,1.6,0,0,0-1.914.034,2.067,2.067,0,0,0-.887,1.986c.143.765.947.751,1.583.861.122.021.242.051.38.08Z" transform="translate(-538.884 -199.945)" fill="#19363b"/><path d="M163.545,79.116c1.1.208,2.26-.1,3.345.375.342.15.522-.23.685-.493a1.753,1.753,0,0,1,1.929-.783,18.814,18.814,0,0,1,6.056,1.9,3.291,3.291,0,0,0,3.828-.3,4.052,4.052,0,0,1,4.8.066,6.828,6.828,0,0,1,2.087,2.193c.5.9.242,1.5-.784,1.653a4.3,4.3,0,0,1-3.843-1.011,2.321,2.321,0,0,0-2.111-.641,12.836,12.836,0,0,1-5.217-.4,5.3,5.3,0,0,0-2.692-.16c-1.6.35-2.663,1.659-2.354,2.971.346,1.469,1.865,1.9,3.39,1.786a2.981,2.981,0,0,0,1.619-.661,6.073,6.073,0,0,1,3.08-1.011c2.73-.34,5.279-.037,7.249,2.095a4.149,4.149,0,0,1,1.211,3.069c-.049,1.105-.52,1.389-1.494.863a4.92,4.92,0,0,1-1.287-.9c-1.55-1.683-4.813-1.729-6.753.462-.318.359-.261.557.21.716,1.347.455,1.457.715.867,1.979a13.294,13.294,0,0,1-3.605,4.279,22.046,22.046,0,0,1-8.426,4.662,11.84,11.84,0,0,1-5.631.6,2.581,2.581,0,0,1-2.328-2.276c-.28-2.014-.883-2.722-3.546-2.88a5.662,5.662,0,0,0-5.857,3.421c-.6,1.2-.35,1.874.857,2.454.366.176.731.355,1.109.5a3.035,3.035,0,0,1,2.143,3.1c-.019,1.217-.024,2.434-.028,3.651,0,1.318.365,1.722,1.734,1.864.436.046.88.008,1.319.042a4.907,4.907,0,0,1,3.4,1.509c1.313,1.394,3.159,1.772,4.995,2.115a24.261,24.261,0,0,1,2.554.6c1.907.575,2.646,2.215,3.528,3.719a23.715,23.715,0,0,0,4.36,6.016,8.558,8.558,0,0,0,1.623,1.235c2.931,1.577,2.813,4.98,1.621,7.116-1,1.787-2.661,2.976-4.142,4.312-1.927,1.738-3.961,3.365-5.846,5.15a17.364,17.364,0,0,1-5.8,3.985c-2.52.923-3.268,2.693-3.275,5.031,0,.3-.015.609-.022.913a14.733,14.733,0,0,1-3.746-2.667,3.674,3.674,0,0,0-.375-1.211,10.706,10.706,0,0,1-.714-4.919c.25-1.89.646-3.764,1.019-5.638.425-2.132.8-4.239-.175-6.346a23.114,23.114,0,0,0-3.133-4.96c-1.994-2.436-2.157-4.777-.507-7.327.753-1.165,1.358-2.4,2.014-3.607a3.57,3.57,0,0,0,.085-3.4,20.842,20.842,0,0,0-4.655-6.131,11.894,11.894,0,0,1-3.948-9.315c.045-1.156.409-2.26.53-3.4l.185-.359c.117-.026.161-.092.117-.2a34.636,34.636,0,0,1,6.705-7.809,40.456,40.456,0,0,1,10.533-7.079,5.278,5.278,0,0,1,1.506-.495Z" transform="translate(-137.492 -75.292)" fill="#19363b"/><path d="M84.537,251.48c-.121,1.142-.485,2.246-.53,3.4a11.9,11.9,0,0,0,3.948,9.315,20.842,20.842,0,0,1,4.655,6.131,3.573,3.573,0,0,1-.085,3.4c-.656,1.21-1.261,2.442-2.014,3.607-1.649,2.551-1.486,4.892.507,7.327a23.09,23.09,0,0,1,3.133,4.96c.973,2.105.6,4.214.175,6.346-.373,1.874-.767,3.747-1.019,5.638a10.732,10.732,0,0,0,.714,4.919,3.675,3.675,0,0,1,.375,1.211c-.729-.134-1.145-.725-1.642-1.146a42.523,42.523,0,0,1-12.974-18.779,41.525,41.525,0,0,1-2.139-16.693,40.63,40.63,0,0,1,6.491-19.292C84.235,251.672,84.329,251.518,84.537,251.48Z" transform="translate(-77.529 -231.709)" fill="#85b7b9"/><path d="M899.876,236.613a.167.167,0,0,1-.2-.173Z" transform="translate(-819.613 -218.134)" fill="#95d0cf"/><path d="M849.175,251.22c-.137-.029-.258-.058-.38-.08-.638-.109-1.44-.094-1.583-.861a2.065,2.065,0,0,1,.887-1.986,1.6,1.6,0,0,1,1.914-.034c.817.453,1.5,1.474,1.251,2.046-.391.914-1.375.65-2.088.913Z" transform="translate(-772.227 -228.53)" fill="#19363b"/></g></g><g transform="translate(97.356 71.673)"><path d="M99.712,308.487a45.294,45.294,0,0,1-2.345-13.323,37.77,37.77,0,0,1,3.72-17.156c.366-.766,1.1-1.509,1.49-1.555a39.058,39.058,0,0,1,4.226-.293c.332,0,.371.431.125,1.028a44.151,44.151,0,0,0-2.6,23.61,48.759,48.759,0,0,0,8.925,21.259c.381.518.9.838,1.2.766h0c.3-.071.312-.5.042-1.039a43.665,43.665,0,0,1-3.665-11.387,51.735,51.735,0,0,1,5.439-32.035c.289-.544.744-.873,1.046-.782,1.241.374,2.462.809,3.677,1.259.37.136.418.838.12,1.481a52.452,52.452,0,0,0-4.387,14.847,59.213,59.213,0,0,0-.443,11.942,42.084,42.084,0,0,0,3.63,14.665c.221.483.191.885-.1.959l-9.42,2.391c-.29.074-.854-.238-1.307-.752a46.743,46.743,0,0,1-9.371-15.884Z" transform="translate(-97.356 -276.16)" fill="#19363b"/><path d="M478.545,372.964q-.158-.615-.3-1.239c-.1-.415-.239-1.047-.41-1.932-.347-1.786-.616-3.593-.839-5.394-.135-1.1-.244-2.211-.336-3.319-.094-1.142-.169-2.292-.224-3.43-.113-2.344-.146-4.724-.112-7.073.017-1.138.051-2.285.1-3.427q.073-1.605.194-3.208c.071-.936.135-1.614.18-2.063s.091-.89.14-1.324c.073-.644.113-.959.195-1.576.024-.182.146-.318.272-.307,1.65.154,3.3.24,4.958.3a.293.293,0,0,1,.243.324c-.175,11.085-.1,22.3,1.342,33.31a.241.241,0,0,0,.263.23h0a.258.258,0,0,0,.2-.252c.427-8.332,1.681-16.642,2.756-24.909.346-2.4.723-5.055,2.174-7.05a4.947,4.947,0,0,1,3.942-2.088,5.054,5.054,0,0,1,4.031,1.917,13.316,13.316,0,0,1,2.073,6.671,76.3,76.3,0,0,1-1.338,21.035c-.2.9-.376,1.548-.492,1.971s-.239.844-.368,1.26c-.193.621-.294.921-.5,1.5a.32.32,0,0,1-.314.224,29.006,29.006,0,0,0-4.613-.308.193.193,0,0,1-.178-.249c.105-.629.156-.958.25-1.641.058-.424.151-1.084.253-2.027a134.967,134.967,0,0,0,.718-17.244,12.784,12.784,0,0,0-.656-4.588,1.857,1.857,0,0,0-1.746-1.323,1.81,1.81,0,0,0-1.586,1.061,10.364,10.364,0,0,0-.933,3.651c-.792,5.942-1.621,11.881-2.285,17.839-.1.9-.2,1.81-.277,2.717-.044.52-.115,1.284-.19,2.218a.254.254,0,0,1-.2.24c-1.909.322-3.8.729-5.684,1.181a.275.275,0,0,1-.3-.219c-.166-.565-.246-.857-.4-1.461Z" transform="translate(-439.404 -332.464)" fill="#19363b"/><path d="M748.676,340.752a.492.492,0,0,1,.114-.567,4.6,4.6,0,0,0,2.2-4.32,3.5,3.5,0,0,0-3.037-2.625c-.274-.039-.674-.727-.839-1.32-.264-.952.1-2.151,1.235-2.2,2.575-.121,4.021,2.756,4.594,4.832a6.222,6.222,0,0,1-3.568,7.258c-.152.066-.33-.049-.407-.264-.115-.319-.173-.478-.292-.793Z" transform="translate(-683.763 -324.497)" fill="#19363b"/><path d="M776.609,357.738q.666.311,1.995.942a2.122,2.122,0,0,0,1.641.113,4.635,4.635,0,0,0,1.879-1.434,15.063,15.063,0,0,0,2.243-3.619,43.864,43.864,0,0,0,1.211-33.02c-.12-.315-.368-.549-.552-.528-.823.1-1.239.144-2.078.234q-.812.086-1.653.169c-.858.085-1.291.125-2.164.2-.193.017-.427-.2-.525-.479,0-.01,0-.016-.009-.025a.259.259,0,0,1-.009-.025c-.1-.279-.027-.52.163-.54.578-.06.864-.091,1.434-.157.385-.044.96-.11,1.718-.2q3.925-.5,7.825-1.138c.169-.028.438.215.6.548a48.715,48.715,0,0,1,2.667,7.339,47.923,47.923,0,0,1,1.052,5.674,42.215,42.215,0,0,1,.057,8.845,35.942,35.942,0,0,1-.613,4.062,42,42,0,0,1-2.442,7.887,20.882,20.882,0,0,1-3.922,6.2,7.557,7.557,0,0,1-3.782,2.277,5.973,5.973,0,0,1-3.822-.688c-1.724-.864-3.432-1.76-5.173-2.587-.157-.074-.167-.318-.024-.549h0c.141-.231.385-.364.546-.293.7.311,1.049.471,1.744.8Z" transform="translate(-708.302 -314.13)" fill="#19363b"/><path d="M342.966,407.747c-1.422,10.562-.483,21.637,4.343,31.264.115.22.33.364.48.326l4.273-1.085c.149-.038.2-.23.112-.431-3.98-9.3-4.423-20.055-3.338-29.982.037-.313-.107-.568-.3-.539a16.493,16.493,0,0,1-5.151-.03c-.187-.032-.373.178-.417.477Z" transform="translate(-318.5 -394.499)" fill="#19363b"/><path d="M369.8,319.807c-.327,1.45-1.446,2.961-3.125,2.6-1.793-.387-2.263-2.213-1.842-3.794a2.8,2.8,0,0,1,3.413-2.244c1.573.48,1.883,1.976,1.553,3.441Z" transform="translate(-338.654 -312.349)" fill="#19363b"/></g></g></svg>