<svg xmlns="http://www.w3.org/2000/svg" width="119.714" height="240" viewBox="0 0 119.714 240"><g transform="translate(-12.45 -44.179)"><path d="M214.35,306.29l-.09-.03v-.05h0l.08.08Z" transform="translate(-107.349 -139.355)" fill="#19363b"/><path d="M81.42,272.74a42.576,42.576,0,0,0-1.54,50.86A41.516,41.516,0,0,0,106.92,341c11.23,2.09,21.73-.21,32.17-6.7-7.61,12.2-29.36,21.07-48.49,17.18-24.79-5.02-42.4-25.64-43.18-50.84-.75-24,15.75-46.32,38.25-52.6,23.66-6.61,46.58,4.71,53.49,15.67-26.43-10.62-44.48-7.8-57.73,9.04Z" transform="translate(-20.286 -135.46)" fill="#19363b"/><path d="M139.58,316.81c-2.09,1.06-3.86-.56-5.7-1.03-5.2-1.32-10.82-5.72-15.24-3.93-4.17,1.68-6.53,7.89-9.68,12.1-1.05,1.4-2.09,2.82-4.04,5.45,0-6.35-.38-11.51.11-16.58.48-4.9-.94-7.4-5.96-8.47-5.05-1.08-9.89-3.11-16.02-5.13,6.91-2.28,12.61-4.4,18.45-6.01,2.88-.79,3.58-2.14,3.49-4.9-.19-5.96-.06-11.94-.06-19.27,4.25,5.79,7.97,10.39,11.13,15.34,1.82,2.85,3.57,3.08,6.44,1.99,4.38-1.67,8.87-3.01,13.36-4.37,1.24-.37,2.51-1.51,3.89-.38v.08h.02c-3.83,5.2-7.6,10.43-11.5,15.57a2.657,2.657,0,0,0-.02,3.82c3.92,5.13,7.72,10.34,11.57,15.52v.04c-.08.05-.16.1-.23.14Z" transform="translate(-48.257 -135.529)" fill="#19363b"/><path d="M167.46,275.7c.15.43.31.86.46,1.3a4.69,4.69,0,0,1,.15.73,2.338,2.338,0,0,0,.26.9,1.06,1.06,0,0,0,.46.48c-.5-1.24-.94-2.39-1.32-3.41Z" transform="translate(-82.857 -123.935)" fill="#19363b"/><path d="M131.04,205.4a5.252,5.252,0,0,1-1.939-5.02,18.741,18.741,0,0,0,.211-4.64c-.407-2.786,1.049-5.263,1.1-7.97.019-.8,1.138-1.957.323-2.365-.871-.435-1.807-1.236-3.142-.848-2.458.707-4.772-.838-7.239-.81-.838.009-.581-1.25-1.143-1.789-1.377-1.32-.763-1.915,1.007-1.957a7.708,7.708,0,0,0-.866-1.269c-1.274-1.208-2.023-2.407-1.335-4.35a3.9,3.9,0,0,0-4.57-4.973c-.955.159-1.634.365-.716,1.5a1.186,1.186,0,0,1-.627,1.981,38.953,38.953,0,0,0-3.774,1.6,1.988,1.988,0,0,1-2.36-.716c-.347-.431-1.133-1.367-.389-2.013,1.578-1.358,1.316-3.133,1.381-4.856-.937-.3-1.634.2-2.435.613-1.6.838-3.3,1.854-5.141,1.269-4.907-1.564-8.218-5.184-11.233-9.136a11.463,11.463,0,0,1-.7-1.419c-.716-1.5-1.311-2.866-1.784-4.032a.905.905,0,0,0,.262.089c.061-.641.108-1.255.192-1.873.384-2.763,1.208-5.287,3.99-6.588,1.789-.838,3.606-1.737,5.263-2.716,2.318-1.367,3.629-4.374,6.93-4.214.061,0,.169-.042.183-.084.571-2.365,2.711-3.09,4.256-4.5,1.377-1.26,2.365-3.137,3.812-4.654,2.093-2.2,1.873-6.026,4.725-7.984a.693.693,0,0,0,.145-.581c-.627-3.034,2.589-3.793,3.315-6.087-3.39-3.278-3.208-3.245-2.374-8.555.211-1.363-.908-2.964-.426-4.612.112-.37-.52-.258-.819-.365-1.541-.548-3.072-1.119-4.608-1.7-.787-.3-1.349-.74-.941-1.7.707-1.676-.4-1.723-1.367-1.264a2.433,2.433,0,0,1-3.128-.763,30.15,30.15,0,0,1-5.586-9.285c-1.124-3.1-.3-6.251,1.274-9.136.365-.66.815-1.667,1.489-1.587,1.9.229,3.109-1.344,4.757-1.527,1.878-.215,2.622-1.344,3.245-2.931a32,32,0,0,1,5.919-9.552c.726-.819,2.786-.74,2.224-2.205a14.806,14.806,0,0,0-1.25-3.428,4.355,4.355,0,0,1-.543-.871,3.68,3.68,0,0,0-3.048-1.812c-.857.07-1.138.44-1.69,1.185-1.6,2.191-3.769,4.158-6.537,4.523-2,.262-3.1.763-3.638,2.777-.595,2.243-4.233,3.54-6.279,2.426-1.634-.894-1.929-1.878-.787-3.343,1.2-1.536.585-2.505-.838-3.222A5.922,5.922,0,0,1,91.168,55.8c-.688-1.213-1.452-2.58.276-3.68a.792.792,0,0,0-.679-.857c-.52-.15-1.508.122-1.386-.721.14-.927,1.18-.7,1.878-.721.262-.009.529.356.791.548.047-.243.6-.4.3-.632-2-1.531-3.961-3.048-6.8-2.7-1.737.211-3.915.59-4.224-2.224a.517.517,0,0,0-.553-.5c-2.22.407-4.519-.918-6.766.684a9.375,9.375,0,0,1-4.673,1.48c-2.6.094-4.772,2.6-7.53,1.217-.084-.042-.384.183-.473.347-.791,1.5-2.238,1.882-3.709,2.308a4.411,4.411,0,0,0-2.529,1.981,11.673,11.673,0,0,1-3.47,3.47c-1.03.73-2.009,1.4-3.531.918A2.213,2.213,0,0,0,45.3,58.1c-.674,1.5-.318,2.36,1.011,3.02-1.92,2.22-4.776,1.545-7.024,2.618,1.5,1.48,1.648,3.835.122,4.5-2.585,1.129-4.5,3.512-7.515,3.849-1.138.126-1.011.951-.229,1.569a4.153,4.153,0,0,0,2.308.768c1.194.1,2.383.272,3.559.492.347.066.913.019.6.89-.885,2.491-.927,5.244-2.355,7.572-.3.487-.037.782.262,1.063.4.37.595,1.054.407,1.3C35.011,87.624,35.32,89.881,34.926,92c-.571,3.067-2.243,6.261,1.644,8.433.1.061.243.234.225.318-.707,2.543,1.653,5.17-.4,7.759a4.557,4.557,0,0,0-.356,4.57c.67,1.438,2.337,1.985,4.252,2.065-1.517,1.353-1.592,3.184-2.781,4.406-1.985,2.042-1.845,5.048-3.2,7.4-.169.3.183.9.3,1.363.342,1.278-.037,2.692.712,3.9-2.131.581-1.068,2.468-1.527,3.732a.374.374,0,0,1,.056.1q-.815.766-1.564,1.6c-.262.29-.529.581-.787.876l-1.068.759c.028-.037.061-.075.089-.112-2.369.759-4.018,2.613-6.134,3.245-2.449.73-2.571,2.472-2.894,4.345-.084.473-.375.9-.44,1.372-.2,1.47-.974,1.953-2.458,1.91-1.962-.061-3.746.37-3.657,2.987a1.113,1.113,0,0,1-.412.885c-2.093.89-1.25,2.856-1.667,4.359-.112.412.281.993-.412,1.2v4.959c2.575-.037,1.943,2.5,2.084,3.493a11.727,11.727,0,0,0,2.44,5.549,9.163,9.163,0,0,1,1.826,6.7c-.262,3.2.974,4.5,4.182,4.8a5.694,5.694,0,0,1,1.873.791c1.466.665,2.65,2,4.491,1.8.665-.075.857.613,1.138,1.058,1.639,2.543,3.226,5.113,4.889,7.637a4.433,4.433,0,0,1,.637,2.533,14.193,14.193,0,0,0,6.626,12.348c4.612,3.109,9.2,6.265,13.865,9.29a6.127,6.127,0,0,1,2.969,4.477c.763,8.129,3.292,15.865,5.029,23.764,2.6,11.87,5.465,23.68,8.223,35.508h.824a22.9,22.9,0,0,1,7.876-3.727c2.065-.478,2.927-2.543,3.929-4.214,1.615-2.711,3.737-5.038,5.521-7.623,1.836-2.646,3.184-5.259,2.95-8.766-.347-5.09-2.159-9.641-3.957-14.263-.782-2-.89-3.868.8-5.657,1.11-1.175,1.761-2.767,2.739-4.083,1.068-1.442,2.2-2.627,4.416-2.131,1.714.384,3.479-.089,4.093-2.168a3,3,0,0,1,1.054-1.47,1.906,1.906,0,0,0,.838-2.426c-.543-1.531.454-2.393,2.163-2.346a3.587,3.587,0,0,0,3.727-2.575c.73-2.168,2.468-3.278,4.242-4.2a46.17,46.17,0,0,1,8.784-3.877c4.116-1.138,7.722-3,9.445-7.281v-.824c-.379-.379-.735-.787-1.138-1.138Zm-50.3-154.58c-1.274-.052-1.789-1.086-1.859-2.215-.056-.876.908-1.639,1.363-1.306.937.7,2.533.014,3.044,1.381C82.876,50.056,82.042,50.866,80.745,50.815Zm4.7,103.147a1.183,1.183,0,0,1-.122-.421c-.169-.567-.3-.983-.393-1.232.033.089.07.187.108.281.178.473.384,1.011.618,1.6a.475.475,0,0,1-.215-.225Z" transform="translate(0 0)" fill="#19363b"/><path d="M168.79,279.11a1.014,1.014,0,0,1-.46-.48c-.09-.32-.18-.62-.26-.9-.36-1.21-.65-2.1-.84-2.63.07.19.15.4.23.6.38,1.01.82,2.16,1.32,3.41Z" transform="translate(-82.809 -123.759)" fill="#19363b"/><path d="M139.58,316.81c.07-.04.15-.09.23-.14h0C139.73,316.72,139.66,316.77,139.58,316.81Z" transform="translate(-67.662 -144.935)" fill="#19363b"/><path d="M139.75,281.72v-.08c.04.04.08.07.12.11a.24.24,0,0,1-.1-.02h-.02Z" transform="translate(-67.723 -126.296)" fill="#19363b"/><path d="M139.9,316.62a.575.575,0,0,1-.09.05v-.04l.07-.02h0Z" transform="translate(-67.747 -144.881)" fill="#19363b"/><path d="M214.35,306.29c-1.12-3.16.13-6.3.09-9.45-.05-4.29,1.66-5.86,5.48-4.38,4.1,1.59,8.79.86,12.55,4.27,2.51,2.28,3.33,2.97.5,5.09-3.5,2.62-7.2,5.01-9.68,8.78-1.52-.49-.47-1.65-.64-2.52-.58-3.03-2.68-4.04-5.2-2.25-1.18.83-2.22-.35-3.19.38l.09.08Z" transform="translate(-130.266 -136.717)" fill="#19363b"/><path d="M239.04,235.24c1.83-1.49,1.1-5.38,4.94-4.8,1.24.19.54-1.21.72-1.94.33-1.39.91-3.1,2.61-3.15,1.84-.05,1.32,2.02,1.89,2.8,2.66,3.62-.7,4-2.38,4.79C244.42,234.06,242.03,235.48,239.04,235.24Z" transform="translate(-135.946 -98.237)" fill="#19363b"/><path d="M238.03,236.76c-2.27,2.25-4.42,4.51-7.68,1.71-.45-.39-1.11-.72-.84-1.34a1.844,1.844,0,0,1,1.29-.95c2.41-.2,4.9-.91,7.23.58Z" transform="translate(-131.303 -102.701)" fill="#19363b"/><path d="M181.14,61.12a1.691,1.691,0,0,0-1.45-1.83c-1.11-.32-3.22.26-2.96-1.54.3-1.98,2.52-1.49,4.01-1.54.56-.02,1.13.76,1.69,1.17-1.7.81,1.56,3.34-1.31,3.74Z" transform="translate(-89.343)" fill="#19363b"/><path d="M58.85,241.63c-.94.67-1.92,2.48-2.91,1.55-1.01-.95.44-1.89,1.52-2.38l.38.1.4-.02c.2.25.41.5.62.75Z" transform="translate(-6.401 -105.093)" fill="#19363b"/><path d="M54.31,245.71a2.1,2.1,0,0,1-.88.39c-.63,0-1.05-.41-.75-1.04.11-.24.7-.38,1.06-.35C54.13,244.74,54.55,244.97,54.31,245.71Z" transform="translate(-5.891 -106.92)" fill="#19363b"/><path d="M170.27,282.45c-.63-.13-1.39-.13-1.32-1.09a.37.37,0,0,1,.27-.27c.96-.07.96.69,1.09,1.32l-.04.04Z" transform="translate(-83.662 -126.31)" fill="#19363b"/><path d="M142.41,266.31c.11.04.31.07.31.12a1.3,1.3,0,0,1-.11.37c-.11-.04-.31-.07-.31-.12A1.3,1.3,0,0,1,142.41,266.31Z" transform="translate(-69.161 -118.23)" fill="#19363b"/><path d="M58.23,240.88l-.4.02-.38-.1c.19-.23.4-.45.6-.68a.952.952,0,0,1,.18.76Z" transform="translate(-6.558 -104.349)" fill="#19363b"/><path d="M139.67,281c.02.19.04.37.07.56-.11-.16-.23-.31-.34-.47.09-.04.19-.06.27-.1Z" transform="translate(-67.595 -126.063)" fill="#19363b"/><path d="M139.87,281.75a.24.24,0,0,1-.1-.02h-.02v-.16c.04.06.09.12.13.19Z" transform="translate(-67.726 -126.278)" fill="#19363b"/><path d="M170.31,282.41c.12.08.23.15.35.23-.13-.06-.26-.12-.4-.18l.04-.04Z" transform="translate(-84.046 -126.735)" fill="#19363b"/><path d="M139.58,316.81c.07-.04.15-.09.23-.14h0c-.05.23-.1.47-.16.7-.11-.13-.23-.26-.34-.4C139.4,316.92,139.49,316.86,139.58,316.81Z" transform="translate(-67.589 -145.094)" fill="#19363b"/><path d="M139.89,316.62a.377.377,0,0,1-.08.05v-.04l.07-.02Z" transform="translate(-67.744 -144.881)" fill="#19363b"/><path d="M163.74,53.78c-.89,2.95-2.67,4.68-5.44,4.57-2.72-.11-3.82-2.32-3.97-4.73-.12-1.87,1.94-3.5,2.91-2.79C159.24,52.32,162.65,50.86,163.74,53.78Z" transform="translate(-78.326)" fill="#19363b"/></g></svg>