<svg xmlns="http://www.w3.org/2000/svg" width="140" height="134.556" viewBox="0 0 140 134.556"><path d="M169.745,215.05c-2.691-.75-3.956-3.746-7.076-3.808-1.5-.025-3.708-.558-3.28-3.485.267-1.836-.415-4.335-2.642-4.6-2.015-.236-2.555-1.333-3.212-2.71h-7.386a2.514,2.514,0,0,1-2.319,1.588c-2.536.2-5.079.353-7.628.738-4.465.682-8.837,1.234-12.737,3.715-1.86,1.178-3.677,2.691-3.7,4.812-.025,1.507,1.4,3.045,2.232,4.539a6.008,6.008,0,0,1-1.265,7.4c-1.606,1.532-3.262,3.125-2.152,5.835.819,1.984-.589,2.747-2.257,2.908a10.3,10.3,0,0,1-3.287-.279c-1.488-.36-3.138-1.24-4.186.372-1.023,1.569.881,2.251,1.625,3.212a4.63,4.63,0,0,1,.949,3.777c-.186.713-2.344,1.681-3.063,1.346-2.822-1.315-3.045,1.036-3.33,2.381a6.736,6.736,0,0,1-1.451,2.89,4.2,4.2,0,0,0-.484,5.017c.781,1.265.378,2.065-.415,2.6-1.091.726-2.288,2.636-3.622,1.507-4.329-3.653-7,1.718-10.617,1.674-.415-.006-.167.384-.006.657.614,1.048.18,1.712-.9,1.953-1.135.254-2.518,1.054-3.33-.279-.657-1.079-.868-.856-1.749-.248a11.991,11.991,0,0,0-5.426,12.576c.18,1.2-.167,1.953-1.3,1.836-2.7-.279-4.738,1.668-7.237,1.978-3.175,1.067-6.425.254-9.637.415a2.265,2.265,0,0,1-2.809.695c-1.867-.657-4.068-2.108-6.071-.85a7.613,7.613,0,0,1-5.3.788c-5.1-.571-9.389-3.547-14.263-5.017a2.586,2.586,0,0,0,.279,2.815c2.09,2.412,2.877,5.476,4.4,8.155a8.357,8.357,0,0,0,4.136,3.677c2.251,1.054,6.387,1,5.116,5.538-.149.533.2.893.509,1.327a2.64,2.64,0,0,1,.068,2.915c-2.015,2.76-.143,2.679,1.8,2.753,2.152.081,2.462,1,1.643,3-.893,2.17-2.208,1.538-3.963,1.631-3.739.2-6.511,3.082-9.73,4.769a1.1,1.1,0,0,0-.4.738,19.227,19.227,0,0,1-1.681,5.668c-.744,1.488.366,2.884.98,4.229a.784.784,0,0,0,1.191.465c5.532-2.623,11.51.571,17.128-1.29,2.828-.936,5.457,1.743,7.931,1.091,4.756-1.253,9.649-.217,14.362-1.581,2.443-.707,5.2,1.383,4.7,3.374-.676,2.66.794,2.648,2.524,3.07.527.124,1.712-.453,1.823.9.2,2.388.67,4.893,2.617,6.313,1.091.788,1.1,3.07,2.586,2.543,2.313-.812,3.56.174,4.446,1.922,1.656-1.017,1.2-3.4,3.237-3.473,1.724-.056,3.032-.509,3.231-2.487.043-.44.112-.614.732-.54,2.406.3,5.166-.192,7.15.837,1.916,1,2.6.136,3.8-.62,1.674-1.048,3.367-2.512,5.178-.118.589.775,1.42.564,2.22.161,2.319-1.172,2.853-3.318,1.662-6.449-.85-2.245-2.66-4.149-3.163-6.307-.341-1.482-.446-1.712-1.767-1.767a3.82,3.82,0,0,1-3.467-5.265c.98-2.245,1.054-3.467-1.947-3.392-1.873.043-2.927-1.47-3.454-3.014-.49-1.414-.2-2.567,1.2-3.932,1.339-1.315,3.094-2.567,3.69-4.936.62-2.493,2.989-2.326,4.508-.031.248.384.98.862,1.253.75,3.063-1.3,6.35-1.612,9.538-2.338a.7.7,0,0,0,.428-.409c.843-2.915,3.467-4.955,3.963-8.037.155-.974.912-1.333,1.712-1.55a10,10,0,0,0,6.865-7.814c.223-2.121.688-4.056,3.4-4.341a2.192,2.192,0,0,0,2.1-2.263,5.158,5.158,0,0,1,1.774-3.739c2.729-2.877,4.862-5.916,2.884-10.114-.36-.763.223-1.085.515-1.588,1.029-1.78,2.815-2.338,4.6-2.815,2.108-.564,1.643-2.4.726-2.834-2.208-1.054-4.242-2.512-6.3-3.46-2.381-1.091-4.4-2.691-4.248-4.471.186-2.127-1.588-4.372.18-6.344.918-1.029,1.823-1.65-.391-2.468-1.271-.471-2.809-1.91-2.71-3.578.105-1.743,2.127-1.668,3.33-2.115a7.442,7.442,0,0,1,3.925-.149c4.068.868,8.155,3.243,11.975-.657a1.56,1.56,0,0,1,1.184-.186c3.3.62,4.62-2.077,6.394-3.876C169.931,218.095,170.551,215.273,169.745,215.05Zm-52.593,18.4a.8.8,0,0,1,.54.26A.962.962,0,0,1,117.152,233.449Z" transform="translate(-30.11 -200.446)" fill="#19363b"/></svg>