<svg xmlns="http://www.w3.org/2000/svg" width="188.24" height="93.428" viewBox="0 0 188.24 93.428"><g transform="translate(-0.004 0)"><path d="M14.49,87.16Z" transform="translate(6.026 -39.924)" fill="#19363b"/><path d="M187.936,71.79c-.4-.307-.606-.768-1.213-.932a2.4,2.4,0,0,1-1.31-.981,3.243,3.243,0,0,1-.671-2.79c.168-.689.276-1.507-1.169-1.388-1.386.114-3.075-2.339-2.577-3.568a13.6,13.6,0,0,0,.655-3.261c.076-.515-.049-.818-.752-.639a.829.829,0,0,1-1.121-.773,7.48,7.48,0,0,0-1.407-3.727,1.019,1.019,0,0,1-.146-.659,3.008,3.008,0,0,0-.877-2.22c-.958-1.036-1.31-2.364-2.181-3.435a1.409,1.409,0,0,1-.1-1.913c.482-.575,1.11-.253,1.727-.129.763.154,1.413.129,1.25-.937a15.47,15.47,0,0,1-.022-2.4c0-.54.076-.986.855-.991.612,0,.368-.327.222-.615a4.046,4.046,0,0,0-4.265-2.354,17.923,17.923,0,0,1-2.127.015c-1.445-.064-3.367-1.08-3.513-1.943a4.323,4.323,0,0,0-1.342-2.508.974.974,0,0,1,.141-1.68,1.088,1.088,0,0,0,.487-1.576,8.336,8.336,0,0,1-1.1-3.306c-.011-.307-.373-.585-.731-.733-1.056-.436-1.6-1.635-2.961-1.64-.217,0-.471-.307-.644-.515-.509-.615-1.332-.937-1.84-1.467-.752-.778-1.83-.758-2.593-1.289a1.261,1.261,0,0,0-1.97.188,1.943,1.943,0,0,1-1.895.53,17.883,17.883,0,0,0-3.1-.377c-.8.04-1.407.753-2.1.639-1.64-.268-2.8,0-3.237,1.635-.027.089-.168.169-.271.223-2.923,1.467-5.613,3.3-8.747,4.421a7.825,7.825,0,0,1-6.452-.818,3.476,3.476,0,0,0-2.966-.535c-1.6.52-3.654-.248-4.839,1.432a.423.423,0,0,1-.341.109c-1.093-.307-2.084.228-3.123.307-2.041.159-3.416-.961-4.682-2.191-.7-.674-1.2-.679-1.537.188-.287.729-.747.575-1.083.159A3.281,3.281,0,0,0,110,26.289a6.09,6.09,0,0,1-4.422-2.632.837.837,0,0,0-1.283-.223,4.643,4.643,0,0,0-1.223.966c-.547.768-1.093.644-1.77.218-1.559-.981-3.042-2.037-3.529-3.821-.33-1.2-.98-1.462-2.209-.966a3.207,3.207,0,0,1-2.9-.094c-1.765-1.061-3.356-2.29-3.9-4.287-.276-1.011-.888-.912-1.521-.357a2.77,2.77,0,0,1-2.052.947,45.37,45.37,0,0,1-9.348-1.393,4.984,4.984,0,0,0-2.393-.53,25.824,25.824,0,0,0-4.7,1.482,9.445,9.445,0,0,1-4.092,1.244,1.924,1.924,0,0,0-1.277.664,4.823,4.823,0,0,1-2.777,1.18c-.817.089-1.819.114-2.3.743a3.984,3.984,0,0,1-2.252,1.318,1.146,1.146,0,0,0-.909.917c-.466,1.715-1.045,2.067-2.983,2.032-.958-.015-1.922-.1-2.88-.05a4.692,4.692,0,0,1-3.058-1c-.92-.629-1.922-1.928-3.378-.615-.135.124-.482.059-.731.069a15.69,15.69,0,0,1-2.966-.367c-1.884-.253-3.426-1.373-5.294-1.626-1.045-.144-1.678.258-1.781,1.229-.1.932,1.18,2.7,2.176,3.271,1.288.743,2.663.411,4.016.456,1,.03,1.808.317,2.117,1.274.206.624.1.976-.812.937-2.458-.1-4.9-.466-7.373-.377-1.153.04-2.171.446-3.432.619a6.976,6.976,0,0,0,2.106.966c.271.134.752.208.682.565-.054.258-.39.486-.639.679-.287.218-.628.1-.958.045a5.2,5.2,0,0,0-2.485-.035,3.574,3.574,0,0,1-2.728-.377,5.915,5.915,0,0,0-4.769-.595A10.322,10.322,0,0,1,15.27,29a1.918,1.918,0,0,1-1.608-.966,1.345,1.345,0,0,0-1.5-.748c-1.456.084-2.912.079-4.368.292A4.693,4.693,0,0,0,5.148,28.7a20.038,20.038,0,0,1-2.49,2.235,2.794,2.794,0,0,0-1.294,2.017c-.254,1.209-.005,2.533-1.1,3.752,1.256-.064,2.273-.129,3.3-.173a15.8,15.8,0,0,1,3.621.109c1.164.218,1.591.813,1.034,1.437a7.981,7.981,0,0,1-1.781,1.576C5.137,40.443,5,40.9,6.046,41.95c.352.347.758.659.579,1.175-.46,1.323.341,1.655,1.537,1.71,1.131.173,1.6.689,1.267,1.7-.222.674-.53,1.591-1.748,1.041-.179-.079-.525-.064-.547.109-.114.867-.909.709-1.521.852.022.436.568.733.271,1.175a.12.12,0,0,0,.1.124c.639.223,1.543-.471,1.96.491h0c.969.178,1,.838,1.039,1.561s-.623.724-1.023.986c-.325.213-.411-.064-.476-.3h-.5c-.227.719-.872.491-1.3.372-.839-.233-1.586.188-2.393.139-.217-.015-.292.218-.314.416a2.038,2.038,0,0,1,2.149,1.085,3.964,3.964,0,0,0,2.506,2.067,4.317,4.317,0,0,1,1.191.61c.785.664.687,1.333-.244,1.759-.346.159-.33.377-.352.644q-.141,1.789-2.187,1.958c.758,1.036,1.8,2,.958,3.434.6-.045,1.077-.074,1.559-.109.628-.05,1.121.183,1.2.753.07.535.411.763.817,1.051a1.176,1.176,0,0,1-.038,2.1,1.063,1.063,0,0,0-.541.729c.07.411-.563.5-.514.907h.752a13.456,13.456,0,0,0,3.21-.159c1.516-.441,2.869.426,4.33.188.292-.05.66.292.769.644.054.183.016.436-.211.481-.985.2-1.554,1.11-2.571,1.239.287.857,1.115,1.145,2.117.719.406-.173.774-.406,1.18-.585.628-.273,1.012-.372,1.581.372a13.832,13.832,0,0,0,2.355,2.3c.568.451,1.164-.431,1.808-.134,1.537.02,2.1.818,1.456,2.1a.539.539,0,0,0,.011.535,4.6,4.6,0,0,1,.3,1.908,3.367,3.367,0,0,0,3.215,2.775c.493.01,1.2-.218,1.434.159.888,1.432,2.046.788,3.145.441a10.377,10.377,0,0,1,4.038-.595c.709.059,1.575.674,2.079.124a4.779,4.779,0,0,0,.644-2.067,3.06,3.06,0,0,0,.108-.907,5.019,5.019,0,0,1,1.115-3.107,1.17,1.17,0,0,1,1.2-.634c.947.089,1.905.124,2.853.183a14.642,14.642,0,0,1,7.622,2.855,12.27,12.27,0,0,0,3.74,2.156,2.923,2.923,0,0,1,2.024,1.849,12.085,12.085,0,0,0,2.209,3.316A3.745,3.745,0,0,0,65.4,87.927a55.249,55.249,0,0,1,7.346-.406c1.6-.045,2.966-.292,3.838-1.65.1-.159.314-.387.438-.372,1.943.278,2.43-.813,3.123-2.22a10.221,10.221,0,0,1,3.167-3.033,4.1,4.1,0,0,1,5.132-.347,5.369,5.369,0,0,0,2.365,1.214,2.78,2.78,0,0,1,2.019.947c.671.758,1.646.337,2.463.243.8-.094.428-.8.449-1.239.076-1.6.173-1.69,1.938-1.71.53,0,1.24.2,1.429-.55.265-1.066.736-1.279,1.808-.758,2.317,1.12,2.263,4.862-.081,6.294-2.252,1.378-2.474,2.379-.888,4.381.622.788,1.153,1.5.276,2.438-.173.183-.341.882.06.843.915-.094,1.624,1.016,2.555.287a.419.419,0,0,0,.049-.431c-.466-.843.152-1.214.79-1.561.309-.168.617-.406.59-.689-.179-1.849,1.1-1.863,2.522-1.749a2.1,2.1,0,0,0,.5-.03c.628-.129.958-.506.449-.966-1.83-1.64-1.359-3.732-1.456-5.719-.011-.238.032-.5.363-.491,1.164.05,2.322.129,3.486.193.72,1.66,2.393,1.437,3.854,1.631a3.528,3.528,0,0,1,.715.2,1.6,1.6,0,0,0,1.911-.471,3.572,3.572,0,0,1,2.863-1.14,2.755,2.755,0,0,0,1.765-.7,2.209,2.209,0,0,1,3.183-.119,8.3,8.3,0,0,0,1.727.912c.438.193.985.322,1.137.833.195.654.666.54,1.25.57,2.376.114,4.579-.714,6.885-.907a18.19,18.19,0,0,0,5.814-1.621c1.738-.758,2.918-2.324,5.029-2.572,1.743-.2,3.237-1.264,5.186-1.12a15.082,15.082,0,0,0,9.873-2.884,1.3,1.3,0,0,1,2.111.436c.785,1.219,1.96,1.184,2.8-.045q.528-.773.974-1.591a1.086,1.086,0,0,1,1.526-.52,2.018,2.018,0,0,0,2.1-.188,1.426,1.426,0,0,1,1.748,0,6.435,6.435,0,0,0,2.6.892c1.916.466,3.643.56,5.142-.862a.974.974,0,0,1,.558-.188,2.312,2.312,0,0,1,2.376,3.028c-.081.188-.46.471-.038.634a.711.711,0,0,0,.785-.139,11.3,11.3,0,0,1,3.73-2.438c.352-.139.606-.342.179-.664ZM94.506,44.983ZM99.692,39.3s-.065.02-.076.01-.027-.05-.038-.074a1.2,1.2,0,0,0,.13-.025.515.515,0,0,1-.016.089Zm10.355-7.855v0h0v0Z" transform="translate(0.106 0.891)" fill="#19363b"/><path d="M42.426,37.964C36.634,42.835,30.644,47.409,23.465,50.1c-.071-1.005-1.926.354-1.628-1.317.637-3.6-1.444-5.409-4.843-3.852a8.062,8.062,0,0,1-7.434.028c-1.543-.765-3.611.524-4.871-1.232-1.416-1.982,1.388-3.271.892-5.126l.028-.042c.241-.156.5-.326.736-.481,4.078-2.195,5.508-5.508,4.376-10.011-.552-2.209.34-3.639,2.761-3.738A6.964,6.964,0,0,0,19.9,19.2a9.337,9.337,0,0,0-2.251-9.714c-.637-.637-2.053-.68-1.543-2.053.538-1.444,1.7-1.4,2.974-.977.623.2,1.444.2,1.558-.666.326-2.535,2.181-2.251,3.937-2.266,2.535-.014,4.786.142,7.009-2.209,1.784-1.883,5.31-1.685,7.576.2C43.445,5.084,48.3,6.174,53.7,5.962c2-.071,2.747.694,2.747,3.214,0,4.616-.595,9.544,2.917,13.551.963,1.09,2.251.878,3.328,1.586,5.353,3.469,10.125,7.9,16.242,10.153a1.607,1.607,0,0,1,1.02,2.11,25.812,25.812,0,0,0-.637,4.191c-.142,1.855-1.232,2.28-2.875,2.336-5.084.156-9.275-1.912-13.127-4.97a3.219,3.219,0,0,0-.425-1.189c-2.393-2.69-6.769-2.478-9.841.354-.949.864-1.586,3.087-3.229,0-1.586-2.945-5.211-2.351-7.392.637Z" transform="translate(1.781 0)" fill="#19363b"/><path d="M18,95.235c-.595,2.053-2.28,1.4-3.413,1.062-2.195-.666-4.149.538-6.259.4-.566-.042-.765.623-.821,1.189-2.138.75-4.106,3.186-6.514.269C-.639,96.2-.243,95.391,2.136,95.136c.028.439.071.864.1,1.3.057.892.425,1.43,1.4,1.388a1.127,1.127,0,0,0,1.218-1.2c.028-.963-.481-1.374-1.388-1.43-.439-.014-.864-.057-1.3-.085,1.784-2.747,1.982-5.324-.524-7.859C.565,86.173.31,84.148,1.457,83.5c1.529-.878,2.605.623,3.384,2.11,1.345,2.591.326,5.367.892,8.015.411,1.869.765,3.441,3.044,1.359,1.374-1.246,3.129-.241,4.7-.184,1.515.057,3.016.269,4.531.425Z" transform="translate(0 -43.337)" fill="#19363b"/><path d="M53.076,140.367c-1.671-.85-3.243,1.685-4.73.382a37.422,37.422,0,0,1-6.16-6.57c-1.487-2.11-2.492-1.827-4.135-1.062-1.062.51-2.025,1.175-3.087,1.671-2.62,1.218-4.772.4-5.537-2.053-2.237,1.968-2.251,1.982-.793,3.937.637.864.255,1.628-.042,2.436-.354.977-1.444,2.152-.354,2.945.977.708,1.8-.821,2.818-1.133,1.2-.368,1.515-1.43,1.558-2.591.028-.552,6.216-4.291,6.7-4.036.354.184.552.651.892.906,3.583,2.662,6.146,6.613,10.818,8.4-.736-2.067.864-2.478,2.025-3.229ZM30.661,138.88c-.042-.071-.142-.17-.113-.227s.142-.113.212-.17c.085.042.17.085.241.113-.113.085-.227.184-.34.269Zm-.028-1.473a.907.907,0,0,1-.453-.694c0-.425.227-.835.736-.694.212.071.354.439.481.609-.085.524-.269.935-.779.779Z" transform="translate(9.228 -66.206)" fill="#19363b"/><path d="M6.035,27.27c.5,1.855-2.308,3.144-.892,5.126,1.26,1.756,3.328.467,4.871,1.232a8.062,8.062,0,0,0,7.434-.028c3.384-1.543,5.466.269,4.843,3.852-.3,1.671,1.558.312,1.628,1.317q-5.565,3.207-11.144,6.4c-.439-.991,1.728-1.529.552-2.478-.765-.623-1.572.142-2.308.68a4.3,4.3,0,0,1-2.86.382c3.3-2.591,7.774-2.634,11.13-5.154.85-.651,2.266-1.048,2.11-2.167-.212-1.558-1.8-1.246-2.945-1.246a66.9,66.9,0,0,1-11.413-.708c-1.685-.283-3.568-.283-3.837-2.719-.255-2.294.552-3.795,2.79-4.475Z" transform="translate(1.312 -13.53)" fill="#19363b"/><path d="M20.873,80.933c-.581,1.926-1.388,4.545-4.574,2.974-.467-.227-1.374-.184-1.43.312-.3,2.478-2.379,2.025-3.979,2.436.057,1.246,1.487,2.1.708,3.356-.906-1.189-1.813-2.393-2.7-3.583a1.641,1.641,0,0,1,.071-2.336c.694-.722,1.232-.4,1.912.184,1.345,1.147,2.294.68,2.945-.892.34-.793.467-2.039,1.94-1.515.949.34,1.926,2.082,2.875.2.821-1.628,1.614-3.413-.269-4.984a6.161,6.161,0,0,1-.807-.991c2.959.5,4.191,1.968,3.313,4.857Z" transform="translate(3.509 -38.875)" fill="#19363b"/><path d="M31.22,27.659c2.181-2.988,5.806-3.6,7.392-.637,1.657,3.073,2.294.864,3.229,0,3.073-2.832,7.448-3.044,9.841-.354a3.576,3.576,0,0,1,.425,1.189c-3.993-2.719-7.519-2.733-10.748,1.388-.935,1.189-3.144,2.237-3.837-.3-.977-3.568-2.79-2.846-5.041-1.6a5.745,5.745,0,0,1-1.246.326Z" transform="translate(10.493 8.425)" fill="#19363b"/><path d="M7.328,39.278a4.389,4.389,0,0,0,2.86-.382c.736-.524,1.543-1.289,2.308-.68,1.175.949-.991,1.487-.552,2.478C10.16,41.983,8.39,43.271,6.606,44.56c-2.124-.453-.892-2.266-1.374-3.384a.541.541,0,0,1,.212-.538c.935,0,1.756-.142,1.813-1.331l.085-.042Z" transform="translate(2.172 -18.32)" fill="#19363b"/><path d="M19.067,129.02c-1.671.269-2.676-1.26-4.149-1.558-.736-.156-2.082-.283-1.742-1.43.411-1.388,1.841-1.02,2.775-.68,1.459.524,2.648,2,4.46,1.09.184,1.175-1.473,1.43-1.345,2.591Z" transform="translate(5.457 -59.101)" fill="#19363b"/><path d="M17.562,91.63c.113,2.067-1.628,2.067-2.676,2.818-.85.609-1.076-.184-1.246-.85,2.86-.184,3.059-1.9,2.237-4.092-.3-.793-1.076-1.388-1.048-2.336h0c2.535.51,2.605,2.393,2.719,4.46Z" transform="translate(5.673 -42.342)" fill="#19363b"/><path d="M5.585,40.24c.481,1.119-.75,2.931,1.374,3.384C6.8,45.1,5.628,45.947,4.778,47.773,4.013,44.686,4.24,42.407,5.585,40.24Z" transform="translate(1.805 -19.552)" fill="#19363b"/><path d="M16,87.6h0c-1.657-.651-3.922.892-5.126-1.4,1.671.637,4.036-1.345,5.126,1.4Z" transform="translate(4.52 -39.904)" fill="#19363b"/><path d="M7.183,38.921C7.126,40.11,6.3,40.266,5.37,40.252a1.586,1.586,0,0,1,1.813-1.331Z" transform="translate(2.232 -18.014)" fill="#19363b"/><path d="M19.263,127.85a1.511,1.511,0,0,1-1.883,0Z" transform="translate(7.229 -58.714)" fill="#19363b"/><path d="M5.956,26.905c-.241.156-.5.326-.736.481A.557.557,0,0,1,5.956,26.905Z" transform="translate(2.17 9.255)" fill="#19363b"/><path d="M203.08,49.1v.014h0Z" transform="translate(-93.019 -22.493)" fill="#19363b"/><path d="M203.094,49.124h-.014v0Z" transform="translate(-93.024 -22.498)" fill="#19363b"/><path d="M174.374,76.44Z" transform="translate(-79.868 -35.014)" fill="#19363b"/><path d="M1.528,91.634c.439.028.864.071,1.3.085.906.042,1.416.467,1.388,1.416A1.113,1.113,0,0,1,3,94.339c-.977.042-1.359-.51-1.4-1.388-.028-.439-.057-.864-.1-1.3l.028-.028Z" transform="translate(0.622 -42.87)" fill="#19363b"/><path d="M30.648,135.617c-.1.524-.269.935-.779.779a.86.86,0,0,1-.439-.694c0-.425.227-.835.736-.694.212.057.34.425.481.609Z" transform="translate(10.126 -62.533)" fill="#19363b"/><path d="M29.893,136.75c.085.042.17.071.241.113-.113.085-.227.184-.34.269-.042-.071-.127-.17-.113-.227S29.822,136.792,29.893,136.75Z" transform="translate(10.22 -62.826)" fill="#19363b"/><path d="M184.07,64.79a1.6,1.6,0,0,1-.042.255c-.071,0-.17.057-.2.028-.057-.042-.071-.142-.1-.212a2.9,2.9,0,0,0,.34-.071Z" transform="translate(-84.267 -29.745)" fill="#19363b"/></g></svg>