<svg xmlns="http://www.w3.org/2000/svg" width="140" height="111.93" viewBox="0 0 140 111.93"><g transform="translate(-31.56 -30.903)"><path d="M144.12,114.934c2.2,3.953.374,8-4.3,9.413a70.1,70.1,0,0,0-12.807,4.878c-1.17.621-3.041.543-2.413,2.685.147.5-.254.718-.775.744-.782.032-1.531-.466-1.511-.983.134-3.17-2.353-2.361-4.057-2.53-2.179-.22-4.345.233-4.839-3.028-.267-1.753-2.52-1.016-3.743-.453a11.247,11.247,0,0,1-6.39,1.3c-2.446-.349-3.549,2.006-5.695,2.562-2.573.673-3.636-.634-4.218-2.187-.849-2.264-1.27-4.451-4.231-5.169-1.45-.349-.749-1.824-.368-2.775.521-1.294,1.551-2.465,1.778-3.778.394-2.251.842-4.807-2.74-5.292a2.206,2.206,0,0,1-1.37-.763c-2.025-2.834-4.017-3.267-7.346-1.54-3.035,1.572-6.049,3.377-9.518.9a1.9,1.9,0,0,0-1.3-.136c-5.681,1.022-10.106-.543-14.6-3.972A34.155,34.155,0,0,1,48.8,100.3c-.989-1.1-3.242-.149-4.585-1.7a20.386,20.386,0,0,1-2.834-3.532c-.461-.86-.668-2.426.14-2.652,3.663-1.035,1.751-3.927,1.277-5.143-.9-2.29-1.317-5.357-4.585-6.23a2.246,2.246,0,0,1-1.384-1.313,3.632,3.632,0,0,0-3.656-3.028c-.789-.058-1.624-.634-1.618-1.417.013-1.216,1.143-.77,1.778-.666,2.867.446,2.105-1.63,2.045-2.9-.227-4.419.087-4.749,4.712-4.043,3.128.479,10.621-3.2,12-5.861a3.547,3.547,0,0,0,.334-3.112c-1.257-2.853.528-3.125,2.507-2.549,1.658.479,2.152-.123,2.727-1.333,1.049-2.213,2.52-3.662,5.4-2.847,1.965.556,2.52-1.21,3.509-2.323,1.364-1.527,2.152-3.177,4.94-.556,2.486,2.329,4.3,4.147,4.365,7.582.027,1.753,1.564,2.7,3.429,2.97,3.583.5,6.51,1.727,7.54,5.628.287,1.1,1.337,1.773,3.208,1.714,4.131-.123,8.348-.045,12.346,1.721a10.213,10.213,0,0,0,7.961.615c2.66-.99,5.554-1.378,8.215-2.368,1.965-.725,4.031-1.6,2.981-4.6-.588-1.669.287-3.2,2.634-3.073a10.183,10.183,0,0,0,8.275-3.733c1.2-1.339,2.667-1.177,3.984-1.734.688-.291,1.691-.194,1.8-1.08.127-.983-.862-1.469-1.577-1.857a5.2,5.2,0,0,0-3.576-.375c-1.591.336-3.095.4-3.142-1.585-.04-1.669-.7-3.888,1.885-4.522,1.5-.369,3.783-.608,3.97-1.714.4-2.387,2.052-4.263,2.3-6.586.167-1.572-1.237-3.662,1.243-4.4,2.968-.88,6.116-1.6,8.636,1.08,1.183,1.262,2.2,2.672,3.255,4.043,1.611,2.09,3.382,3.83,6.216,4.464A5.305,5.305,0,0,1,161,43.439c1.217,1.824,3.068.854,4.739.259s3.556-2.387,5.147-.809c1.5,1.494.127,3.481-.742,5.04-1.13,2.031-.889,4.956-4.024,5.764-.9.233-.14,1.009-.047,1.591.421,2.769.548,4.755-2.714,7-2.787,1.921-7.119,2.7-8.355,7.142-.769,2.75-4.579,3.83-7.018,5.59-1.577,1.139-1.691-1.171-1.7-2.323-.007-.55.909-1.223.16-1.682-.8-.492-1.263.323-1.852.828-1.852,1.585-3.068,3.985-5.956,4.276.582,1.708,3.188,1.514,3.035,3.7-.06.828.822.7,1.39.129,2.012-2.006,4.318-1,6.45-.395,1.384.388,1.557,1.482.287,2.394-.428.3-1.13.272-1.517.6-1.323,1.119-2.894,2.141-3.75,3.558-1.437,2.374,1.551,2.588,2.507,3.772a27,27,0,0,1,5.394,9.284c1.21,3.882.074,6.262-1.551,9.148-.789,1.4-1.865,2.931-1.865,4.4.007,2.62-.675,3.371-3.215,2.284a4.865,4.865,0,0,0-1.691-.026Zm-1.163,1.96c-.842-1.708-1.39-2.187-2.767-1.559C140.992,115.788,141.587,116.124,142.957,116.894Zm-2.306.97c-.04-.084-.08-.162-.114-.246-.053.071-.147.136-.154.207s.067.162.107.246c.053-.071.107-.136.167-.207Z" fill="#19363b"/><path d="M208.84,169.98c-.16-3.68,2.09-6.04,3.78-8.67.88-1.36,1.97-.85,3.05-.47a1.853,1.853,0,0,1,1.26,2.36c-.67,3.41-1.3,6.84-2.05,10.24-.39,1.76-1.58,1.63-3.09,1.26C209,174.01,208.68,172.08,208.84,169.98Z" transform="translate(-69.452 -55.527)" fill="#19363b"/><path d="M167.7,189.56c1.99,1.67,5.15-2.83,5.64,1.38.45,3.83-3.51,7.46-7.01,7.42-2.5-.03-4.32-1-4.14-3.71C162.42,191.12,164.83,189.88,167.7,189.56Z" transform="translate(-45.758 -55.527)" fill="#19363b"/><path d="M198.22,163.83c-2.05-1.19-2.93-1.71-4.14-2.41C196.13,160.44,196.96,161.18,198.22,163.83Z" transform="translate(-54.977 -43.881)" fill="#19363b"/><path d="M194.77,165.32c-.08.11-.16.21-.25.32-.06-.13-.17-.26-.16-.38s.15-.22.23-.32c.06.13.12.25.17.38Z" transform="translate(-54.089 -55.527)" fill="#19363b"/></g></svg>