<svg xmlns="http://www.w3.org/2000/svg" width="158.071" height="98.104" viewBox="0 0 158.071 98.104"><path d="M181.205,53.832c-.026.039-.045.071-.071.1a1.368,1.368,0,0,1,.1-.1C181.218,53.839,181.212,53.839,181.205,53.832ZM160.96,31.79Z" transform="translate(-56.917 -11.25)" fill="#19363b"/><path d="M106.71,137.933a.342.342,0,0,0,.175.252c.09-.11.2-.226.336-.375A2.742,2.742,0,0,1,106.71,137.933Z" transform="translate(-37.735 -48.738)" fill="#19363b"/><path d="M171.453,29.49Z" transform="translate(-60.623 -10.437)" fill="#19363b"/><path d="M171.453,29.49Z" transform="translate(-60.623 -10.437)" fill="#19363b"/><path d="M235.829,28.34c-.814.187-.983,1.422-2.023,1.222-.013-.078-.019-.155-.026-.233A7.7,7.7,0,0,1,235.829,28.34Z" transform="translate(-82.666 -10.03)" fill="#19363b"/><path d="M233.5,30.1c-.343.524-.006,1.241-.511,1.707-.026-.692-.317-1.454.485-1.939A1.425,1.425,0,0,0,233.5,30.1Z" transform="translate(-82.361 -10.571)" fill="#19363b"/><path d="M215.264,74.442c-.013.123-.026.252-.039.368-.284.084-.446-.168-.672-.246l-.013-.052c.226-.039.452-.078.672-.123Z" transform="translate(-75.863 -26.313)" fill="#19363b"/><path d="M209.352,145.94a.709.709,0,0,1,.226-.73A.916.916,0,0,1,209.352,145.94Z" transform="translate(-74.024 -51.355)" fill="#19363b"/><path d="M215.638,74.13h-.006l-.052-.058c.006-.162.019-.323.026-.491a.27.27,0,0,1,.155-.09C216.233,73.807,216.078,73.994,215.638,74.13Z" transform="translate(-76.231 -25.995)" fill="#19363b"/><path d="M206.116,149.23c-.006.084-.006.162-.006.246v-.246Z" transform="translate(-72.882 -52.776)" fill="#19363b"/><path d="M192.28,65.86a.045.045,0,0,0-.013.026,1.368,1.368,0,0,0-.1.1c.026-.032.045-.065.071-.1a.048.048,0,0,1-.032-.006h.045a.039.039,0,0,1,.026-.006Z" transform="translate(-67.953 -23.297)" fill="#19363b"/><path d="M192.3,65.86a.045.045,0,0,0-.013.026c-.013,0-.019,0-.026-.006a.048.048,0,0,1-.032-.006h.045a.039.039,0,0,1,.026-.006Z" transform="translate(-67.974 -23.297)" fill="#19363b"/><path d="M160.966,31.79l-.006.006V31.79Z" transform="translate(-56.917 -11.25)" fill="#19363b"/><path d="M158.379,28.521c-.045.078-.1.271-.213.3-.233.071-.239-.155-.259-.3-.019-.168.006-.349.194-.394C158.334,28.081,158.321,28.295,158.379,28.521Z" transform="translate(-55.836 -9.952)" fill="#19363b"/><path d="M214.536,79.314c-.213.394-.575.194-.866.246v-.491C213.967,79.126,214.329,78.919,214.536,79.314Z" transform="translate(-75.555 -27.966)" fill="#19363b"/><path d="M200.93,70.15c-.039.252-.1.5-.433.446-.071-.013-.2-.181-.187-.226.116-.291.394-.187.621-.22Z" transform="translate(-70.831 -24.814)" fill="#19363b"/><rect transform="translate(105.549 19.034)" fill="#19363b"/><path d="M153.588,26.674c-.026.09-.246.129-.368.2v-.5c.175.045.427.032.368.3Z" transform="translate(-54.18 -9.333)" fill="#19363b"/><rect transform="translate(98.529 18.032)" fill="#19363b"/><path d="M152.944,27.15a.455.455,0,0,1-.5.5A.458.458,0,0,1,152.944,27.15Z" transform="translate(-53.905 -9.609)" fill="#19363b"/><path d="M153.648,125.975c-.058.032-.11.065-.168.1.032-.052.065-.11.1-.162Z" transform="translate(-54.272 -44.53)" fill="#19363b"/><path d="M15.2,41.052A.707.707,0,0,0,15.1,41a.707.707,0,0,0,.1.052Z" transform="translate(-5.341 -14.506)" fill="#19363b"/><path d="M107.221,137.81c-.136.149-.246.265-.336.375a.342.342,0,0,1-.175-.252,2.742,2.742,0,0,0,.511-.123Z" transform="translate(-37.735 -48.738)" fill="#19363b"/><path d="M64.422,109.8a1.407,1.407,0,0,0-.162-.09c.032-.071.052-.129.078-.181-.019.052-.013.123.116.259C64.409,109.769,64.4,109.782,64.422,109.8Z" transform="translate(-22.724 -38.738)" fill="#19363b"/><path d="M64.644,109.995a.51.51,0,0,1-.084-.026v-.039h.2C64.78,109.975,64.773,110,64.644,109.995Z" transform="translate(-22.83 -38.88)" fill="#19363b"/><path d="M116.83,145.612l.039-.5c.142-.09.291-.181.433-.278.09.407,0,.7-.472.782Z" transform="translate(-41.313 -51.22)" fill="#19363b"/><path d="M121.852,136.562a.321.321,0,0,1-.207.22c-.265.032-.31-.168-.356-.368.071-.071.136-.142.207-.213.213.026.394.116.356.362Z" transform="translate(-42.89 -48.169)" fill="#19363b"/><path d="M118.288,140.3a1.135,1.135,0,0,1,.2.194c.013.019-.071.1-.116.162-.084-.071-.168-.142-.252-.22C118.165,140.4,118.21,140.365,118.288,140.3Z" transform="translate(-41.769 -49.619)" fill="#19363b"/><path d="M211.926,68.99,211.92,69a.217.217,0,0,1-.026.065l-.084.013.032-.09h.084Z" transform="translate(-74.898 -24.404)" fill="#19363b"/><path d="M152.186,19.63a.248.248,0,0,1,.032-.414c.452-.33.931-.64,1.4-.957-.032.821-.776.9-1.112,1.39C152.471,19.7,152.258,19.689,152.186,19.63Z" transform="translate(-53.78 -6.466)" fill="#19363b"/><path d="M158.04,13.547c-.136-.42-.278-1.293-1.189-1.131-.4.071-.407-.31-.5-.582s-.22-.724-.343-.724c-1.164-.026-1.06-1.034-1.325-1.694-.336-.84-.517-1.745-.808-2.605-.524-1.538-1.48-1.855-2.786-.95-.394.271-.776.64-.9-.207-.672-.1-.782.5-1.079.866-.149.537-.3,1.06-.446,1.59a4.714,4.714,0,0,0-.284,1.183c-.317,1.241.084,2.515-.246,3.743l-.013.013a8.115,8.115,0,0,1-3.284,3.491c-1.17.271-2.334.569-3.51.808-2.741.549-5.4,1.176-6.477,4.26-.155.465-.853.7-.194,1.377a1.546,1.546,0,0,1,.026,1.6,3.355,3.355,0,0,1-3.006,1.642c-1.144-.181-2.043.407-3.083.394-.5.162-1.474.3-.963.963.976,1.273.149,1.933-.569,2.689-.588.621-1.248,1.176-1.875,1.752l-.084.058c-.343.233-.685.465-1.034.7-.084.084-.168.168-.252.259a3.625,3.625,0,0,0-1.771,1.028c-.692,1.157-1.991,1.273-3.077,1.532-.7.168-1.571-.375-2.353-.614-.155-.045-.323-.187-.252-.368a11.314,11.314,0,0,1,1.5-3.432,1.609,1.609,0,0,0,.537-1.422,16.156,16.156,0,0,0-.944-3.1c-.2-.465-.5-1.325-1.357-.633-.549.026-.7.452-.9.86-.168.343-.336.827-.853.685-.537-.142-.388-.621-.336-1.015,1.332-1.176,1.564-4.1.414-5.333a1.1,1.1,0,0,0-.44-.194c-.627-.2-1.215-.549-1.816-.737-.64-.213-1.758-.918-2.023.1-.246.911-1.176,1.61-.847,2.7a.613.613,0,0,1-.343.73c-.336-.175-.071-.782-.433-.769a1.143,1.143,0,0,0-.944.7,10.812,10.812,0,0,0-.679,3.516,2.979,2.979,0,0,0,.194,2.043A6.488,6.488,0,0,1,108.034,33c-.368.873-.743,1.745-1.118,2.618a.394.394,0,0,0-.1.078c-.7.446-1.383,1.008-2.237.284-.388-1.2-.646-2.437-.918-3.665-.562-2.515.045-4.861.381-7.266a3.875,3.875,0,0,0,.588-2.463c-.394.892-1.138,1.532-1.506,2.424-.659.524-.53-.052-.562-.4a9.064,9.064,0,0,0,1.06-1.765c.349-.853.549-2.269,1.655-2.224,1,.052,1.183-.582,1.681-.983l.084-.032c.233,0,.53.084.7-.026a2.147,2.147,0,0,1,2.747-.065c.278.207.317-.213.349-.44h0c.33-.013.659-.039.989-.065.575.013,1.157.039,1.732.039.213.006.472-.052.452-.3s-.356-.524-.511-.407c-.9.672-1.092-.259-1.532-.627-.187-.239-.194-.659-.679-.588-.692.11-1.538.524-1.681-.711-.006-.052-.233-.149-.31-.11-1.118.491-2.463.259-3.491,1.157a1.774,1.774,0,0,1-2.4,0,2.381,2.381,0,0,0-2.7-.886c.1-1.1,1-1.506,1.655-2.172a1.984,1.984,0,0,0-1.855.427c-.808.7-1.584,1.448-2.372,2.178l-.065.032a1.915,1.915,0,0,0-1.648.653,1.735,1.735,0,0,1-1.732.323c-.743-.168-.071-.569-.168-.853-.116-.336-.291-.362-.549-.226-.4.2-.789.414-1.2.627-.5.1-1,.213-1.5.317-.44-.2.065-.368.019-.556.2-.026.446.039.5-.259,1.584-1.577,3.006-3.348,5.391-4.021a3.775,3.775,0,0,0-3.581-.789c-1.092.362-1.648-.116-2.482-.291-.983-.207-1.616-.937-2.476-1.267a1.685,1.685,0,0,0-1.422.194c-.821.44-2.844-.478-3.193-1.351a2.037,2.037,0,0,0-.246-1.2c-.252-.381-.8-.5-.827-.052-.058,1.467-1.073,1.086-1.862,1.092-4.79.065-9.58-.194-14.363-.336-3.93-.317-7.854-.646-11.784-.963-1.719-.233-3.445-.459-5.171-.692L39.929,6.029C37.363,5.4,34.758,4.95,32.147,4.543a6.7,6.7,0,0,0-2.243-.5h-.013c-2.146-.588-4.318-1.092-6.509-1.487a.12.12,0,0,0-.175-.039,3.916,3.916,0,0,0-1.829-.459C19.064,1.4,16.749.735,14.429.108c-.323-.09-1.112-.278-.763.394.478.9-.155,1.37-.349,2.017-.53-.129-.213.433-.44.556-.175,0-.356-.006-.53-.006-1.034-.575-2.327-.608-3.167-1.59-.233-.271-.53-.834-.963-.543a1.158,1.158,0,0,0-.3,1.267A11.822,11.822,0,0,1,8.133,5.4c.013.33-.045.672.284.9-.42.375-.672.769-.1,1.222C7.4,7.969,7.771,8.893,7.551,9.6c-.724,2.372-1.687,4.654-2.637,6.949A9.711,9.711,0,0,1,3.627,19.08a4.5,4.5,0,0,0-1.286,3.471v.013a1.2,1.2,0,0,0-.323,1.248A6.493,6.493,0,0,1,.467,29.429,1.4,1.4,0,0,0,.2,31.149,3.938,3.938,0,0,1,.57,34.574c-.9,2.2,1.092,3.833,1.164,5.843,0,.058.116.11.175.168a2.8,2.8,0,0,1,.556,1.538c-.323,1.164-.53,2.262.789,3.045.246.142.769.7-.078,1.015-.64.233-.491.873-.368,1.28a14.221,14.221,0,0,0,1.189,3,4.921,4.921,0,0,1,.834,3.93c-.207.789.175,1.047.9,1.293,1.1.368,2.288.614,2.9,1.9.472,1,1.707,1.273,2.489,2.191,1.086,1.267,2.308,2.211,2.256,4.066-.026.7.078,1.493,1.015,1.532a22.523,22.523,0,0,0,3.484.265,1.563,1.563,0,0,0,1.015.078l.078.013.026-.071c.808.362,2,.175,2.165,1.493a1.026,1.026,0,0,0,.239.013c2.961,2,6.134,3.633,9.185,5.475a6.089,6.089,0,0,0,2.411.963c2.346.31,4.7.646,7.039,1.008.769.116,1.312.052,1.325-.9,0-.278.045-.692.446-.562,1.991.64,4.628-.711,5.973,1.933.045.09.252.084.317.175,1.112,1.616,2.967,2.592,3.762,4.505.252.614.078,1.215.3,1.816.556,1.538,1.9,2.2,3.148,2.986,1.6,1.021,2.088.886,2.786-.879a1.854,1.854,0,0,1,1.273-1.157c.963-.356,1.739.388,2.611.123.239.09.478.187.718.284a8.9,8.9,0,0,1,3.038,4.247,7.251,7.251,0,0,0,1.338,2.346,9.12,9.12,0,0,1,2.01,3.924,3.87,3.87,0,0,0,2.78,3.238,12.448,12.448,0,0,0,2.844.737c.549.039.808,1.215,1.545.4.614-.679-.446-1.112-.3-1.739-.679-.42-.155-1.151-.427-1.681l.039-.5c-.058-.672-.743-1.325.375-1.978.465-.271.045-1.648.97-2.178a3.613,3.613,0,0,0,1.5-1.487c.071-.071.136-.142.207-.213,0-.64.356-.679.84-.5,1.8.582,2.948-.491,4.066-1.635.019-.142.039-.278.065-.42.485-.284,1.176-.465.621-1.254-.362-.517.142-.692.388-.86.465-.317.394.155.472.407.116.414.575.22.808.44a8.619,8.619,0,0,1,4.68-1.021,5.2,5.2,0,0,0,1.978.614c.42.071.931.123,1.118-.271.608-1.293,1.131-.685,1.7-.006.22.252.511.207.8.168.614.207.026,1.254.937,1.286.646.026,1.319.562,1.887-.284.187-.284.646-.175.873.116.452.595.685.362.756-.2.136-1.028.511-.95,1.131-.33.226.213.653.239.86.465a.959.959,0,0,0,1.157.4.5.5,0,0,0,.265-.368c-.078-.543-.537-.692-.983-.814-.834-.226-1.383-.588-.84-1.551.032-.452-.252-.537-.614-.524,0-1.306,1.26-1.209,1.946-1.752l.026-.019c.614,0,1.228.026,1.836-.026.873-.058,1.61-.3,1.551-1.4.1.026.207.045.317.071.162.569.078,1.655.911,1.338a23.564,23.564,0,0,0,2.922-.911c.084-.019.162-.039.239-.065a6.194,6.194,0,0,1,2.217.394c.168.045.343.1.511.142a2.658,2.658,0,0,1,1.849,1.39c.123.2.09.485.42.53a4.391,4.391,0,0,0,3.025-1.92,2.592,2.592,0,0,1,2.54.886,14.3,14.3,0,0,0,2.036,1.92c.388.3,1.021.246,1.248.827a7.754,7.754,0,0,1,.078,3.316c-.032.433-.168.957.271,1.273.595.44.633-.517,1.086-.472a1.841,1.841,0,0,0,.465,2.644c.032.123.013.291.09.356.569.491,1.286.743,1.6,1.629.116.323.743.737.983,1.273.207.472.407.957,1.144.886.569-.052.924.323,1.176.9.233.537.271,1.351,1.17,1.357h.006c.414.006.847.155,1.215-.168.22.666.478.769.911.123.414-.614.026-1.164-.052-1.739l.019-.084a.709.709,0,0,1,.226-.73c.084-1.726.194-3.465-.756-5.048-.737-1.228-1.474-2.469-2.2-3.7-.026-.957.181-2-1-2.489a21.728,21.728,0,0,1-2.993-4.971,8.455,8.455,0,0,1-.045-4.505,8.85,8.85,0,0,1,3.051-5.048c1.151-.976,2.534-2.114,2.5-3.975a3.52,3.52,0,0,1,2.534-1.978c.271-.032.5-.123.543-.42.187-1.319,1.2-2.12,1.926-3.1a16.587,16.587,0,0,0,1.784-.511c.562-.239.808-.931.168-1.054-1.021-.194-.026-1.06-.614-1.267.22-.375.575-.175.86-.181.7-.013.672-.556.8-1a.113.113,0,0,0,.052-.162c.7-.11.543-.646.459-1.06s-.491-.233-.769-.259c-.459-.032-.911-.052-1.454-.084.375-.53.679-.892,1.228-.931.284.187.5.537.983.394-.491-.911-.963-1.771-1.435-2.631a3.444,3.444,0,0,1-1.81-1.37c-.284.084-.446-.168-.672-.246l-.013-.052c.226-.039.452-.078.672-.123.006-.162.019-.323.026-.491a.27.27,0,0,1,.155-.09c-.31-.524.123-1.183-.31-1.681l-.187-.187c0-.375.123-.8-.343-1.021-.291-.595-.588-1.183-.873-1.765,0-.175.013-.336.019-.5.207-.246.44-.653.776-.407a1.112,1.112,0,0,1,.3,1.209c-.226.7,0,1.183.64,1.293,1.17.194,1.345.924,1.157,1.868a4.06,4.06,0,0,0,0,2.1c.53-1.144.724-2.288,1.312-3.323a2.854,2.854,0,0,0-.621-3.723c-.31-.323-.97-.711-.284-1.306.284.368.937-.032,1.125.588.1.323.31.129.4-.071.743-1.584,1.416-3.18.957-5-.356-.808-.149-1.286.763-1.5a7.718,7.718,0,0,0,1.474-.614c.7-.33,1.551-.614,1.868-1.765-.873.414-1.739.226-2.418.808-.013.013-1,.614-.588-.4a1.518,1.518,0,0,0,1.028-.924,17.437,17.437,0,0,0,2.243-.718c.75-.349,1.926-.349,1.752-1.707-.013-.078.259-.3.3-.271,1.1.621,1.6-.911,2.553-.7-.808-.814-1.61-1.629-2.418-2.443.226-.349.834-.8.569-1.034-1.105-.976-.213-2-.226-2.973h.1l.032-.09c-.026-.692-.317-1.454.485-1.939a7.7,7.7,0,0,1,2.049-.989h.006c.5-.213.343-.679.407-1.067.039-.233-.11-.659.388-.6,1.655.213,2.1-1.3,3.032-2.12.414-.284,1.254-.356,1.041-.989Zm-53.988,7.007h0ZM41.817,71.129a.511.511,0,0,1-.084-.026h0l-.006-.006c-.006-.006-.019-.013-.026-.019a1.405,1.405,0,0,0-.162-.09c.032-.071.052-.129.078-.181,0-.013.013-.026.013-.039.084.052.175.1.259.155-.026.032.026.1.045.142S41.946,71.135,41.817,71.129ZM69.153,89.461a.342.342,0,0,1-.175-.252,2.741,2.741,0,0,0,.511-.123c-.136.149-.246.265-.336.375Zm30.058-7.905c.032-.052.065-.11.1-.162l.071.065C99.321,81.49,99.269,81.523,99.211,81.555Zm-.168-64a.455.455,0,0,1-.5.5.458.458,0,0,1,.5-.5v-.5c.175.045.427.032.368.3C99.386,17.445,99.166,17.484,99.043,17.555Zm3.29,1.332c-.233.071-.239-.155-.259-.3-.019-.168.006-.349.194-.394.233-.045.22.168.278.394C102.5,18.66,102.443,18.854,102.333,18.886ZM124.317,42.6a1.37,1.37,0,0,0-.1.1c.026-.032.045-.065.071-.1a.048.048,0,0,1-.032-.006h.045a.039.039,0,0,1,.026-.006c-.006.013-.013.013-.013.026Zm5.352,3.193c-.071-.013-.2-.181-.187-.226.116-.291.394-.187.621-.22-.039.252-.1.5-.433.446Zm7.356-1.183-.026.065-.084.013.032-.09h.084l-.006.013Zm1.092,6.5c.3.058.659-.149.866.246-.213.394-.575.194-.866.246v-.491Z" transform="translate(-0.003 -0.014)" fill="#19363b"/><path d="M64.538,109.832a.511.511,0,0,1-.084-.026h0l-.006-.006c-.006-.006-.019-.013-.026-.019a1.406,1.406,0,0,0-.162-.09c.032-.071.052-.129.078-.181,0-.013.013-.026.013-.039.084.052.175.1.259.155-.026.032.026.1.045.142S64.667,109.838,64.538,109.832Z" transform="translate(-22.724 -38.717)" fill="#19363b"/></svg>