<svg xmlns="http://www.w3.org/2000/svg" width="140" height="143.945" viewBox="0 0 140 143.945"><path d="M181.1,223.457c-.3,1.679-1.484,3.635-3.144,4.173-3.9,1.254-6.668,2.862-7.836,7.447a30.569,30.569,0,0,1-3.032,8.162c-.851,1.424-1.154,3.139-3.433,2.388-.521-.177-1.477.064-1.273.73.809,2.629-1.843,4.549-1.308,7.015.267,1.2-.134,1.906-1.147,2.133-1.154.255-1.6-.531-1.787-1.615-.225-1.382-.633-2.735-.858-4.117-.148-.914.084-2.232-.943-2.437-1.358-.276-1.344,1.282-1.808,2.126-.2.361-.007.949-.633,1.07-3.2-2.969-3.2-4.209.4-6.023,1.688-.857,2.159-2.381,2.856-3.748.668-1.311-.83-1.375-1.505-1.41-2.455-.113-4.917.057-7.365-.071-1.442-.078-2.933-.078-3.186-2.345-.359-3.188-5.311-4.634-8.244-2.572.886,2.041.929,2.09,3.6,4.145-1.062.758-2.1,1.481-3.1,2.232-.633.468-1.034,1.233-.366,1.757,4.009,3.16,3,8.049,4.178,12.159.753,2.643-.8,3.89-3.236,2.983-2.174-.808-3.806.227-5.585.843a2.115,2.115,0,0,0-1.54,2.452c.57,3.84-1.977,5.484-4.959,6.263a7.484,7.484,0,0,0-4.474,2.905,35.844,35.844,0,0,1-11.1,9.983c-.816.482-1.59,1.07-1.47,2.2.084.779-.1,1.573-.865,1.715-2.462.468-4.3,2.544-6.394,3.061-3.018.751-3.475,2.423-3.461,4.733a37.387,37.387,0,0,0,.64,5.916c.471,2.855.464,5.555-1.351,8.035-1.407,1.913-.345,4.124-.5,6.2-.1,1.268.6,3.047-1.8,2.919-.288-.014-.83.283-.858.5-.563,3.791-4.72,4.924-5.986,8.347-.626,1.715-2.729,2.629-4.643.836A10.689,10.689,0,0,1,80.028,319c-.907-4.542-3.369-8.41-5.051-12.584-3.348-8.3-7.738-16.211-9.834-25-.936-3.932-1.653-7.921-2.413-11.889-.218-1.148-.675-2.515-.274-3.465,1.7-4.039-.7-7.426-1.041-11.152-1.168.135-1.8.992-1.674,1.4,1.372,4.655-2.631,4.74-5.043,5.9-2.553,1.219-4.045-1-5.585-2.529-1.716-1.7-3.327-3.507-5.233-5.52,3.046-.106,5.627-.135,7.505-3.656-3.116,1.594-5.515,1.53-7.752-.071a6.314,6.314,0,0,1-2.5-4.308c-.07-.5,2.272-1.856,3.538-1.892,2.385-.064,4.818-.652,7.1-.383,2.349.283,2.61-1.02,2.223-2.232-.612-1.927-.457-4.506-3.165-5.286a1.5,1.5,0,0,1-1.034-1.693c.506-1.977-.162-3-2.11-3.543a1.347,1.347,0,0,1-.6-2.09,51.9,51.9,0,0,1,3.3-4.528,1.17,1.17,0,0,1,1.787-.22c2.835,1.828,5.008.574,6.971-1.7,3.981-4.634,7.59-9.551,11.17-14.5.387-.538,1.161-.786,1.027-1.693-.464-3,.746-5.08,3.616-5.938-.563-1.849-2.307-1.1-3.25-2.069-1.7-1.743-3.13-3.578-2.8-6.086a5.6,5.6,0,0,0-.457-3.252c-.971-2.2.3-3.9,2.56-3.132,5.423,1.849,9.9.723,13.963-3.21,1.681-1.637,2.61-1.6,3.693,1.176,1.238,3.153,3.967,5.64,3.63,9.537-.1,1.148,2.195,1.176,2.371,2.777.1.914.809,1.878-.4,2.423-.717.326-1.372,1.615-2.385.425-.5-.581-1.154-1.042-1.7-.241-.225.326.169,1.063.232,1.615.7,5.81,6.078,7.007,9.742,9.806,1.512,1.148,2.11,1.708.457,3.011-1.618,1.268-1.47,3.38-2.335,5.009a1.235,1.235,0,0,0,.83,1.934c3.573.673,5.7,3.862,9.1,5.016,2.947,1,5.648,2.409,8.884,1.863a2,2,0,0,1,1.6.361c3.454,4.45,8.905,3.642,13.414,5.264a1.088,1.088,0,0,0,.612.3,1.118,1.118,0,0,1,.626-.064c2.349-.468,4.755-.744,3.032-4.308-.408-.843.317-2.26.556-3.4.253-1.176,1.111-1.36,2.131-1.268,1.322.113,1.217.907,1.2,1.977-.091,3.876,1.076,5.371,4.783,4.825,2.427-.354,4.818.468,7.14-.319,1.189-.4,2.884.68,3.566-1.2.647-1.793-1.168-2.2-2.884-3.585,6.366-.106,8.547-5.555,13.091-7.34,1.4-.546,2.4-1.672,4.024-.694a2.146,2.146,0,0,0,3.109-.411c.521-.6,2.251-1.29,2.223-.744-.091,1.871,3,1.807,2.047,3.557-.774,1.424-.689,1.5.844,1.757C179.252,221.906,181.419,221.651,181.1,223.457Z" transform="translate(-41.128 -181.575)" fill="#19363b"/></svg>