<svg xmlns="http://www.w3.org/2000/svg" width="145.833" height="143.66" viewBox="0 0 145.833 143.66"><path d="M144.391,40.349a11.164,11.164,0,0,0-3.271,6.988.749.749,0,0,1-.065.3c-1.836,2.611-1.474,5.675-1.771,8.617a5.078,5.078,0,0,0,.524,2.573,1.752,1.752,0,0,1-.3,2.153,6.964,6.964,0,0,1-2.812,1.668c-.407.129-1.008.278-1.3-.168s-.433-1.054-1.118-.7c-.737.381-1.655.75-1.894,1.564-.3,1.021.827.6,1.351,1.008a5.049,5.049,0,0,1-2.366,2.876c-1.235.7-2.282,1.642-3.439,2.43a2.207,2.207,0,0,0-1.131,2.786c.291.8.207,1.8-.562,2.114-2.469,1.008-2.65,3.335-3.193,5.372a26.35,26.35,0,0,1-1.2,2.851c-.181.5-.3,1.118.116,1.487s.892-.026,1.286-.252c1.034-.6,2.178-1.131,1.836-2.721a1.391,1.391,0,0,1,.7-1.325,4.945,4.945,0,0,1,4.15-.9c.33.065.827.239.711.472-.685,1.513.957,2.56.711,3.969a2.439,2.439,0,0,0,.8,1.972c1.474,1.907,1.364,2.6-.633,3.924-.827.549-.866,1.862.052,2.153a2.691,2.691,0,0,1,1.758,1.959c.265.685.524,1.616,1.5,1.881a.761.761,0,0,1,.459.537,3.591,3.591,0,0,1-4.6,3.387c-.6-.181-1.338-.317-1.771.181-.485.537-.116,1.183.252,1.719a4.83,4.83,0,0,1,1.144,2.7c.181.065.368.116.549.181.239.356.614.317.983.343.944.078,1.3.75,1.551,1.538a1.25,1.25,0,0,1-.75,1.655c-.511.213-.278.433-.1.685.078.6-.711.7-.711,1.235-.265-.459-1.079-.485-.7-1.629-1.209,1.881-.9,2.864.724,3.6l.026.013c.09,1.551,1.577,1.823,2.482,2.586a20.957,20.957,0,0,0,3.206,1.881c.6.343,1.092.065,1.59-.265.549-.356,1.26-.983,1.745-.239a1.559,1.559,0,0,1-.381,2.217,3.184,3.184,0,0,0-.485.6c-.129.039-.278.078-.407.116-.278.562-.511,1.157-.84,1.694-.368.633-.75,1.157-1.732.84-.957-.3-1.564.265-2.114,1.157-1.209,1.959-2.573,3.82-4.822,4.738a2.3,2.3,0,0,0-1.286,2.456.423.423,0,0,1-.194.33,8.356,8.356,0,0,0-3.219,2.14c-.155.194-.368.129-.562,0-1.429-1.092-1.312.239-1.538,1.067-.8-1.416-1.972-1.144-3.1-.685-.5.194-.6.168-.931-.291-.672-.957-1.454-1.836-2.889-1.668-1.273.142-2.469.052-2.269-1.849.09-.866-.763-.575-1.17-.446a2.849,2.849,0,0,1-2.5-.181c.614-.814,2.127-.575,2.2-1.946-.343-.265-.879.42-1.183-.194-.052-.116-.356-.1-.549-.155.181,1.577-1.668.918-2.127,2-.433,1.021-1.616.343-2.469.42-.633.065-.6-.252-.459-.776.168-.6-.317-.814-.84-.84-.84-.039-1.681-.026-2.521-.078a2.309,2.309,0,0,1-2.114-.957c-.7-.983-1.81-.485-2.6.213a20.768,20.768,0,0,1-5.553,3.652c-3.142,1.338-4.305,5.12-3.937,8.352.142,1.325-.381,2.993,1.286,3.911.446.252-.026.853-.239,1.105-.381.446-.633-.116-.789-.343-.472-.724-1-.614-1.6-.226-.957.614-2.14.737-3.057,1.526a1.614,1.614,0,0,1-2.165-.33c-1.144-1.235-2.269-.763-3.219,0-1.209.97-1.933.291-2.269-.646-.343-.892-1.092-1.364-1.513-2.127a2.116,2.116,0,0,0-2.023-1.021c-1.946.511-3.426-.789-4.951-1.364a15.246,15.246,0,0,1-3.613-1.526c-1.273-.918-2.036-.537-2.178.892-.039.446-.168.711-.614.711-.659,0-1.39-.213-1.933-.168-1.351.078-2.689-.549-3.924-.226-.724.181-1.118.343-1.564-.265a3.931,3.931,0,0,0-4.111-1.642c-1.441.226-2.76,0-3.258-1.681-.1-.368-.356-.549-.7-.433-2.036.7-3.3-1.17-5.016-1.526-.394-.09-.588-.5-.918.09-.213.368-.549.918-1.105.5a1.156,1.156,0,0,1-.278-1.429c.672-1.784.646-1.758-1.273-2.4a21.017,21.017,0,0,1-2.43-1.2c2.353-2.049,3.142-4.635,3.562-7.459.394-2.573,1.39-5.042,1.577-7.666a9.263,9.263,0,0,1,.343-3.4c.226-.5.3-1.183,1.144-1.008.433.09,1,.407,1.235-.168.181-.485-.317-.866-.6-1.209-.343-.394-.776-.776-1.325-.252a7.38,7.38,0,0,1-.737.511c1.235-4.635-.226-9.392,1.881-14.092,1.487,2.6,4.034,3.846,4.2,6.7a5.078,5.078,0,0,0-1.118-4.887c-.685-.776-1.6-1.338-2-2.379-.181-.472-.724-.511-1.222-.549-.8-.052-1.681-.026-1.771-1.222-.1-1.416,1.034-.944,1.81-1.17A2.346,2.346,0,0,1,42.04,86.7c.879-.9.394-1.4-.142-2.075a2.34,2.34,0,0,1-.6-2.327c.207-.549.983-1.131.078-1.538-.776-.343-.549.84-1.008,1.054-1.862-1.054-3.678-2.127-5.54-3.07-.537-.265-1.105-.537-1.3-1.034a10.118,10.118,0,0,0-2.76-3.911,2.559,2.559,0,0,1,.078-3.491c1-.97.866-1.616-.446-2.062-.827-.291-1.642-.407-.853-1.642.381-.588.265-1.17-.918-1.105-.957.052-2.353.194-2.889-1.222-.129-.381-.3-.853.078-.97,1.4-.433-.013-1.416.459-2a3.162,3.162,0,0,0-1.881-.265c-.879.065-1.836.84-2.734-.013.472-.614,1.745.09,1.629-.866C23.146,59,22.17,59.78,21.53,59.78c-.433,0-.75.278-1,.317-.866.142-2.114.853-2.3-1.021-.065-.737-1.312-1.092-1.81-1.067-1.6.078-2.508-1.39-3.969-1.526-.181-.013-.142-.5-.588-.078-.672.646-1.17.194-1.441-.614-.194-.6-.3-1.836-1.235-.394-.278.433-.614.078-.957.065-.446-.026-1.338-.75-1.131.75.09.659-1.222.291-2.088.6a2.855,2.855,0,0,0-.09-2.366c-.472-.737-1.3-.776-2.049-.97a3.561,3.561,0,0,1-1.823-.97c1.6-.207,2.76-1.183,4.215-.9.614.116.549-.317.672-.6.239-.562-.116-.931-.537-1.157A13.925,13.925,0,0,0,3.825,49.2c-.013-.116-.026-.252-.039-.381.1-.33.8-.278.562-.8a.947.947,0,0,0-.892-.524,5.785,5.785,0,0,0-2.01.142c-1.551.524-1.474-.575-1.4-1.416.116-1.745,1.222-2.812,3.258-3.3.983-.239,1.8-1.273,3.057-.42.446.317.524-1.021,1.616-.983a4.953,4.953,0,0,1,2.676,1.157c-.039-1.39.588-1.745,1.784-1.222,1.105.5,1.694.278,1.513-1.067-.078-.633.343-1.235.866-.944.918.485,1.474-.194,2.191-.317,1.054-.155,2.153-.737,2.9.711.711,1.364,2.01,2.327,2.747,3.73.433.814,1.454,1.513,2.3.129.659-1.105,2.049-1.021,2.864-1.972.09.827,1.377,1.6,1.907,1.26a1.325,1.325,0,0,1,1.629.181c.278-.5.013-1.312.776-1.5.5-.1,1.118-.472.944.537-.09.524.142.944.614.866a18.833,18.833,0,0,0,4.441-.789.376.376,0,0,0,.291-.472c-1.6,0-2.508-1.364-2.191-3.206a12.523,12.523,0,0,0-.562-6.736,1.7,1.7,0,0,0-.511-.776C33.8,30.3,33.54,28.927,33.4,27.6c-.1-.97.129-1.959-.8-2.676-.194-.142-.1-.5.116-.7a.635.635,0,0,1,.853-.065c1.487.957,2.954,1.441,4.609.252a1.322,1.322,0,0,1,1.849.265,1.083,1.083,0,0,1-.226,1.745.727.727,0,0,0-.155,1.092c.5.8,1.325,1.377,1.248,2.56-.026.472.9.343,1.248,0a1.941,1.941,0,0,1,2.689-.142,2.8,2.8,0,0,0,1.538.278,10.543,10.543,0,0,1,4.415.957,2.357,2.357,0,0,0,3.006-.407c1.39-1.4,3.361-1.564,5.107-2.243-.278-.368-.7-.181-1.034-.278-.944-.239-2.327-.194-2.327-1.4s.317-2.611,1.862-3.1a3.959,3.959,0,0,0,1.538-.789c1.719-1.681,4.072-1.823,6.186-2.3,2.6-.562,4.189-2.2,5.675-4.111.394-.5.407-1.4,1.312-.537.078.09.446.026.562-.09a.35.35,0,0,0-.09-.537c-1.513-1.2-.646-2.812-.7-4.215-.078-2.269.078-4.557.116-6.826.013-.633,1.984-2.573,3.032-2.6C77.353,1.713,79.4.7,81.568.136c.633-.168.957-.194,1.131.524.226,1.054,1.034,1.972.685,3.154-.09.3-.039.776.291.814,1.351.168,1.771,1.338,2.508,2.178.562.633,1.021.549,1.538-.09.394-.5.97-1.092,1.59-.659.659.459,1.564.763,1.694,1.849.317,2.547.524,2.8,3.019,3.31a1.941,1.941,0,0,1,1.616,1.5c.33,1.273,1,1.416,2.075.957.549-.239,3.613.827,3.937,1.3a.691.691,0,0,1-.039.866c-.459.646-.633,1.054.343,1.513.646.317.013.814-.368,1.021-1.487.8-1,1.351.239,1.694,1.461.407,2.889,1.26,4.389-.291.931-.97,2.8.226,3.109,1.972.155.918.381,1.351,1.441,1.338,1.39-.026,1.92,1.526,3.142,2.036a5.122,5.122,0,0,1,2.637,2.353c.129.265.459.633.737.33,1.513-1.784,2.838-.407,3.937.381,1.008.711,1.616.918,2.7.142a2.839,2.839,0,0,1,4.072,1.474c.278.776.944,1.235,1.17,2.023.42,1.416,1.209,2.353,2.864,1.513,1.377-.7,2.23.789,3.516.827,1.454.026,3.122-.485,4.344,1.222.433.588,1.984.33,3.006.562,1.105.252,2.508.368,2.876,1.59.356,1.118-.575,2.1-1.364,2.838Z" transform="translate(-0.013 -0.038)" fill="#19363b"/><path d="M161.43,135.534c.078-.065.149-.129.226-.194.026.032.045.065.071.1l-.246.149-.045-.052Z" transform="translate(-57.09 -47.88)" fill="#e0e0e0"/><path d="M161.3,135.688l-.356.155h-.013c.11-.071.213-.142.323-.213Z" transform="translate(-56.913 -47.983)" fill="#e0e0e0"/></svg>