<svg xmlns="http://www.w3.org/2000/svg" xmlns:xlink="http://www.w3.org/1999/xlink" width="117.743" height="64.761" viewBox="0 0 117.743 64.761"><defs><linearGradient id="a" x1="0.493" y1="-0.595" x2="0.501" y2="0.681" gradientUnits="objectBoundingBox"><stop offset="0" stop-color="#fff"/><stop offset="0.91" stop-color="#fff"/><stop offset="1" stop-color="#fff"/></linearGradient><radialGradient id="b" cx="-0.25" cy="-0.602" r="1.953" xlink:href="#a"/><radialGradient id="c" cx="-0.254" cy="-0.602" r="1.956" gradientTransform="translate(0)" xlink:href="#a"/><radialGradient id="d" cx="-0.251" cy="-0.602" r="1.953" xlink:href="#a"/><radialGradient id="e" cx="-0.25" cy="-0.6" r="1.95" xlink:href="#a"/><radialGradient id="f" cx="-0.251" cy="-0.602" r="1.953" gradientTransform="translate(0)" xlink:href="#a"/><radialGradient id="g" cx="-0.25" cy="-0.606" r="1.95" gradientTransform="translate(0)" xlink:href="#a"/><radialGradient id="h" cx="-0.251" cy="-0.603" r="1.954" gradientTransform="translate(0)" xlink:href="#a"/><radialGradient id="i" cx="-0.25" cy="-0.602" r="1.951" xlink:href="#a"/><radialGradient id="j" cx="-0.249" cy="-0.602" r="1.952" gradientTransform="translate(0)" xlink:href="#a"/><radialGradient id="k" cx="-0.242" cy="-0.602" r="1.945" xlink:href="#a"/><radialGradient id="l" cx="-0.249" cy="-0.602" r="1.952" gradientTransform="translate(0)" xlink:href="#a"/><radialGradient id="m" cx="-0.242" cy="-0.602" r="1.953" gradientTransform="translate(0)" xlink:href="#a"/><clipPath id="n"><path d="M71.385,25.215l-33.128.092c-.3-.319-.634-.612-.89-.919a13.5,13.5,0,0,0-3.509-3.018c-2.842-1.7-6.721-1.634-9.8-.711a28.052,28.052,0,0,0-4.582,2.022,10.945,10.945,0,0,0-3.512,2.663.011.011,0,0,1,0,.007H14.57s-8.116-.267-9.424,2.4,0,5.2,6.285,5.336H71.908c1.461-.187,6.933-.249,7.069-3.468.132-3.069-2.355-3.868-7.593-4.4Z" transform="translate(-4.688 -20.017)" fill="none"/></clipPath></defs><g transform="translate(0.331 0)"><g transform="translate(26.238)"><g transform="translate(0 0)"><g transform="translate(0.183 12.526)"><path d="M77.213,36.5c-.63-.879-1.817-1.41-3.571-1.78a35.362,35.362,0,0,0-3.633-.513l-48.965.132H12.1a26.964,26.964,0,0,0-6.974.718H5.14C3.4,35.444-1.207,36.964,1.163,42A4.364,4.364,0,0,0,3.924,43.9l6.512,14.724s1.469,4.6,6.073,4.937H57.27s9.717.579,11.742-3.069c1.7-3.055,5.714-16.991,5.714-16.991a9.026,9.026,0,0,0,3.223-3.223,3.5,3.5,0,0,0-.736-3.776Z" transform="translate(-0.5 -34.206)" fill="#e2f3fe"/><path d="M40.68,111.8a17.142,17.142,0,0,1,2.135,7.116h2.4s.267-5.248,2.135-7.116h-6.67Z" transform="translate(-25.964 -83.378)" fill="#b18e50"/><path d="M46.048,114.25a6.153,6.153,0,0,1,1.311-2.45H40.69a19.6,19.6,0,0,1,1.128,2.45h4.23Z" transform="translate(-25.97 -83.378)" fill="#b18e50" opacity="0.7"/><path d="M156.52,111.8a17.142,17.142,0,0,1,2.135,7.116h2.4s.267-5.248,2.135-7.116h-6.67Z" transform="translate(-99.376 -83.378)" fill="#b18e50"/><path d="M161.888,114.25a6.153,6.153,0,0,1,1.311-2.45h-6.67a19.6,19.6,0,0,1,1.128,2.45Z" transform="translate(-99.382 -83.378)" fill="#b18e50" opacity="0.7"/><path d="M23.332,34.342H14.56s-8.116-.267-9.424,2.4,0,5.2,6.285,5.336H71.9c1.461-.187,6.933-.249,7.069-3.468.132-3.069-2.355-3.868-7.593-4.4l-48.046.132Z" transform="translate(-3.148 -34.206)" fill="#c9e8fb"/><path d="M23.332,34.342H14.56s-8.116-.267-9.424,2.4,0,5.2,6.285,5.336H71.9c1.461-.187,6.933-.249,7.069-3.468.132-3.069-2.355-3.868-7.593-4.4l-48.046.132Z" transform="translate(-3.148 -34.206)" fill="#c9e8fb"/><g transform="translate(2.348 1.333)"><path d="M6.962,41.576S5.493,38.239,18.3,37.84H65.933s11.076,0,12.01,1.6c0,0,1.469,1.337.267,2.267L13.5,43.843s-4.67.667-6.538-2.267Z" transform="translate(-6.91 -37.84)" fill="url(#a)"/></g><path d="M7.485,36a62.809,62.809,0,0,1,8.406-.868c4.937-.2,54.635-.8,54.635-.8s2.051-.055,4,.088c-.579-.081-1.2-.15-1.872-.216l-48.965.132h-8.94s-8.27-.267-9.607,2.4a3.215,3.215,0,0,0-.2,2.923,2.968,2.968,0,0,1,2.538-3.663Z" transform="translate(-3.149 -34.2)" fill="#66b0d1"/><path d="M13.784,54.6a22.373,22.373,0,0,0,5.336.4H76.158l-54.7.934s-5.2.667-7.673-1.333Z" transform="translate(-8.916 -47.128)" fill="#fff"/><path d="M89.165,40.464A3.243,3.243,0,0,1,89.7,42.57c-.092,2.146-2.6,2.89-4.71,3.2.2.037,1.6.308,1.044.93-.6.667-5.27,1.469-5.27,1.469s-2.8,12.141-4.271,14.742-4.8,2.2-4.8,2.2H31.531c-4.534.267-7.6-3.736-7.6-3.736L19.36,55.726l3.033,6.856s1.469,4.6,6.073,4.937H69.226s9.717.579,11.742-3.069c1.7-3.055,5.714-16.991,5.714-16.991a9.026,9.026,0,0,0,3.223-3.223,3.5,3.5,0,0,0-.733-3.776Z" transform="translate(-12.452 -38.167)" fill="#cfdde6"/><path d="M77.213,36.5c-.63-.879-1.817-1.41-3.571-1.78a35.362,35.362,0,0,0-3.633-.513l-48.965.132H12.1a26.964,26.964,0,0,0-6.974.718H5.14C3.4,35.444-1.207,36.964,1.163,42A4.364,4.364,0,0,0,3.924,43.9l6.512,14.724s1.469,4.6,6.073,4.937H57.27s9.717.579,11.742-3.069c1.7-3.055,5.714-16.991,5.714-16.991a9.026,9.026,0,0,0,3.223-3.223,3.5,3.5,0,0,0-.736-3.776Z" transform="translate(-0.5 -34.206)" fill="none" stroke="#82b6d1" stroke-miterlimit="10" stroke-width="1"/><path d="M16.4,54.149l.718-.022c.469-.011,1.154-.033,2.025-.055,1.743-.033,4.234-.106,7.223-.15l4.827-.07,5.388-.055,5.761-.033c1.963,0,3.956-.011,5.948-.015s3.985.007,5.948.015L60,53.8c3.736.029,7.223.07,10.215.121s5.483.117,7.226.154c.872.026,1.557.044,2.025.055l.718.022-.718.022c-.469.015-1.154.033-2.025.055-1.743.033-4.234.106-7.226.154s-6.475.1-10.215.121l-5.761.033c-1.963,0-3.956.011-5.948.015s-3.985-.011-5.948-.015L36.581,54.5l-5.388-.055-4.827-.07c-2.989-.044-5.479-.117-7.223-.15-.872-.026-1.557-.044-2.025-.055l-.718-.022Z" transform="translate(-10.576 -46.59)" fill="#85b6d0"/></g><path d="M23.332,34.342H14.56s-8.116-.267-9.424,2.4,0,5.2,6.285,5.336H71.9c1.461-.187,6.933-.249,7.069-3.468.132-3.069-2.355-3.868-7.593-4.4l-48.046.132Z" transform="translate(-2.965 -21.68)" fill="#c9e8fb"/><g transform="translate(4.26)"><g transform="translate(0 6.574)"><path d="M18.926,21.6a3.648,3.648,0,1,1-3.648-3.648A3.648,3.648,0,0,1,18.926,21.6Z" transform="translate(-11.63 -17.95)" fill="#c9e8fb" opacity="0.7"/><path d="M15.278,17.95A3.648,3.648,0,1,0,18.926,21.6,3.648,3.648,0,0,0,15.278,17.95Zm0,5.911A2.758,2.758,0,1,1,18.036,21.1,2.757,2.757,0,0,1,15.278,23.861Z" transform="translate(-11.63 -17.95)" fill="#c9e8fb" opacity="0.5"/><g transform="translate(1.377 0.758)"><path d="M19.287,21.968a1.948,1.948,0,1,1-1.948-1.948A1.948,1.948,0,0,1,19.287,21.968Z" transform="translate(-15.39 -20.02)" fill="url(#b)"/></g><g transform="translate(0.787 4.49)"><path d="M15.033,30.836a.626.626,0,1,1-.626-.626.626.626,0,0,1,.626.626Z" transform="translate(-13.78 -30.21)" fill="url(#c)"/></g></g><g transform="translate(8.878 13.87)"><path d="M39.7,39.786a1.916,1.916,0,1,1-1.916-1.916A1.915,1.915,0,0,1,39.7,39.786Z" transform="translate(-35.87 -37.87)" fill="#c9e8fb" opacity="0.7"/><path d="M37.786,37.87A1.916,1.916,0,1,0,39.7,39.786,1.915,1.915,0,0,0,37.786,37.87Zm0,3.1a1.447,1.447,0,1,1,1.447-1.447A1.447,1.447,0,0,1,37.786,40.972Z" transform="translate(-35.87 -37.87)" fill="#c9e8fb" opacity="0.5"/><g transform="translate(0.725 0.399)"><path d="M39.894,39.982a1.022,1.022,0,1,1-1.022-1.022A1.022,1.022,0,0,1,39.894,39.982Z" transform="translate(-37.85 -38.96)" fill="url(#d)"/></g><g transform="translate(0.414 2.359)"><path d="M37.659,44.64a.33.33,0,1,1-.33-.33A.328.328,0,0,1,37.659,44.64Z" transform="translate(-37 -44.31)" fill="url(#e)"/></g></g><g transform="translate(11.057)"><path d="M45.651,1.916A1.916,1.916,0,1,1,43.736,0,1.915,1.915,0,0,1,45.651,1.916Z" transform="translate(-41.82)" fill="#c9e8fb" opacity="0.7"/><path d="M43.736,0a1.916,1.916,0,1,0,1.916,1.916A1.915,1.915,0,0,0,43.736,0Zm0,3.1a1.447,1.447,0,1,1,1.447-1.447A1.447,1.447,0,0,1,43.736,3.1Z" transform="translate(-41.82)" fill="#c9e8fb" opacity="0.5"/><g transform="translate(0.725 0.399)"><path d="M45.844,2.112A1.022,1.022,0,1,1,44.822,1.09,1.022,1.022,0,0,1,45.844,2.112Z" transform="translate(-43.8 -1.09)" fill="url(#f)"/></g><g transform="translate(0.414 2.359)"><path d="M43.609,6.77a.33.33,0,1,1-.33-.33A.328.328,0,0,1,43.609,6.77Z" transform="translate(-42.95 -6.44)" fill="url(#g)"/></g></g></g><g transform="translate(0 4.054)"><g transform="translate(58.217 6.809)"><path d="M164.136,32.263a2.593,2.593,0,1,1-2.593-2.593A2.593,2.593,0,0,1,164.136,32.263Z" transform="translate(-158.95 -29.666)" fill="#c9e8fb" opacity="0.7"/><path d="M161.543,29.66a2.593,2.593,0,1,0,2.593,2.593A2.593,2.593,0,0,0,161.543,29.66Zm0,4.2A1.959,1.959,0,1,1,163.5,31.9,1.959,1.959,0,0,1,161.543,33.861Z" transform="translate(-158.95 -29.66)" fill="#c9e8fb" opacity="0.5"/><g transform="translate(0.982 0.542)"><path d="M164.4,32.524a1.384,1.384,0,1,1-1.384-1.384A1.383,1.383,0,0,1,164.4,32.524Z" transform="translate(-161.63 -31.14)" fill="url(#h)"/></g><g transform="translate(0.557 3.194)"><path d="M161.364,38.827a.447.447,0,1,1-.447-.447A.446.446,0,0,1,161.364,38.827Z" transform="translate(-160.47 -38.38)" fill="url(#i)"/></g></g><g transform="translate(67.055 3.461)"><circle cx="1.362" cy="1.362" r="1.362" fill="#c9e8fb" opacity="0.7"/><path d="M184.442,20.53a1.362,1.362,0,1,0,1.362,1.362A1.362,1.362,0,0,0,184.442,20.53Zm0,2.2a1.029,1.029,0,1,1,1.029-1.029A1.03,1.03,0,0,1,184.442,22.735Z" transform="translate(-183.08 -20.526)" fill="#c9e8fb" opacity="0.5"/><g transform="translate(0.516 0.286)"><path d="M185.944,22.029a.727.727,0,1,1-.729-.729A.725.725,0,0,1,185.944,22.029Z" transform="translate(-184.49 -21.3)" fill="url(#j)"/></g><g transform="translate(0.293 1.677)"><path d="M184.349,25.334a.234.234,0,1,1-.234-.234A.236.236,0,0,1,184.349,25.334Z" transform="translate(-183.88 -25.1)" fill="url(#k)"/></g></g><path d="M2.725,12.432A1.362,1.362,0,1,1,1.362,11.07,1.362,1.362,0,0,1,2.725,12.432Z" transform="translate(0 -11.07)" fill="#c9e8fb" opacity="0.7"/><path d="M1.362,11.074a1.361,1.361,0,1,0,1.362,1.359,1.361,1.361,0,0,0-1.362-1.359Zm0,2.2a1.029,1.029,0,1,1,1.029-1.029,1.03,1.03,0,0,1-1.029,1.029Z" transform="translate(0 -11.07)" fill="#c9e8fb" opacity="0.5"/><g transform="translate(0.516 0.286)"><path d="M2.864,12.579a.727.727,0,1,1-.729-.729A.725.725,0,0,1,2.864,12.579Z" transform="translate(-1.41 -11.85)" fill="url(#l)"/></g><g transform="translate(0.293 1.677)"><path d="M1.269,15.884a.234.234,0,1,1-.234-.234A.236.236,0,0,1,1.269,15.884Z" transform="translate(-0.8 -15.65)" fill="url(#m)"/></g></g><g transform="translate(1.717 7.331)" clip-path="url(#n)"><g transform="translate(5.89 2.492)"><path d="M52.807,34.2a2.5,2.5,0,0,0-2.9-.923,1.679,1.679,0,0,0-2.63-1.2.892.892,0,0,0-.092.073,3.105,3.105,0,0,0-4.838-2.055,3.391,3.391,0,0,0-.282-.483,3.7,3.7,0,0,0-5.146-.923c-.04.029-.077.059-.114.088a2.5,2.5,0,0,0-2.439-1.952,2.465,2.465,0,0,0-2.41,1.85,1.65,1.65,0,0,0-.813-.212,1.677,1.677,0,0,0-1.677,1.677c0,.04,0,.077,0,.117a3.1,3.1,0,0,0-4.15,4.128,4.194,4.194,0,0,0-.249.454,2.557,2.557,0,1,0,.037,3.692,4.21,4.21,0,0,0,7.735-.476A4.205,4.205,0,0,0,38,37.478c.048.077.092.154.143.227a4.217,4.217,0,0,0,4.571,1.655,4.212,4.212,0,1,0,8.292-1.253,2.469,2.469,0,0,0,1.176-.436,2.5,2.5,0,0,0,.623-3.479Z" transform="translate(-20.77 -26.82)" fill="#fffefe"/><path d="M53.252,35.526a2.413,2.413,0,0,0-2.795-.89,1.6,1.6,0,0,0-.282-.758,1.618,1.618,0,0,0-2.256-.4.816.816,0,0,0-.088.07,2.992,2.992,0,0,0-4.666-1.981A3.542,3.542,0,0,0,37.928,30.2c-.04.029-.073.059-.11.088a2.411,2.411,0,0,0-2.351-1.883A2.378,2.378,0,0,0,33.141,30.2a1.62,1.62,0,0,0-2.4,1.417.592.592,0,0,0,.007.114,3,3,0,0,0-4.011,3.985,3.934,3.934,0,0,0-.242.44,2.468,2.468,0,1,0,.037,3.564A4.064,4.064,0,0,0,34,39.255a4.062,4.062,0,0,0,4.977-.549c.044.073.088.147.136.22a4.069,4.069,0,0,0,4.413,1.6,4.066,4.066,0,1,0,8-1.209,2.379,2.379,0,0,0,1.135-.421,2.411,2.411,0,0,0,.6-3.359Z" transform="translate(-21.765 -27.828)" fill="#e2f3fd"/><path d="M134.86,40.541a2.109,2.109,0,0,0-2.56-.194,1.415,1.415,0,0,0-2.392-.48c-.022.026-.044.051-.062.077a2.619,2.619,0,0,0-4.373-.747,3.191,3.191,0,0,0-.326-.344,3.122,3.122,0,0,0-4.406.242c-.029.033-.051.062-.077.1a2.106,2.106,0,0,0-4,.861,1.417,1.417,0,0,0-1.762,1.692.946.946,0,0,0,.029.1A2.617,2.617,0,0,0,111.822,45a2.6,2.6,0,0,0,.5,1.029,3.425,3.425,0,0,0-.117.421,2.156,2.156,0,1,0-.571,3.97,2.163,2.163,0,0,0,1.326-.945,3.551,3.551,0,0,0,6.259-1.894,3.545,3.545,0,0,0,4.12-1.469c.051.051.1.106.161.157a3.552,3.552,0,0,0,4.076.469,3.5,3.5,0,0,0,1.036,1.641,3.556,3.556,0,0,0,5.531-4.285,2.108,2.108,0,0,0,.718-3.564Z" transform="translate(-76.672 -33.908)" fill="#fffefe"/><path d="M134.86,42.115a2.109,2.109,0,0,0-2.56-.194,1.415,1.415,0,0,0-2.392-.48c-.022.026-.044.051-.062.077a2.6,2.6,0,0,0-.67-.949,2.627,2.627,0,0,0-3.7.2,3.191,3.191,0,0,0-.326-.344,3.119,3.119,0,0,0-4.406.245.971.971,0,0,0-.077.1,2.106,2.106,0,0,0-4,.861A1.417,1.417,0,0,0,114.9,43.32a.946.946,0,0,0,.029.1,2.617,2.617,0,0,0-3.11,3.164,2.6,2.6,0,0,0,.5,1.029,3.425,3.425,0,0,0-.117.421,2.156,2.156,0,1,0-.571,3.97,2.163,2.163,0,0,0,1.326-.945,3.551,3.551,0,0,0,6.259-1.894,3.545,3.545,0,0,0,4.12-1.469,2.187,2.187,0,0,0,.161.157,3.552,3.552,0,0,0,4.076.469,3.517,3.517,0,0,0,1.036,1.641,3.556,3.556,0,0,0,5.531-4.285,2.108,2.108,0,0,0,.718-3.564Z" transform="translate(-76.672 -34.907)" fill="#e2f3fd"/><path d="M102.056,49.919a2.109,2.109,0,0,0-2.56-.194,1.415,1.415,0,0,0-2.392-.48c-.022.026-.04.051-.062.077a2.6,2.6,0,0,0-.67-.949,2.627,2.627,0,0,0-3.7.2,2.884,2.884,0,0,0-.326-.344,3.122,3.122,0,0,0-4.406.242.969.969,0,0,0-.077.1,2.106,2.106,0,0,0-4,.861,1.4,1.4,0,0,0-.707-.015A1.418,1.418,0,0,0,82.1,51.12a.946.946,0,0,0,.029.1,2.618,2.618,0,0,0-3.11,3.168,2.6,2.6,0,0,0,.5,1.029,3.423,3.423,0,0,0-.117.421,2.156,2.156,0,1,0-.571,3.97,2.163,2.163,0,0,0,1.326-.945,3.553,3.553,0,0,0,6.259-1.9,3.545,3.545,0,0,0,4.12-1.469,2.184,2.184,0,0,0,.161.157,3.552,3.552,0,0,0,4.076.469,3.517,3.517,0,0,0,1.036,1.641,3.556,3.556,0,0,0,5.531-4.285,2.108,2.108,0,0,0,.718-3.564Z" transform="translate(-55.886 -39.851)" fill="#d4ecfb"/><path d="M102.989,51.979a1.993,1.993,0,0,0-2.414-.183,1.335,1.335,0,0,0-2.256-.454.572.572,0,0,0-.059.073,2.4,2.4,0,0,0-.634-.894,2.477,2.477,0,0,0-3.494.19,2.837,2.837,0,0,0-.308-.322,2.943,2.943,0,0,0-4.157.231c-.026.029-.048.059-.073.092a1.986,1.986,0,0,0-3.772.809,1.335,1.335,0,0,0-1.663,1.593c.007.029.018.059.026.088a2.47,2.47,0,0,0-2.458,3.959,3.789,3.789,0,0,0-.11.4,2.036,2.036,0,1,0,.707,2.857,3.353,3.353,0,0,0,5.908-1.791,3.349,3.349,0,0,0,3.893-1.384c.048.051.1.1.15.15a3.358,3.358,0,0,0,3.846.443,3.355,3.355,0,1,0,6.2-2.494A1.99,1.99,0,0,0,103,51.979Z" transform="translate(-57.401 -41.251)" fill="#fffefe"/></g></g><path d="M56.024,39.242a2.212,2.212,0,1,1-2.212-2.212A2.21,2.21,0,0,1,56.024,39.242Z" transform="translate(-32.701 -23.467)" fill="#fffefe"/><path d="M38.176,48.528a.868.868,0,1,1-.868-.868A.868.868,0,0,1,38.176,48.528Z" transform="translate(-23.094 -30.204)" fill="#fffefe"/><path d="M72.76,42.32a1.04,1.04,0,1,1-1.04-1.04A1.039,1.039,0,0,1,72.76,42.32Z" transform="translate(-44.793 -26.161)" fill="#d4ecfb"/><path d="M137.12,46.535a.725.725,0,1,1-.725-.725A.727.727,0,0,1,137.12,46.535Z" transform="translate(-85.98 -29.032)" fill="#fffefe"/></g></g><g transform="translate(38.956 16.697)"><g transform="translate(0 0)"><g transform="translate(0.183 12.526)"><path d="M77.213,36.5c-.63-.879-1.817-1.41-3.571-1.78a35.362,35.362,0,0,0-3.633-.513l-48.965.132H12.1a26.964,26.964,0,0,0-6.974.718H5.14C3.4,35.444-1.207,36.964,1.163,42A4.364,4.364,0,0,0,3.924,43.9l6.512,14.724s1.469,4.6,6.073,4.937H57.27s9.717.579,11.742-3.069c1.7-3.055,5.714-16.991,5.714-16.991a9.026,9.026,0,0,0,3.223-3.223,3.5,3.5,0,0,0-.736-3.776Z" transform="translate(-0.5 -34.206)" fill="#e2f3fe"/><path d="M40.68,111.8a17.142,17.142,0,0,1,2.135,7.116h2.4s.267-5.248,2.135-7.116h-6.67Z" transform="translate(-25.964 -83.378)" fill="#b18e50"/><path d="M46.048,114.25a6.153,6.153,0,0,1,1.311-2.45H40.69a19.6,19.6,0,0,1,1.128,2.45h4.23Z" transform="translate(-25.97 -83.378)" fill="#b18e50" opacity="0.7"/><path d="M156.52,111.8a17.142,17.142,0,0,1,2.135,7.116h2.4s.267-5.248,2.135-7.116h-6.67Z" transform="translate(-99.376 -83.378)" fill="#b18e50"/><path d="M161.888,114.25a6.153,6.153,0,0,1,1.311-2.45h-6.67a19.6,19.6,0,0,1,1.128,2.45Z" transform="translate(-99.382 -83.378)" fill="#b18e50" opacity="0.7"/><path d="M23.332,34.342H14.56s-8.116-.267-9.424,2.4,0,5.2,6.285,5.336H71.9c1.461-.187,6.933-.249,7.069-3.468.132-3.069-2.355-3.868-7.593-4.4l-48.046.132Z" transform="translate(-3.148 -34.206)" fill="#c9e8fb"/><path d="M23.332,34.342H14.56s-8.116-.267-9.424,2.4,0,5.2,6.285,5.336H71.9c1.461-.187,6.933-.249,7.069-3.468.132-3.069-2.355-3.868-7.593-4.4l-48.046.132Z" transform="translate(-3.148 -34.206)" fill="#c9e8fb"/><g transform="translate(2.348 1.333)"><path d="M6.962,41.576S5.493,38.239,18.3,37.84H65.933s11.076,0,12.01,1.6c0,0,1.469,1.337.267,2.267L13.5,43.843s-4.67.667-6.538-2.267Z" transform="translate(-6.91 -37.84)" fill="url(#a)"/></g><path d="M7.485,36a62.809,62.809,0,0,1,8.406-.868c4.937-.2,54.635-.8,54.635-.8s2.051-.055,4,.088c-.579-.081-1.2-.15-1.872-.216l-48.965.132h-8.94s-8.27-.267-9.607,2.4a3.215,3.215,0,0,0-.2,2.923,2.968,2.968,0,0,1,2.538-3.663Z" transform="translate(-3.149 -34.2)" fill="#66b0d1"/><path d="M13.784,54.6a22.373,22.373,0,0,0,5.336.4H76.158l-54.7.934s-5.2.667-7.673-1.333Z" transform="translate(-8.916 -47.128)" fill="#fff"/><path d="M89.165,40.464A3.243,3.243,0,0,1,89.7,42.57c-.092,2.146-2.6,2.89-4.71,3.2.2.037,1.6.308,1.044.93-.6.667-5.27,1.469-5.27,1.469s-2.8,12.141-4.271,14.742-4.8,2.2-4.8,2.2H31.531c-4.534.267-7.6-3.736-7.6-3.736L19.36,55.726l3.033,6.856s1.469,4.6,6.073,4.937H69.226s9.717.579,11.742-3.069c1.7-3.055,5.714-16.991,5.714-16.991a9.026,9.026,0,0,0,3.223-3.223,3.5,3.5,0,0,0-.733-3.776Z" transform="translate(-12.452 -38.167)" fill="#cfdde6"/><path d="M77.213,36.5c-.63-.879-1.817-1.41-3.571-1.78a35.362,35.362,0,0,0-3.633-.513l-48.965.132H12.1a26.964,26.964,0,0,0-6.974.718H5.14C3.4,35.444-1.207,36.964,1.163,42A4.364,4.364,0,0,0,3.924,43.9l6.512,14.724s1.469,4.6,6.073,4.937H57.27s9.717.579,11.742-3.069c1.7-3.055,5.714-16.991,5.714-16.991a9.026,9.026,0,0,0,3.223-3.223,3.5,3.5,0,0,0-.736-3.776Z" transform="translate(-0.5 -34.206)" fill="none" stroke="#82b6d1" stroke-miterlimit="10" stroke-width="1"/><path d="M16.4,54.149l.718-.022c.469-.011,1.154-.033,2.025-.055,1.743-.033,4.234-.106,7.223-.15l4.827-.07,5.388-.055,5.761-.033c1.963,0,3.956-.011,5.948-.015s3.985.007,5.948.015L60,53.8c3.736.029,7.223.07,10.215.121s5.483.117,7.226.154c.872.026,1.557.044,2.025.055l.718.022-.718.022c-.469.015-1.154.033-2.025.055-1.743.033-4.234.106-7.226.154s-6.475.1-10.215.121l-5.761.033c-1.963,0-3.956.011-5.948.015s-3.985-.011-5.948-.015L36.581,54.5l-5.388-.055-4.827-.07c-2.989-.044-5.479-.117-7.223-.15-.872-.026-1.557-.044-2.025-.055l-.718-.022Z" transform="translate(-10.576 -46.59)" fill="#85b6d0"/></g><path d="M23.332,34.342H14.56s-8.116-.267-9.424,2.4,0,5.2,6.285,5.336H71.9c1.461-.187,6.933-.249,7.069-3.468.132-3.069-2.355-3.868-7.593-4.4l-48.046.132Z" transform="translate(-2.965 -21.68)" fill="#c9e8fb"/><g transform="translate(4.26)"><g transform="translate(0 6.574)"><path d="M18.926,21.6a3.648,3.648,0,1,1-3.648-3.648A3.648,3.648,0,0,1,18.926,21.6Z" transform="translate(-11.63 -17.95)" fill="#c9e8fb" opacity="0.7"/><path d="M15.278,17.95A3.648,3.648,0,1,0,18.926,21.6,3.648,3.648,0,0,0,15.278,17.95Zm0,5.911A2.758,2.758,0,1,1,18.036,21.1,2.757,2.757,0,0,1,15.278,23.861Z" transform="translate(-11.63 -17.95)" fill="#c9e8fb" opacity="0.5"/><g transform="translate(1.377 0.758)"><path d="M19.287,21.968a1.948,1.948,0,1,1-1.948-1.948A1.948,1.948,0,0,1,19.287,21.968Z" transform="translate(-15.39 -20.02)" fill="url(#b)"/></g><g transform="translate(0.787 4.49)"><path d="M15.033,30.836a.626.626,0,1,1-.626-.626.626.626,0,0,1,.626.626Z" transform="translate(-13.78 -30.21)" fill="url(#c)"/></g></g><g transform="translate(8.878 13.87)"><path d="M39.7,39.786a1.916,1.916,0,1,1-1.916-1.916A1.915,1.915,0,0,1,39.7,39.786Z" transform="translate(-35.87 -37.87)" fill="#c9e8fb" opacity="0.7"/><path d="M37.786,37.87A1.916,1.916,0,1,0,39.7,39.786,1.915,1.915,0,0,0,37.786,37.87Zm0,3.1a1.447,1.447,0,1,1,1.447-1.447A1.447,1.447,0,0,1,37.786,40.972Z" transform="translate(-35.87 -37.87)" fill="#c9e8fb" opacity="0.5"/><g transform="translate(0.725 0.399)"><path d="M39.894,39.982a1.022,1.022,0,1,1-1.022-1.022A1.022,1.022,0,0,1,39.894,39.982Z" transform="translate(-37.85 -38.96)" fill="url(#d)"/></g><g transform="translate(0.414 2.359)"><path d="M37.659,44.64a.33.33,0,1,1-.33-.33A.328.328,0,0,1,37.659,44.64Z" transform="translate(-37 -44.31)" fill="url(#e)"/></g></g><g transform="translate(11.057)"><path d="M45.651,1.916A1.916,1.916,0,1,1,43.736,0,1.915,1.915,0,0,1,45.651,1.916Z" transform="translate(-41.82)" fill="#c9e8fb" opacity="0.7"/><path d="M43.736,0a1.916,1.916,0,1,0,1.916,1.916A1.915,1.915,0,0,0,43.736,0Zm0,3.1a1.447,1.447,0,1,1,1.447-1.447A1.447,1.447,0,0,1,43.736,3.1Z" transform="translate(-41.82)" fill="#c9e8fb" opacity="0.5"/><g transform="translate(0.725 0.399)"><path d="M45.844,2.112A1.022,1.022,0,1,1,44.822,1.09,1.022,1.022,0,0,1,45.844,2.112Z" transform="translate(-43.8 -1.09)" fill="url(#f)"/></g><g transform="translate(0.414 2.359)"><path d="M43.609,6.77a.33.33,0,1,1-.33-.33A.328.328,0,0,1,43.609,6.77Z" transform="translate(-42.95 -6.44)" fill="url(#g)"/></g></g></g><g transform="translate(0 4.054)"><g transform="translate(58.217 6.809)"><path d="M164.136,32.263a2.593,2.593,0,1,1-2.593-2.593A2.593,2.593,0,0,1,164.136,32.263Z" transform="translate(-158.95 -29.666)" fill="#c9e8fb" opacity="0.7"/><path d="M161.543,29.66a2.593,2.593,0,1,0,2.593,2.593A2.593,2.593,0,0,0,161.543,29.66Zm0,4.2A1.959,1.959,0,1,1,163.5,31.9,1.959,1.959,0,0,1,161.543,33.861Z" transform="translate(-158.95 -29.66)" fill="#c9e8fb" opacity="0.5"/><g transform="translate(0.982 0.542)"><path d="M164.4,32.524a1.384,1.384,0,1,1-1.384-1.384A1.383,1.383,0,0,1,164.4,32.524Z" transform="translate(-161.63 -31.14)" fill="url(#h)"/></g><g transform="translate(0.557 3.194)"><path d="M161.364,38.827a.447.447,0,1,1-.447-.447A.446.446,0,0,1,161.364,38.827Z" transform="translate(-160.47 -38.38)" fill="url(#i)"/></g></g><g transform="translate(67.055 3.461)"><circle cx="1.362" cy="1.362" r="1.362" fill="#c9e8fb" opacity="0.7"/><path d="M184.442,20.53a1.362,1.362,0,1,0,1.362,1.362A1.362,1.362,0,0,0,184.442,20.53Zm0,2.2a1.029,1.029,0,1,1,1.029-1.029A1.03,1.03,0,0,1,184.442,22.735Z" transform="translate(-183.08 -20.526)" fill="#c9e8fb" opacity="0.5"/><g transform="translate(0.516 0.286)"><path d="M185.944,22.029a.727.727,0,1,1-.729-.729A.725.725,0,0,1,185.944,22.029Z" transform="translate(-184.49 -21.3)" fill="url(#j)"/></g><g transform="translate(0.293 1.677)"><path d="M184.349,25.334a.234.234,0,1,1-.234-.234A.236.236,0,0,1,184.349,25.334Z" transform="translate(-183.88 -25.1)" fill="url(#k)"/></g></g><path d="M2.725,12.432A1.362,1.362,0,1,1,1.362,11.07,1.362,1.362,0,0,1,2.725,12.432Z" transform="translate(0 -11.07)" fill="#c9e8fb" opacity="0.7"/><path d="M1.362,11.074a1.361,1.361,0,1,0,1.362,1.359,1.361,1.361,0,0,0-1.362-1.359Zm0,2.2a1.029,1.029,0,1,1,1.029-1.029,1.03,1.03,0,0,1-1.029,1.029Z" transform="translate(0 -11.07)" fill="#c9e8fb" opacity="0.5"/><g transform="translate(0.516 0.286)"><path d="M2.864,12.579a.727.727,0,1,1-.729-.729A.725.725,0,0,1,2.864,12.579Z" transform="translate(-1.41 -11.85)" fill="url(#l)"/></g><g transform="translate(0.293 1.677)"><path d="M1.269,15.884a.234.234,0,1,1-.234-.234A.236.236,0,0,1,1.269,15.884Z" transform="translate(-0.8 -15.65)" fill="url(#m)"/></g></g><g transform="translate(1.717 7.331)" clip-path="url(#n)"><g transform="translate(5.89 2.492)"><path d="M52.807,34.2a2.5,2.5,0,0,0-2.9-.923,1.679,1.679,0,0,0-2.63-1.2.892.892,0,0,0-.092.073,3.105,3.105,0,0,0-4.838-2.055,3.391,3.391,0,0,0-.282-.483,3.7,3.7,0,0,0-5.146-.923c-.04.029-.077.059-.114.088a2.5,2.5,0,0,0-2.439-1.952,2.465,2.465,0,0,0-2.41,1.85,1.65,1.65,0,0,0-.813-.212,1.677,1.677,0,0,0-1.677,1.677c0,.04,0,.077,0,.117a3.1,3.1,0,0,0-4.15,4.128,4.194,4.194,0,0,0-.249.454,2.557,2.557,0,1,0,.037,3.692,4.21,4.21,0,0,0,7.735-.476A4.205,4.205,0,0,0,38,37.478c.048.077.092.154.143.227a4.217,4.217,0,0,0,4.571,1.655,4.212,4.212,0,1,0,8.292-1.253,2.469,2.469,0,0,0,1.176-.436,2.5,2.5,0,0,0,.623-3.479Z" transform="translate(-20.77 -26.82)" fill="#fffefe"/><path d="M53.252,35.526a2.413,2.413,0,0,0-2.795-.89,1.6,1.6,0,0,0-.282-.758,1.618,1.618,0,0,0-2.256-.4.816.816,0,0,0-.088.07,2.992,2.992,0,0,0-4.666-1.981A3.542,3.542,0,0,0,37.928,30.2c-.04.029-.073.059-.11.088a2.411,2.411,0,0,0-2.351-1.883A2.378,2.378,0,0,0,33.141,30.2a1.62,1.62,0,0,0-2.4,1.417.592.592,0,0,0,.007.114,3,3,0,0,0-4.011,3.985,3.934,3.934,0,0,0-.242.44,2.468,2.468,0,1,0,.037,3.564A4.064,4.064,0,0,0,34,39.255a4.062,4.062,0,0,0,4.977-.549c.044.073.088.147.136.22a4.069,4.069,0,0,0,4.413,1.6,4.066,4.066,0,1,0,8-1.209,2.379,2.379,0,0,0,1.135-.421,2.411,2.411,0,0,0,.6-3.359Z" transform="translate(-21.765 -27.828)" fill="#e2f3fd"/><path d="M134.86,40.541a2.109,2.109,0,0,0-2.56-.194,1.415,1.415,0,0,0-2.392-.48c-.022.026-.044.051-.062.077a2.619,2.619,0,0,0-4.373-.747,3.191,3.191,0,0,0-.326-.344,3.122,3.122,0,0,0-4.406.242c-.029.033-.051.062-.077.1a2.106,2.106,0,0,0-4,.861,1.417,1.417,0,0,0-1.762,1.692.946.946,0,0,0,.029.1A2.617,2.617,0,0,0,111.822,45a2.6,2.6,0,0,0,.5,1.029,3.425,3.425,0,0,0-.117.421,2.156,2.156,0,1,0-.571,3.97,2.163,2.163,0,0,0,1.326-.945,3.551,3.551,0,0,0,6.259-1.894,3.545,3.545,0,0,0,4.12-1.469c.051.051.1.106.161.157a3.552,3.552,0,0,0,4.076.469,3.5,3.5,0,0,0,1.036,1.641,3.556,3.556,0,0,0,5.531-4.285,2.108,2.108,0,0,0,.718-3.564Z" transform="translate(-76.672 -33.908)" fill="#fffefe"/><path d="M134.86,42.115a2.109,2.109,0,0,0-2.56-.194,1.415,1.415,0,0,0-2.392-.48c-.022.026-.044.051-.062.077a2.6,2.6,0,0,0-.67-.949,2.627,2.627,0,0,0-3.7.2,3.191,3.191,0,0,0-.326-.344,3.119,3.119,0,0,0-4.406.245.971.971,0,0,0-.077.1,2.106,2.106,0,0,0-4,.861A1.417,1.417,0,0,0,114.9,43.32a.946.946,0,0,0,.029.1,2.617,2.617,0,0,0-3.11,3.164,2.6,2.6,0,0,0,.5,1.029,3.425,3.425,0,0,0-.117.421,2.156,2.156,0,1,0-.571,3.97,2.163,2.163,0,0,0,1.326-.945,3.551,3.551,0,0,0,6.259-1.894,3.545,3.545,0,0,0,4.12-1.469,2.187,2.187,0,0,0,.161.157,3.552,3.552,0,0,0,4.076.469,3.517,3.517,0,0,0,1.036,1.641,3.556,3.556,0,0,0,5.531-4.285,2.108,2.108,0,0,0,.718-3.564Z" transform="translate(-76.672 -34.907)" fill="#e2f3fd"/><path d="M102.056,49.919a2.109,2.109,0,0,0-2.56-.194,1.415,1.415,0,0,0-2.392-.48c-.022.026-.04.051-.062.077a2.6,2.6,0,0,0-.67-.949,2.627,2.627,0,0,0-3.7.2,2.884,2.884,0,0,0-.326-.344,3.122,3.122,0,0,0-4.406.242.969.969,0,0,0-.077.1,2.106,2.106,0,0,0-4,.861,1.4,1.4,0,0,0-.707-.015A1.418,1.418,0,0,0,82.1,51.12a.946.946,0,0,0,.029.1,2.618,2.618,0,0,0-3.11,3.168,2.6,2.6,0,0,0,.5,1.029,3.423,3.423,0,0,0-.117.421,2.156,2.156,0,1,0-.571,3.97,2.163,2.163,0,0,0,1.326-.945,3.553,3.553,0,0,0,6.259-1.9,3.545,3.545,0,0,0,4.12-1.469,2.184,2.184,0,0,0,.161.157,3.552,3.552,0,0,0,4.076.469,3.517,3.517,0,0,0,1.036,1.641,3.556,3.556,0,0,0,5.531-4.285,2.108,2.108,0,0,0,.718-3.564Z" transform="translate(-55.886 -39.851)" fill="#d4ecfb"/><path d="M102.989,51.979a1.993,1.993,0,0,0-2.414-.183,1.335,1.335,0,0,0-2.256-.454.572.572,0,0,0-.059.073,2.4,2.4,0,0,0-.634-.894,2.477,2.477,0,0,0-3.494.19,2.837,2.837,0,0,0-.308-.322,2.943,2.943,0,0,0-4.157.231c-.026.029-.048.059-.073.092a1.986,1.986,0,0,0-3.772.809,1.335,1.335,0,0,0-1.663,1.593c.007.029.018.059.026.088a2.47,2.47,0,0,0-2.458,3.959,3.789,3.789,0,0,0-.11.4,2.036,2.036,0,1,0,.707,2.857,3.353,3.353,0,0,0,5.908-1.791,3.349,3.349,0,0,0,3.893-1.384c.048.051.1.1.15.15a3.358,3.358,0,0,0,3.846.443,3.355,3.355,0,1,0,6.2-2.494A1.99,1.99,0,0,0,103,51.979Z" transform="translate(-57.401 -41.251)" fill="#fffefe"/></g></g><path d="M56.024,39.242a2.212,2.212,0,1,1-2.212-2.212A2.21,2.21,0,0,1,56.024,39.242Z" transform="translate(-32.701 -23.467)" fill="#fffefe"/><path d="M38.176,48.528a.868.868,0,1,1-.868-.868A.868.868,0,0,1,38.176,48.528Z" transform="translate(-23.094 -30.204)" fill="#fffefe"/><path d="M72.76,42.32a1.04,1.04,0,1,1-1.04-1.04A1.039,1.039,0,0,1,72.76,42.32Z" transform="translate(-44.793 -26.161)" fill="#d4ecfb"/><path d="M137.12,46.535a.725.725,0,1,1-.725-.725A.727.727,0,0,1,137.12,46.535Z" transform="translate(-85.98 -29.032)" fill="#fffefe"/></g></g><g transform="translate(0 10.929)"><g transform="translate(0 0)"><g transform="translate(0.183 12.526)"><path d="M77.213,36.5c-.63-.879-1.817-1.41-3.571-1.78a35.362,35.362,0,0,0-3.633-.513l-48.965.132H12.1a26.964,26.964,0,0,0-6.974.718H5.14C3.4,35.444-1.207,36.964,1.163,42A4.364,4.364,0,0,0,3.924,43.9l6.512,14.724s1.469,4.6,6.073,4.937H57.27s9.717.579,11.742-3.069c1.7-3.055,5.714-16.991,5.714-16.991a9.026,9.026,0,0,0,3.223-3.223,3.5,3.5,0,0,0-.736-3.776Z" transform="translate(-0.5 -34.206)" fill="#e2f3fe"/><path d="M40.68,111.8a17.142,17.142,0,0,1,2.135,7.116h2.4s.267-5.248,2.135-7.116h-6.67Z" transform="translate(-25.964 -83.378)" fill="#b18e50"/><path d="M46.048,114.25a6.153,6.153,0,0,1,1.311-2.45H40.69a19.6,19.6,0,0,1,1.128,2.45h4.23Z" transform="translate(-25.97 -83.378)" fill="#b18e50" opacity="0.7"/><path d="M156.52,111.8a17.142,17.142,0,0,1,2.135,7.116h2.4s.267-5.248,2.135-7.116h-6.67Z" transform="translate(-99.376 -83.378)" fill="#b18e50"/><path d="M161.888,114.25a6.153,6.153,0,0,1,1.311-2.45h-6.67a19.6,19.6,0,0,1,1.128,2.45Z" transform="translate(-99.382 -83.378)" fill="#b18e50" opacity="0.7"/><path d="M23.332,34.342H14.56s-8.116-.267-9.424,2.4,0,5.2,6.285,5.336H71.9c1.461-.187,6.933-.249,7.069-3.468.132-3.069-2.355-3.868-7.593-4.4l-48.046.132Z" transform="translate(-3.148 -34.206)" fill="#c9e8fb"/><path d="M23.332,34.342H14.56s-8.116-.267-9.424,2.4,0,5.2,6.285,5.336H71.9c1.461-.187,6.933-.249,7.069-3.468.132-3.069-2.355-3.868-7.593-4.4l-48.046.132Z" transform="translate(-3.148 -34.206)" fill="#c9e8fb"/><g transform="translate(2.348 1.333)"><path d="M6.962,41.576S5.493,38.239,18.3,37.84H65.933s11.076,0,12.01,1.6c0,0,1.469,1.337.267,2.267L13.5,43.843s-4.67.667-6.538-2.267Z" transform="translate(-6.91 -37.84)" fill="url(#a)"/></g><path d="M7.485,36a62.809,62.809,0,0,1,8.406-.868c4.937-.2,54.635-.8,54.635-.8s2.051-.055,4,.088c-.579-.081-1.2-.15-1.872-.216l-48.965.132h-8.94s-8.27-.267-9.607,2.4a3.215,3.215,0,0,0-.2,2.923,2.968,2.968,0,0,1,2.538-3.663Z" transform="translate(-3.149 -34.2)" fill="#66b0d1"/><path d="M13.784,54.6a22.373,22.373,0,0,0,5.336.4H76.158l-54.7.934s-5.2.667-7.673-1.333Z" transform="translate(-8.916 -47.128)" fill="#fff"/><path d="M89.165,40.464A3.243,3.243,0,0,1,89.7,42.57c-.092,2.146-2.6,2.89-4.71,3.2.2.037,1.6.308,1.044.93-.6.667-5.27,1.469-5.27,1.469s-2.8,12.141-4.271,14.742-4.8,2.2-4.8,2.2H31.531c-4.534.267-7.6-3.736-7.6-3.736L19.36,55.726l3.033,6.856s1.469,4.6,6.073,4.937H69.226s9.717.579,11.742-3.069c1.7-3.055,5.714-16.991,5.714-16.991a9.026,9.026,0,0,0,3.223-3.223,3.5,3.5,0,0,0-.733-3.776Z" transform="translate(-12.452 -38.167)" fill="#cfdde6"/><path d="M77.213,36.5c-.63-.879-1.817-1.41-3.571-1.78a35.362,35.362,0,0,0-3.633-.513l-48.965.132H12.1a26.964,26.964,0,0,0-6.974.718H5.14C3.4,35.444-1.207,36.964,1.163,42A4.364,4.364,0,0,0,3.924,43.9l6.512,14.724s1.469,4.6,6.073,4.937H57.27s9.717.579,11.742-3.069c1.7-3.055,5.714-16.991,5.714-16.991a9.026,9.026,0,0,0,3.223-3.223,3.5,3.5,0,0,0-.736-3.776Z" transform="translate(-0.5 -34.206)" fill="none" stroke="#82b6d1" stroke-miterlimit="10" stroke-width="1"/><path d="M16.4,54.149l.718-.022c.469-.011,1.154-.033,2.025-.055,1.743-.033,4.234-.106,7.223-.15l4.827-.07,5.388-.055,5.761-.033c1.963,0,3.956-.011,5.948-.015s3.985.007,5.948.015L60,53.8c3.736.029,7.223.07,10.215.121s5.483.117,7.226.154c.872.026,1.557.044,2.025.055l.718.022-.718.022c-.469.015-1.154.033-2.025.055-1.743.033-4.234.106-7.226.154s-6.475.1-10.215.121l-5.761.033c-1.963,0-3.956.011-5.948.015s-3.985-.011-5.948-.015L36.581,54.5l-5.388-.055-4.827-.07c-2.989-.044-5.479-.117-7.223-.15-.872-.026-1.557-.044-2.025-.055l-.718-.022Z" transform="translate(-10.576 -46.59)" fill="#85b6d0"/></g><path d="M23.332,34.342H14.56s-8.116-.267-9.424,2.4,0,5.2,6.285,5.336H71.9c1.461-.187,6.933-.249,7.069-3.468.132-3.069-2.355-3.868-7.593-4.4l-48.046.132Z" transform="translate(-2.965 -21.68)" fill="#c9e8fb"/><g transform="translate(4.26)"><g transform="translate(0 6.574)"><path d="M18.926,21.6a3.648,3.648,0,1,1-3.648-3.648A3.648,3.648,0,0,1,18.926,21.6Z" transform="translate(-11.63 -17.95)" fill="#c9e8fb" opacity="0.7"/><path d="M15.278,17.95A3.648,3.648,0,1,0,18.926,21.6,3.648,3.648,0,0,0,15.278,17.95Zm0,5.911A2.758,2.758,0,1,1,18.036,21.1,2.757,2.757,0,0,1,15.278,23.861Z" transform="translate(-11.63 -17.95)" fill="#c9e8fb" opacity="0.5"/><g transform="translate(1.377 0.758)"><path d="M19.287,21.968a1.948,1.948,0,1,1-1.948-1.948A1.948,1.948,0,0,1,19.287,21.968Z" transform="translate(-15.39 -20.02)" fill="url(#b)"/></g><g transform="translate(0.787 4.49)"><path d="M15.033,30.836a.626.626,0,1,1-.626-.626.626.626,0,0,1,.626.626Z" transform="translate(-13.78 -30.21)" fill="url(#c)"/></g></g><g transform="translate(8.878 13.87)"><path d="M39.7,39.786a1.916,1.916,0,1,1-1.916-1.916A1.915,1.915,0,0,1,39.7,39.786Z" transform="translate(-35.87 -37.87)" fill="#c9e8fb" opacity="0.7"/><path d="M37.786,37.87A1.916,1.916,0,1,0,39.7,39.786,1.915,1.915,0,0,0,37.786,37.87Zm0,3.1a1.447,1.447,0,1,1,1.447-1.447A1.447,1.447,0,0,1,37.786,40.972Z" transform="translate(-35.87 -37.87)" fill="#c9e8fb" opacity="0.5"/><g transform="translate(0.725 0.399)"><path d="M39.894,39.982a1.022,1.022,0,1,1-1.022-1.022A1.022,1.022,0,0,1,39.894,39.982Z" transform="translate(-37.85 -38.96)" fill="url(#d)"/></g><g transform="translate(0.414 2.359)"><path d="M37.659,44.64a.33.33,0,1,1-.33-.33A.328.328,0,0,1,37.659,44.64Z" transform="translate(-37 -44.31)" fill="url(#e)"/></g></g><g transform="translate(11.057)"><path d="M45.651,1.916A1.916,1.916,0,1,1,43.736,0,1.915,1.915,0,0,1,45.651,1.916Z" transform="translate(-41.82)" fill="#c9e8fb" opacity="0.7"/><path d="M43.736,0a1.916,1.916,0,1,0,1.916,1.916A1.915,1.915,0,0,0,43.736,0Zm0,3.1a1.447,1.447,0,1,1,1.447-1.447A1.447,1.447,0,0,1,43.736,3.1Z" transform="translate(-41.82)" fill="#c9e8fb" opacity="0.5"/><g transform="translate(0.725 0.399)"><path d="M45.844,2.112A1.022,1.022,0,1,1,44.822,1.09,1.022,1.022,0,0,1,45.844,2.112Z" transform="translate(-43.8 -1.09)" fill="url(#f)"/></g><g transform="translate(0.414 2.359)"><path d="M43.609,6.77a.33.33,0,1,1-.33-.33A.328.328,0,0,1,43.609,6.77Z" transform="translate(-42.95 -6.44)" fill="url(#g)"/></g></g></g><g transform="translate(0 4.054)"><g transform="translate(58.217 6.809)"><path d="M164.136,32.263a2.593,2.593,0,1,1-2.593-2.593A2.593,2.593,0,0,1,164.136,32.263Z" transform="translate(-158.95 -29.666)" fill="#c9e8fb" opacity="0.7"/><path d="M161.543,29.66a2.593,2.593,0,1,0,2.593,2.593A2.593,2.593,0,0,0,161.543,29.66Zm0,4.2A1.959,1.959,0,1,1,163.5,31.9,1.959,1.959,0,0,1,161.543,33.861Z" transform="translate(-158.95 -29.66)" fill="#c9e8fb" opacity="0.5"/><g transform="translate(0.982 0.542)"><path d="M164.4,32.524a1.384,1.384,0,1,1-1.384-1.384A1.383,1.383,0,0,1,164.4,32.524Z" transform="translate(-161.63 -31.14)" fill="url(#h)"/></g><g transform="translate(0.557 3.194)"><path d="M161.364,38.827a.447.447,0,1,1-.447-.447A.446.446,0,0,1,161.364,38.827Z" transform="translate(-160.47 -38.38)" fill="url(#i)"/></g></g><g transform="translate(67.055 3.461)"><circle cx="1.362" cy="1.362" r="1.362" fill="#c9e8fb" opacity="0.7"/><path d="M184.442,20.53a1.362,1.362,0,1,0,1.362,1.362A1.362,1.362,0,0,0,184.442,20.53Zm0,2.2a1.029,1.029,0,1,1,1.029-1.029A1.03,1.03,0,0,1,184.442,22.735Z" transform="translate(-183.08 -20.526)" fill="#c9e8fb" opacity="0.5"/><g transform="translate(0.516 0.286)"><path d="M185.944,22.029a.727.727,0,1,1-.729-.729A.725.725,0,0,1,185.944,22.029Z" transform="translate(-184.49 -21.3)" fill="url(#j)"/></g><g transform="translate(0.293 1.677)"><path d="M184.349,25.334a.234.234,0,1,1-.234-.234A.236.236,0,0,1,184.349,25.334Z" transform="translate(-183.88 -25.1)" fill="url(#k)"/></g></g><path d="M2.725,12.432A1.362,1.362,0,1,1,1.362,11.07,1.362,1.362,0,0,1,2.725,12.432Z" transform="translate(0 -11.07)" fill="#c9e8fb" opacity="0.7"/><path d="M1.362,11.074a1.361,1.361,0,1,0,1.362,1.359,1.361,1.361,0,0,0-1.362-1.359Zm0,2.2a1.029,1.029,0,1,1,1.029-1.029,1.03,1.03,0,0,1-1.029,1.029Z" transform="translate(0 -11.07)" fill="#c9e8fb" opacity="0.5"/><g transform="translate(0.516 0.286)"><path d="M2.864,12.579a.727.727,0,1,1-.729-.729A.725.725,0,0,1,2.864,12.579Z" transform="translate(-1.41 -11.85)" fill="url(#l)"/></g><g transform="translate(0.293 1.677)"><path d="M1.269,15.884a.234.234,0,1,1-.234-.234A.236.236,0,0,1,1.269,15.884Z" transform="translate(-0.8 -15.65)" fill="url(#m)"/></g></g><g transform="translate(1.717 7.331)" clip-path="url(#n)"><g transform="translate(5.89 2.492)"><path d="M52.807,34.2a2.5,2.5,0,0,0-2.9-.923,1.679,1.679,0,0,0-2.63-1.2.892.892,0,0,0-.092.073,3.105,3.105,0,0,0-4.838-2.055,3.391,3.391,0,0,0-.282-.483,3.7,3.7,0,0,0-5.146-.923c-.04.029-.077.059-.114.088a2.5,2.5,0,0,0-2.439-1.952,2.465,2.465,0,0,0-2.41,1.85,1.65,1.65,0,0,0-.813-.212,1.677,1.677,0,0,0-1.677,1.677c0,.04,0,.077,0,.117a3.1,3.1,0,0,0-4.15,4.128,4.194,4.194,0,0,0-.249.454,2.557,2.557,0,1,0,.037,3.692,4.21,4.21,0,0,0,7.735-.476A4.205,4.205,0,0,0,38,37.478c.048.077.092.154.143.227a4.217,4.217,0,0,0,4.571,1.655,4.212,4.212,0,1,0,8.292-1.253,2.469,2.469,0,0,0,1.176-.436,2.5,2.5,0,0,0,.623-3.479Z" transform="translate(-20.77 -26.82)" fill="#fffefe"/><path d="M53.252,35.526a2.413,2.413,0,0,0-2.795-.89,1.6,1.6,0,0,0-.282-.758,1.618,1.618,0,0,0-2.256-.4.816.816,0,0,0-.088.07,2.992,2.992,0,0,0-4.666-1.981A3.542,3.542,0,0,0,37.928,30.2c-.04.029-.073.059-.11.088a2.411,2.411,0,0,0-2.351-1.883A2.378,2.378,0,0,0,33.141,30.2a1.62,1.62,0,0,0-2.4,1.417.592.592,0,0,0,.007.114,3,3,0,0,0-4.011,3.985,3.934,3.934,0,0,0-.242.44,2.468,2.468,0,1,0,.037,3.564A4.064,4.064,0,0,0,34,39.255a4.062,4.062,0,0,0,4.977-.549c.044.073.088.147.136.22a4.069,4.069,0,0,0,4.413,1.6,4.066,4.066,0,1,0,8-1.209,2.379,2.379,0,0,0,1.135-.421,2.411,2.411,0,0,0,.6-3.359Z" transform="translate(-21.765 -27.828)" fill="#e2f3fd"/><path d="M134.86,40.541a2.109,2.109,0,0,0-2.56-.194,1.415,1.415,0,0,0-2.392-.48c-.022.026-.044.051-.062.077a2.619,2.619,0,0,0-4.373-.747,3.191,3.191,0,0,0-.326-.344,3.122,3.122,0,0,0-4.406.242c-.029.033-.051.062-.077.1a2.106,2.106,0,0,0-4,.861,1.417,1.417,0,0,0-1.762,1.692.946.946,0,0,0,.029.1A2.617,2.617,0,0,0,111.822,45a2.6,2.6,0,0,0,.5,1.029,3.425,3.425,0,0,0-.117.421,2.156,2.156,0,1,0-.571,3.97,2.163,2.163,0,0,0,1.326-.945,3.551,3.551,0,0,0,6.259-1.894,3.545,3.545,0,0,0,4.12-1.469c.051.051.1.106.161.157a3.552,3.552,0,0,0,4.076.469,3.5,3.5,0,0,0,1.036,1.641,3.556,3.556,0,0,0,5.531-4.285,2.108,2.108,0,0,0,.718-3.564Z" transform="translate(-76.672 -33.908)" fill="#fffefe"/><path d="M134.86,42.115a2.109,2.109,0,0,0-2.56-.194,1.415,1.415,0,0,0-2.392-.48c-.022.026-.044.051-.062.077a2.6,2.6,0,0,0-.67-.949,2.627,2.627,0,0,0-3.7.2,3.191,3.191,0,0,0-.326-.344,3.119,3.119,0,0,0-4.406.245.971.971,0,0,0-.077.1,2.106,2.106,0,0,0-4,.861A1.417,1.417,0,0,0,114.9,43.32a.946.946,0,0,0,.029.1,2.617,2.617,0,0,0-3.11,3.164,2.6,2.6,0,0,0,.5,1.029,3.425,3.425,0,0,0-.117.421,2.156,2.156,0,1,0-.571,3.97,2.163,2.163,0,0,0,1.326-.945,3.551,3.551,0,0,0,6.259-1.894,3.545,3.545,0,0,0,4.12-1.469,2.187,2.187,0,0,0,.161.157,3.552,3.552,0,0,0,4.076.469,3.517,3.517,0,0,0,1.036,1.641,3.556,3.556,0,0,0,5.531-4.285,2.108,2.108,0,0,0,.718-3.564Z" transform="translate(-76.672 -34.907)" fill="#e2f3fd"/><path d="M102.056,49.919a2.109,2.109,0,0,0-2.56-.194,1.415,1.415,0,0,0-2.392-.48c-.022.026-.04.051-.062.077a2.6,2.6,0,0,0-.67-.949,2.627,2.627,0,0,0-3.7.2,2.884,2.884,0,0,0-.326-.344,3.122,3.122,0,0,0-4.406.242.969.969,0,0,0-.077.1,2.106,2.106,0,0,0-4,.861,1.4,1.4,0,0,0-.707-.015A1.418,1.418,0,0,0,82.1,51.12a.946.946,0,0,0,.029.1,2.618,2.618,0,0,0-3.11,3.168,2.6,2.6,0,0,0,.5,1.029,3.423,3.423,0,0,0-.117.421,2.156,2.156,0,1,0-.571,3.97,2.163,2.163,0,0,0,1.326-.945,3.553,3.553,0,0,0,6.259-1.9,3.545,3.545,0,0,0,4.12-1.469,2.184,2.184,0,0,0,.161.157,3.552,3.552,0,0,0,4.076.469,3.517,3.517,0,0,0,1.036,1.641,3.556,3.556,0,0,0,5.531-4.285,2.108,2.108,0,0,0,.718-3.564Z" transform="translate(-55.886 -39.851)" fill="#d4ecfb"/><path d="M102.989,51.979a1.993,1.993,0,0,0-2.414-.183,1.335,1.335,0,0,0-2.256-.454.572.572,0,0,0-.059.073,2.4,2.4,0,0,0-.634-.894,2.477,2.477,0,0,0-3.494.19,2.837,2.837,0,0,0-.308-.322,2.943,2.943,0,0,0-4.157.231c-.026.029-.048.059-.073.092a1.986,1.986,0,0,0-3.772.809,1.335,1.335,0,0,0-1.663,1.593c.007.029.018.059.026.088a2.47,2.47,0,0,0-2.458,3.959,3.789,3.789,0,0,0-.11.4,2.036,2.036,0,1,0,.707,2.857,3.353,3.353,0,0,0,5.908-1.791,3.349,3.349,0,0,0,3.893-1.384c.048.051.1.1.15.15a3.358,3.358,0,0,0,3.846.443,3.355,3.355,0,1,0,6.2-2.494A1.99,1.99,0,0,0,103,51.979Z" transform="translate(-57.401 -41.251)" fill="#fffefe"/></g></g><path d="M56.024,39.242a2.212,2.212,0,1,1-2.212-2.212A2.21,2.21,0,0,1,56.024,39.242Z" transform="translate(-32.701 -23.467)" fill="#fffefe"/><path d="M38.176,48.528a.868.868,0,1,1-.868-.868A.868.868,0,0,1,38.176,48.528Z" transform="translate(-23.094 -30.204)" fill="#fffefe"/><path d="M72.76,42.32a1.04,1.04,0,1,1-1.04-1.04A1.039,1.039,0,0,1,72.76,42.32Z" transform="translate(-44.793 -26.161)" fill="#d4ecfb"/><path d="M137.12,46.535a.725.725,0,1,1-.725-.725A.727.727,0,0,1,137.12,46.535Z" transform="translate(-85.98 -29.032)" fill="#fffefe"/></g></g></g></svg>