<svg xmlns="http://www.w3.org/2000/svg" width="75.815" height="66.429" viewBox="0 0 75.815 66.429"><g transform="translate(-892.355 -654.334)"><g transform="translate(897.98 654.334)"><g transform="translate(0 0)"><path d="M395.4,343.816a33.213,33.213,0,1,0,28.149,37.6A33.25,33.25,0,0,0,395.4,343.816Z" transform="translate(-357.464 -343.475)" fill="#c0d0c8"/><g transform="translate(5.124 3.452)"><path d="M402.829,393.348a2.409,2.409,0,0,1,.006,2c-.528.808-2.111.757-2.294,2.438a4.559,4.559,0,0,0,.961,3.554c.766,1.229.188,1.971,1.045,2.565s2.868.942,2.471,2.476-1.1,4.377-.73,5.078-.1.692-.224,1.558,1.1,1.749,1,2.853-1.2,2.184-.481,3.347.9.718,1.219,1.765.551,1.493,1.12,1.633,1.492.273,1.829.793,1.179-.419.611-.972-1.3-.364-1.087-1.452.85-1.409-.015-1.946-.716-1.163-.362-1.171,1.171-.362.487-.931-.9-.718-.37-.7a3.931,3.931,0,0,0,3.6-.838,34.826,34.826,0,0,0,2.731-3.023,3.742,3.742,0,0,0,.274-1.9c-.156-.965.586-1.211,1.864-1.087s1.13-.485,1.13-.485,1.128,1.163,1.512-3.552c0,0-.065-.775,1.386-1.45s.225-2.382-.6-2.383c0,0-.32-1.047-1-1.2s-2.242.031-2.877-.472a9.36,9.36,0,0,0-1.516-.925s.778-3.363-2.52-3.366c0,0-.476-2.424-2.133-2.368s-1.855.2-2.094-.183-.551-1.9-1.714-1.6-1.436,1.8-2.565,1.457-2.555-.25-2.217-1.379.53-2.456-1.235-2.474c0,0-.445-.182.289-.783s.4-1.533-.023-1.476-1.666.938-2.26.971-2.49-.3-1.449-2.623,6.02-2.551,6.382-1.38-.059,1.641,1.1,1.749.809-1.945.809-1.945l3.168-1.959a2.49,2.49,0,0,0,.561-.626c.231-.379,4.091-2.239,4.925-3.533s1.115-2.019,2.211-1.449,1.549.694,1.83-.031,1.722,1.131,2.308.332a1.168,1.168,0,0,0-.9-1.954c-1.212-.174.372-1.36-.114-1.665s-1.4.741-1.872.32.521-1.987-1.062-2.037-1.781.1-2.269,1.853-1.179.007-2.425,1.3-.957.51-1.08-.273a1.982,1.982,0,0,0-1.854-1.444c-.874-.067-.526-1.666.76-2.011s2.845-.946,2.845-.946.139,1.08,1.063.8a2.054,2.054,0,0,0,1.238-1.236l.923.133s.627-.676.809-.708,2.077.3,2.077.3,1.072-.082.057.42-1.632-.117-1.41.8.3.4.972,1.023a1.181,1.181,0,0,0,2-.361s1.393.553,1.7-.345a.867.867,0,0,0-.419-1.179,2.851,2.851,0,0,0-1.367-1.963c-1.244-.768-4.393-1.4-4.691.268s-1.559.6-1.559.6a1.748,1.748,0,0,0,.892-1.285c.133-.923-2.34-1.338-2.4-.521s.535,1.2-.133,1.336a13.836,13.836,0,0,1-2.119.4c-.833.057-.923-.957-.923-.957a4.507,4.507,0,0,0,1.55-.131c.915-.222,1.452-1.087.438-1.409s.065.775-2.185.452c0,0-.28-.1-.527-.841s-2.316-1.1-3.058-.44-.347,1.187.271,1.393-.264.61.708.808,1.368.314,1.1.57-5.135-1.15-5.035-2.255c0,0-9.765,4.427-13.664,13.525a.937.937,0,0,0,.725.693c.626.149,1.03.207.8,1.41s-.6,3.742,1.01,4.032.8-1.063.422-1.706-.624-2.622.307-2.135-.437.585.954,3.2-.761,2.423.911,4.313,2.605-.1,3.157.572.024,1.063,1.12,1.221.635-.321,1.129.751S399.6,394.12,402.829,393.348Z" transform="translate(-388.225 -364.198)" fill="#83a981"/><g transform="translate(25.195 13.734)"><path d="M540.062,446.655s-.874.345-.471.816S541.092,447.686,540.062,446.655Z" transform="translate(-539.485 -446.655)" fill="#83a981"/></g><g transform="translate(26.46 12.139)"><path d="M547.682,437.093a.471.471,0,0,0-.594.445c-.083.577.873.891,1.17.463S547.682,437.093,547.682,437.093Z" transform="translate(-547.082 -437.08)" fill="#83a981"/></g><g transform="translate(26.727 13.242)"><path d="M550.448,443.7a1.678,1.678,0,0,1-.907.576c-.478.049-1.1-.1-.759.774s1.121-.015,1.121-.015S551.61,444.632,550.448,443.7Z" transform="translate(-548.682 -443.699)" fill="#83a981"/></g><g transform="translate(29.307 12.379)"><path d="M565.192,438.524s-1.508-.158-.85,1a4.212,4.212,0,0,1,.849.652c.412.413,1.451.562,1.542-.073S566.576,438.724,565.192,438.524Z" transform="translate(-564.175 -438.517)" fill="#83a981"/></g><g transform="translate(37.12 20.717)"><path d="M619.588,488.921s-2.7-.86-3.6.838-.513,1.929-3.028,2.627-.612,2.209-.612,2.209.807.528-.158,1.1a2.82,2.82,0,0,0-.935,3.223c.444,1.006,1.77,3.258,2.709,3.687s3.66.762,4.229.078,1.056-.791,1.781-.1,3.141.275,2.868.942-1.543,2.134-.564,3.924,1.663,3.184.524,4.139a2.074,2.074,0,0,0-.061,3.289s-.8,2.3-.061,3.289a3.262,3.262,0,0,1,.336,2.993c-.273.668.016.3.016.3s-.207,1.03.346.462,12.689-11.251,10.651-28.623c0,0-2.927.286-3.215-.58s-1.244-1.18-3.173-.868-1.17-.463-1.838-.735a2.817,2.817,0,0,0-1.393-.141S626.39,487.484,619.588,488.921Z" transform="translate(-611.083 -488.573)" fill="#83a981"/></g><g transform="translate(43.017 8.827)"><path d="M650.119,425.162s.354,1.229-.487.931-3.025-1.083-3.142.962,1.713,2.013,3.3,1.652a4.092,4.092,0,0,0,2.385-2.249s1.59.817,2.209-.213c0,0,.666,1.922,1.631,2.178a.9.9,0,0,0-.743,1.071c.164.907,2.819.464,2.244-1.268s-3.263-1.47-1.655-2.417,2.34,1.75,2.356,2.459-.579,2.39.806,1.765,1.09-2.67,1.527-1.606-.381,2.242.9,2.367a9.986,9.986,0,0,1,1.616.232s-2.194-8.5-6.905-13.831c0,0-.034.643-1.221.708a1.463,1.463,0,0,0-1.107,2.373c.815.883,2.061.414,2.027,1.057s-.256.964-1.2.535-1.541-.339-1.781.51-.628,1.5-1.287,1.17S649.378,423.76,650.119,425.162Z" transform="translate(-646.485 -417.195)" fill="#83a981"/></g><g transform="translate(43.9 10.487)"><path d="M652.463,428.636a1.046,1.046,0,0,0-.257,1.789c1.079,1.1,1.37-1.334,1.93-1.136a.516.516,0,0,1,.156.965c-.379.181-1.122.84-.388,1.063s2.506.6,2.482-.468a1.087,1.087,0,0,0-.832-1.18s-.807-.941-.221-1.74a.739.739,0,0,0-.832-.767c-.882-.009-.859,1.467-1.04,1.5A8.664,8.664,0,0,1,652.463,428.636Z" transform="translate(-651.785 -427.162)" fill="#83a981"/></g></g></g></g><path d="M2771.017,671.985s17.377,10.487-33.557,3.325-34.187-13.684-33.36-13.684-3.784-1.406-3.784-1.406" transform="translate(-1806.713 15.564)" fill="none" stroke="#707070" stroke-linecap="round" stroke-width="2"/><path d="M2698.016,662.625v2.985" transform="translate(-1800.491 14.52)" fill="none" stroke="#707070" stroke-linecap="round" stroke-width="1"/></g></svg>